<svg id="Layer_1" enable-background="new 0 0 256 256" height="512" viewBox="0 0 256 256" width="512" xmlns="http://www.w3.org/2000/svg"><path d="m239.855 143.193h-31.763c-4.455 0-8.067-3.612-8.067-8.067v-19.873c0-4.455 3.612-8.067 8.067-8.067h31.763c4.455 0 8.067 3.612 8.067 8.067v19.873c0 4.455-3.612 8.067-8.067 8.067z" fill="#f9cfcf"/><path d="m239.855 207.973h-31.763c-4.455 0-8.067-3.612-8.067-8.067v-19.873c0-4.455 3.612-8.067 8.067-8.067h31.763c4.455 0 8.067 3.612 8.067 8.067v19.873c0 4.456-3.612 8.067-8.067 8.067z" fill="#f9cfcf"/><path d="m110.622 139.109h41.034c4.455 0 8.067 3.612 8.067 8.067v19.873c0 4.455-3.612 8.067-8.067 8.067h-41.034c-4.455 0-8.067-3.612-8.067-8.067v-19.873c0-4.455 3.611-8.067 8.067-8.067z" fill="#a4c9ff"/><path d="m110.622 48.027h41.034c4.455 0 8.067 3.612 8.067 8.067v19.873c0 4.455-3.612 8.067-8.067 8.067h-41.034c-4.455 0-8.067-3.612-8.067-8.067v-19.873c0-4.456 3.611-8.067 8.067-8.067z" fill="#a4c9ff"/><path d="m16.145 93.096h41.034c4.455 0 8.067 3.612 8.067 8.067v19.873c0 4.455-3.612 8.067-8.067 8.067h-41.034c-4.455 0-8.067-3.612-8.067-8.067v-19.873c0-4.455 3.612-8.067 8.067-8.067z" fill="#4671c6"/><path d="m239.855 84.035h-31.763c-4.455 0-8.067-3.612-8.067-8.067v-19.874c0-4.455 3.612-8.067 8.067-8.067h31.763c4.455 0 8.067 3.612 8.067 8.067v19.873c0 4.456-3.612 8.068-8.067 8.068z" fill="#f9a7a7"/><path d="m231.485 192.97h-15.023c-1.657 0-3-1.343-3-3s1.343-3 3-3h15.023c1.657 0 3 1.343 3 3s-1.343 3-3 3z" fill="#ffea92"/><path d="m232.333 128.189h-15.023c-1.657 0-3-1.343-3-3s1.343-3 3-3h15.023c1.657 0 3 1.343 3 3s-1.344 3-3 3z" fill="#ffea92"/><path d="m231.485 69.03h-15.023c-1.657 0-3-1.343-3-3s1.343-3 3-3h15.023c1.657 0 3 1.343 3 3s-1.343 3-3 3z" fill="#ffea92"/><path d="m47.929 114.1h-22.534c-1.657 0-3-1.343-3-3s1.343-3 3-3h22.535c1.657 0 3 1.343 3 3s-1.344 3-3.001 3z" fill="#ffea92"/><path d="m95.138 158.169h-9.833c-3.033 0-5.501-2.245-5.501-5.005v-84.129c0-2.76 2.468-5.005 5.501-5.005h9.833c1.104 0 2 .896 2 2s-.896 2-2 2h-9.833c-.885 0-1.501.529-1.501 1.005v84.129c0 .476.616 1.005 1.501 1.005h9.833c1.104 0 2 .896 2 2s-.896 2-2 2z" fill="#3762cc"/><path d="m178.482 159.113h-10.065c-1.105 0-2-.896-2-2s.895-2 2-2h10.065c1.104 0 2 .896 2 2s-.895 2-2 2z" fill="#3762cc"/><path d="m191.816 191.037h-9.833c-3.033 0-5.501-2.245-5.501-5.005v-57.839c0-2.759 2.468-5.004 5.501-5.004h9.833c1.104 0 2 .896 2 2s-.896 2-2 2h-9.833c-.885 0-1.501.529-1.501 1.004v57.839c0 .476.616 1.005 1.501 1.005h9.833c1.104 0 2 .896 2 2s-.895 2-2 2z" fill="#3762cc"/><path d="m188.795 68.03h-20.378c-1.105 0-2-.896-2-2s.895-2 2-2h20.378c1.104 0 2 .896 2 2s-.895 2-2 2z" fill="#3762cc"/><path d="m81.804 113.1h-10.066c-1.104 0-2-.896-2-2s.896-2 2-2h10.066c1.104 0 2 .896 2 2s-.896 2-2 2z" fill="#3762cc"/><path d="m141.462 160.203h-22.535c-1.657 0-3-1.343-3-3s1.343-3 3-3h22.535c1.657 0 3 1.343 3 3s-1.343 3-3 3z" fill="#ffea92"/><path d="m142.406 69.121h-22.535c-1.657 0-3-1.343-3-3s1.343-3 3-3h22.535c1.657 0 3 1.343 3 3s-1.344 3-3 3z" fill="#ffea92"/><g fill="#3762cc"><path d="m239.855 145.193h-31.763c-5.551 0-10.067-4.517-10.067-10.067v-19.874c0-5.551 4.516-10.066 10.067-10.066h31.763c5.551 0 10.067 4.516 10.067 10.066v19.874c0 5.551-4.516 10.067-10.067 10.067zm-31.763-36.007c-3.346 0-6.067 2.722-6.067 6.066v19.874c0 3.346 2.722 6.067 6.067 6.067h31.763c3.345 0 6.067-2.722 6.067-6.067v-19.874c0-3.345-2.722-6.066-6.067-6.066z"/><path d="m239.855 209.974h-31.763c-5.551 0-10.067-4.517-10.067-10.067v-19.874c0-5.551 4.516-10.066 10.067-10.066h31.763c5.551 0 10.067 4.516 10.067 10.066v19.874c0 5.55-4.516 10.067-10.067 10.067zm-31.763-36.008c-3.346 0-6.067 2.722-6.067 6.066v19.874c0 3.346 2.722 6.067 6.067 6.067h31.763c3.345 0 6.067-2.722 6.067-6.067v-19.874c0-3.345-2.722-6.066-6.067-6.066z"/><path d="m151.655 177.117h-41.033c-5.551 0-10.067-4.517-10.067-10.067v-19.873c0-5.551 4.516-10.067 10.067-10.067h41.033c5.551 0 10.067 4.517 10.067 10.067v19.873c.001 5.551-4.515 10.067-10.067 10.067zm-41.033-36.008c-3.346 0-6.067 2.722-6.067 6.067v19.873c0 3.346 2.722 6.067 6.067 6.067h41.033c3.346 0 6.067-2.722 6.067-6.067v-19.873c0-3.346-2.722-6.067-6.067-6.067z"/><path d="m151.655 86.034h-41.033c-5.551 0-10.067-4.516-10.067-10.066v-19.874c0-5.551 4.516-10.067 10.067-10.067h41.033c5.551 0 10.067 4.517 10.067 10.067v19.874c.001 5.551-4.515 10.066-10.067 10.066zm-41.033-36.008c-3.346 0-6.067 2.722-6.067 6.067v19.874c0 3.345 2.722 6.066 6.067 6.066h41.033c3.346 0 6.067-2.722 6.067-6.066v-19.873c0-3.346-2.722-6.067-6.067-6.067h-41.033z"/><path d="m57.179 131.104h-41.034c-5.551 0-10.067-4.517-10.067-10.067v-19.873c0-5.551 4.516-10.067 10.067-10.067h41.034c5.551 0 10.067 4.517 10.067 10.067v19.873c0 5.55-4.516 10.067-10.067 10.067zm-41.034-36.008c-3.345 0-6.067 2.722-6.067 6.067v19.873c0 3.346 2.722 6.067 6.067 6.067h41.034c3.346 0 6.067-2.722 6.067-6.067v-19.873c0-3.346-2.722-6.067-6.067-6.067z"/><path d="m239.855 86.034h-31.763c-5.551 0-10.067-4.516-10.067-10.066v-19.874c0-5.551 4.516-10.067 10.067-10.067h31.763c5.551 0 10.067 4.517 10.067 10.067v19.874c0 5.551-4.516 10.066-10.067 10.066zm-31.763-36.008c-3.346 0-6.067 2.722-6.067 6.067v19.874c0 3.345 2.722 6.066 6.067 6.066h31.763c3.345 0 6.067-2.722 6.067-6.066v-19.873c0-3.346-2.722-6.067-6.067-6.067h-31.763z"/></g></svg>