<?xml version="1.0" encoding="utf-8"?>
<!-- Generator: Adobe Illustrator 22.1.0, SVG Export Plug-In . SVG Version: 6.00 Build 0)  -->
<svg version="1.1" id="Layer_1" xmlns="http://www.w3.org/2000/svg" xmlns:xlink="http://www.w3.org/1999/xlink" x="0px" y="0px"
	 viewBox="0 0 512 512" style="enable-background:new 0 0 512 512;" xml:space="preserve">
<style type="text/css">
	.Green{fill:#2BB673;}
	.White{clip-path:url(#WhitePath_1_);fill:none;stroke:#FFFFFF;stroke-width:12;stroke-miterlimit:10;}
</style>
<g id="XMLID_156_">
	<g id="Green_Background">
		<path id="Green_Background_1_" class="Green" d="M489,255.9c0-0.2,0-0.5,0-0.7c0-1.6,0-3.2-0.1-4.7c0-0.9-0.1-1.8-0.1-2.8
			c0-0.9-0.1-1.8-0.1-2.7c-0.1-1.1-0.1-2.2-0.2-3.3c0-0.7-0.1-1.4-0.1-2.1c-0.1-1.2-0.2-2.4-0.3-3.6c0-0.5-0.1-1.1-0.1-1.6
			c-0.1-1.3-0.3-2.6-0.4-4c0-0.3-0.1-0.7-0.1-1C474.3,113.2,375.7,22.9,256,22.9S37.7,113.2,24.5,229.5c0,0.3-0.1,0.7-0.1,1
			c-0.1,1.3-0.3,2.6-0.4,4c-0.1,0.5-0.1,1.1-0.1,1.6c-0.1,1.2-0.2,2.4-0.3,3.6c0,0.7-0.1,1.4-0.1,2.1c-0.1,1.1-0.1,2.2-0.2,3.3
			c0,0.9-0.1,1.8-0.1,2.7s-0.1,1.8-0.1,2.8c0,1.6-0.1,3.2-0.1,4.7c0,0.2,0,0.5,0,0.7c0,0,0,0,0,0.1s0,0,0,0.1c0,0.2,0,0.5,0,0.7
			c0,1.6,0,3.2,0.1,4.7c0,0.9,0.1,1.8,0.1,2.8c0,0.9,0.1,1.8,0.1,2.7c0.1,1.1,0.1,2.2,0.2,3.3c0,0.7,0.1,1.4,0.1,2.1
			c0.1,1.2,0.2,2.4,0.3,3.6c0,0.5,0.1,1.1,0.1,1.6c0.1,1.3,0.3,2.6,0.4,4c0,0.3,0.1,0.7,0.1,1C37.7,398.8,136.3,489.1,256,489.1
			s218.3-90.3,231.5-206.5c0-0.3,0.1-0.7,0.1-1c0.1-1.3,0.3-2.6,0.4-4c0.1-0.5,0.1-1.1,0.1-1.6c0.1-1.2,0.2-2.4,0.3-3.6
			c0-0.7,0.1-1.4,0.1-2.1c0.1-1.1,0.1-2.2,0.2-3.3c0-0.9,0.1-1.8,0.1-2.7c0-0.9,0.1-1.8,0.1-2.8c0-1.6,0.1-3.2,0.1-4.7
			c0-0.2,0-0.5,0-0.7C489,256,489,256,489,255.9C489,256,489,256,489,255.9z"/>
	</g>
	<g>
		<defs>
			<path id="WhitePath" d="M489,255.9c0-0.2,0-0.5,0-0.7c0-1.6,0-3.2-0.1-4.7c0-0.9-0.1-1.8-0.1-2.8c0-0.9-0.1-1.8-0.1-2.7
				c-0.1-1.1-0.1-2.2-0.2-3.3c0-0.7-0.1-1.4-0.1-2.1c-0.1-1.2-0.2-2.4-0.3-3.6c0-0.5-0.1-1.1-0.1-1.6c-0.1-1.3-0.3-2.6-0.4-4
				c0-0.3-0.1-0.7-0.1-1C474.3,113.2,375.7,22.9,256,22.9S37.7,113.2,24.5,229.5c0,0.3-0.1,0.7-0.1,1c-0.1,1.3-0.3,2.6-0.4,4
				c-0.1,0.5-0.1,1.1-0.1,1.6c-0.1,1.2-0.2,2.4-0.3,3.6c0,0.7-0.1,1.4-0.1,2.1c-0.1,1.1-0.1,2.2-0.2,3.3c0,0.9-0.1,1.8-0.1,2.7
				s-0.1,1.8-0.1,2.8c0,1.6-0.1,3.2-0.1,4.7c0,0.2,0,0.5,0,0.7c0,0,0,0,0,0.1s0,0,0,0.1c0,0.2,0,0.5,0,0.7c0,1.6,0,3.2,0.1,4.7
				c0,0.9,0.1,1.8,0.1,2.8c0,0.9,0.1,1.8,0.1,2.7c0.1,1.1,0.1,2.2,0.2,3.3c0,0.7,0.1,1.4,0.1,2.1c0.1,1.2,0.2,2.4,0.3,3.6
				c0,0.5,0.1,1.1,0.1,1.6c0.1,1.3,0.3,2.6,0.4,4c0,0.3,0.1,0.7,0.1,1C37.7,398.8,136.3,489.1,256,489.1s218.3-90.3,231.5-206.5
				c0-0.3,0.1-0.7,0.1-1c0.1-1.3,0.3-2.6,0.4-4c0.1-0.5,0.1-1.1,0.1-1.6c0.1-1.2,0.2-2.4,0.3-3.6c0-0.7,0.1-1.4,0.1-2.1
				c0.1-1.1,0.1-2.2,0.2-3.3c0-0.9,0.1-1.8,0.1-2.7c0-0.9,0.1-1.8,0.1-2.8c0-1.6,0.1-3.2,0.1-4.7c0-0.2,0-0.5,0-0.7
				C489,256,489,256,489,255.9C489,256,489,256,489,255.9z"/>
		</defs>
		<clipPath id="WhitePath_1_">
			<use xlink:href="#WhitePath"  style="overflow:visible;"/>
		</clipPath>
		<polyline id="White_Pulse" class="White" points="29.4,253.5 20.6,253.5 23,253.5 78.8,253.5 111.1,182.9 140.6,313.5 158.5,258 
			204.8,258 231.4,193.8 274.7,349.9 294.4,274.8 344.1,274.8 371.2,166.1 391.5,244.1 466,244.1 478.8,203.1 494.9,244.1 		"/>
	</g>
</g>
</svg>
