<?xml version="1.0" encoding="utf-8"?>
<!-- Generator: Adobe Illustrator 23.0.0, SVG Export Plug-In . SVG Version: 6.00 Build 0)  -->
<svg version="1.1" id="Layer_1" xmlns="http://www.w3.org/2000/svg" xmlns:xlink="http://www.w3.org/1999/xlink" x="0px" y="0px"
	 viewBox="0 0 496.2 496.2" style="enable-background:new 0 0 496.2 496.2;" xml:space="preserve">
<style type="text/css">
	.st0{fill:#56B48C;}
	.st1{display:none;fill:#FFFFFF;}
	.Black{fill:#00000;}
	.Red{fill:#D04D2F;}
	.Green{fill:#4DAE89;}
	.Blue{fill:#377AB5;}
	.Yellow{fill:#EEB764}
</style>
<path class="Red" d="M248.1,0C111.1,0,0,111.1,0,248.1c0,137,111.1,248.1,248.1,248.1c137,0,248.1-111.1,248.1-248.1
	C496.2,111.1,385.1,0,248.1,0z"/>
<g>
	<path class="Black" d="M158.6,253.3H93.1v60.7h73v18.3H71.3V163.8h91v18.3H93.1v53.3h65.5V253.3z"/>
	<path class="Black" d="M194.3,163.8h90.7v18.3h-69v56h63.7v18h-63.7v76.3h-21.8V163.8z"/>
	<path class="Black" d="M323.8,279.3l-17.5,53h-22.5l57.3-168.5h26.3l57.5,168.5h-23.3l-18-53H323.8z M379.1,262.3l-16.5-48.5
		c-3.8-11-6.3-21-8.8-30.8h-0.5c-2.5,10-5.3,20.3-8.5,30.5l-16.5,48.7H379.1z"/>
</g>
</svg>
