<?xml version="1.0" encoding="utf-8"?>
<!-- Generator: Adobe Illustrator 23.0.0, SVG Export Plug-In . SVG Version: 6.00 Build 0)  -->
<svg version="1.1" id="Layer_1" xmlns="http://www.w3.org/2000/svg" xmlns:xlink="http://www.w3.org/1999/xlink" x="0px" y="0px"
	 viewBox="0 0 496.2 496.2" style="enable-background:new 0 0 496.2 496.2;" xml:space="preserve">
<style type="text/css">
	.st0{fill:#56B48C;}
	.st1{display:none;fill:#FFFFFF;}
	.Black{fill:#00000;}
	.Red{fill:#D04D2F;}
	.Green{fill:#4DAE89;}
	.Blue{fill:#377AB5;}
	.Yellow{fill:#EEB764}
</style>
<path class="Red" d="M248.1,0C111.1,0,0,111.1,0,248.1c0,137,111.1,248.1,248.1,248.1c137,0,248.1-111.1,248.1-248.1
	C496.2,111.1,385.1,0,248.1,0z"/>
<g>
	<path class="Black" d="M62.2,337.6v-179h106.1v21.1H81.6v54.7h81.2v21.1H81.6v60.9h90.1v21.1H62.2z"/>
	<path class="Black" d="M199.9,337.6v-179h99v21.1h-79.6v55.4h68.8v21.1h-68.8v81.3H199.9z"/>
	<path class="Black" d="M323.1,337.6v-179h55.1c11.2,0,20,1.7,26.5,5.2c6.5,3.5,11.9,8.8,16,16.2c4.2,7.3,6.2,15.4,6.2,24.3
		c0,8.2-1.8,15.6-5.4,22.2c-3.6,6.6-8.6,11.9-15.1,15.9c8.5,3.1,15.2,8.4,20.1,15.8c4.9,7.5,7.4,16.6,7.4,27.5
		c0,10.8-2.2,20.3-6.7,28.5c-4.4,8.2-10.4,14.1-17.8,17.8c-7.4,3.7-17.6,5.6-30.5,5.6H323.1z M342.5,233.8h31.8
		c8.3,0,14.2-0.6,17.7-1.7c5.1-1.7,8.9-4.6,11.7-8.6s4.1-9.5,4.1-16.4c0-6.4-1.2-11.8-3.7-16.1s-5.8-7.2-9.9-8.9
		c-4.1-1.6-11.5-2.4-22.2-2.4h-29.5V233.8z M342.5,316.4h36.6c8.1,0,14-0.7,17.9-2.2c5.5-2.1,9.8-5.6,12.7-10.4
		c2.9-4.8,4.3-10.9,4.3-18.2c0-6.8-1.4-12.5-4.2-17.2c-2.8-4.7-6.5-8.1-11.2-10.3c-4.7-2.2-12-3.2-22.1-3.2h-34V316.4z"/>
</g>
</svg>
