<?xml version="1.0" encoding="UTF-8" standalone="no"?>
<!-- Generator: Adobe Illustrator 19.0.0, SVG Export Plug-In . SVG Version: 6.00 Build 0)  -->

<svg
   xmlns:dc="http://purl.org/dc/elements/1.1/"
   xmlns:cc="http://creativecommons.org/ns#"
   xmlns:rdf="http://www.w3.org/1999/02/22-rdf-syntax-ns#"
   xmlns:svg="http://www.w3.org/2000/svg"
   xmlns="http://www.w3.org/2000/svg"
   xmlns:sodipodi="http://sodipodi.sourceforge.net/DTD/sodipodi-0.dtd"
   xmlns:inkscape="http://www.inkscape.org/namespaces/inkscape"
   version="1.1"
   id="Layer_1"
   x="0px"
   y="0px"
   viewBox="0 0 488.4 488.4"
   style="enable-background:new 0 0 488.4 488.4;"
   xml:space="preserve"
   sodipodi:docname="PivotPoints.svg"><metadata
   id="metadata71"><rdf:RDF><cc:Work
       rdf:about=""><dc:format>image/svg+xml</dc:format><dc:type
         rdf:resource="http://purl.org/dc/dcmitype/StillImage" /></cc:Work></rdf:RDF></metadata><defs
   id="defs69">
		
		
		
		
		
		
		
		
		
		
		
		
		
		
		
	</defs><sodipodi:namedview
   pagecolor="#ffffff"
   bordercolor="#666666"
   borderopacity="1"
   objecttolerance="10"
   gridtolerance="10"
   guidetolerance="10"
   inkscape:pageopacity="0"
   inkscape:pageshadow="2"
   inkscape:window-width="640"
   inkscape:window-height="480"
   id="namedview67"
   
   
   showgrid="false" />
   
   <style type="text/css">
	.White{fill:#FFFFFF;}
</style>
<g
     id="g34">
	<path
     inkscape:connector-curvature="0"
     d="M 108,296.4 H 55.4 c -14.3,0 -26,-11.7 -26,-25.9 v -52.6 c 0,-14.3 11.7,-26 25.9,-26 h 52.6 c 14.3,0 26,11.7 26,25.9 v 52.6 c 0.1,14.3 -11.6,26 -25.9,26 z"
     style="fill:#009EFF"
     id="XMLID_163_" /><g
   id="XMLID_155_">
			<path
   inkscape:connector-curvature="0"
   id="path3" class="White"
   d="m 81.7,305.5 v 0 c -33.8,0 -61.3,-27.5 -61.4,-61.3 0,-16.3 6.4,-31.7 18,-43.3 11.6,-11.6 27,-18 43.3,-18 33.8,0 61.3,27.5 61.4,61.3 0,16.3 -6.4,31.7 -18,43.3 -11.6,11.6 -27,18 -43.3,18 z m 0,-104.5 c -11.5,0 -22.3,4.5 -30.5,12.7 -8.2,8.2 -12.7,19 -12.7,30.5 0,23.8 19.4,43.2 43.2,43.2 v 9.1 -9.1 c 11.5,0 22.3,-4.5 30.5,-12.7 8.2,-8.2 12.7,-19 12.7,-30.5 0,-23.8 -19.4,-43.2 -43.2,-43.2 z" />
		</g><path
   inkscape:connector-curvature="0"
   id="path6" class="White"
   d="m 81.5,122.6 c 0,0 0.1,0 0,0 16.4,0 31.8,-6.4 43.4,-18 11.6,-11.6 18,-27 18,-43.3 C 142.9,27.5 115.4,0 81.5,0 65.2,0 49.8,6.4 38.2,18 c -11.6,11.6 -18,27 -18,43.3 0,33.8 27.5,61.3 61.3,61.3 z M 51,30.8 c 8.2,-8.2 19,-12.7 30.5,-12.7 23.8,0 43.2,19.4 43.2,43.2 0,11.5 -4.5,22.3 -12.7,30.5 -8.2,8.2 -19,12.7 -30.5,12.7 v 9.1 -9.1 C 57.7,104.5 38.3,85.1 38.3,61.3 38.3,49.8 42.8,39 51,30.8 Z" /><path
   inkscape:connector-curvature="0"
   id="path8" class="White"
   d="m 81.8,365.8 c -16.3,0 -31.7,6.4 -43.3,18 -11.6,11.6 -18,27 -18,43.3 0,33.8 27.5,61.3 61.3,61.3 v 0 c 33.8,0 61.3,-27.6 61.3,-61.4 0,-33.7 -27.5,-61.2 -61.3,-61.2 z m 0.1,104.5 v 9.1 -9.1 c -23.8,0 -43.2,-19.4 -43.2,-43.2 0,-11.5 4.5,-22.3 12.7,-30.5 8.2,-8.2 19,-12.7 30.5,-12.7 23.8,0 43.2,19.4 43.2,43.2 -0.1,23.8 -19.4,43.2 -43.2,43.2 z" /><path
   inkscape:connector-curvature="0"
   id="path10" class="White"
   d="m 468.2,57.7 c 0,-5 -4.1,-9.1 -9.1,-9.1 v 0 l -248.8,0.2 c -5,0 -9.1,4.1 -9.1,9.1 0,5 4.1,9.1 9.1,9.1 v 0 l 248.8,-0.2 c 5,-0.1 9.1,-4.1 9.1,-9.1 z" /><path
   inkscape:connector-curvature="0"
   id="path12" class="White"
   d="m 198,244.1 c 0,2.4 1,4.7 2.6,6.4 1.7,1.7 4,2.7 6.4,2.7 2.4,0 4.7,-1 6.4,-2.7 1.7,-1.7 2.7,-4 2.7,-6.4 0,-2.4 -1,-4.7 -2.7,-6.4 -1.7,-1.7 -4,-2.7 -6.4,-2.7 -2.4,0 -4.7,1 -6.4,2.7 -1.6,1.7 -2.6,4 -2.6,6.4 z" /><path
   inkscape:connector-curvature="0"
   id="path14" class="White"
   d="m 247.2,244.1 c 0,-5 -4,-9.1 -9.1,-9.1 -5,0 -9.1,4.1 -9,9.1 0,5 4,9.1 9.1,9.1 5,-0.1 9.1,-4.1 9,-9.1 z" /><path
   inkscape:connector-curvature="0"
   id="path16" class="White"
   d="m 278.3,244 c 0,-5 -4,-9 -9.1,-9 -5,0 -9.1,4.1 -9.1,9.1 0,5 4.1,9.1 9.1,9.1 5.1,-0.1 9.2,-4.1 9.1,-9.2 z" /><path
   inkscape:connector-curvature="0"
   id="path18" class="White"
   d="m 433.9,243.9 c 0,-5 -4.1,-9.1 -9.1,-9.1 -5,0 -9,4.1 -9,9.1 0,5 4.1,9.1 9.1,9.1 4.9,0 9,-4.1 9,-9.1 z" /><path
   inkscape:connector-curvature="0"
   id="path20" class="White"
   d="m 371.7,244 c 0,-5 -4.1,-9.1 -9.1,-9.1 -5,0 -9,4.1 -9,9.1 0,5 4,9 9.1,9 4.9,0 9,-4 9,-9 z" /><path
   inkscape:connector-curvature="0"
   id="path22" class="White"
   d="m 340.6,244 c 0,-5 -4.1,-9.1 -9.1,-9.1 -5,0 -9,4.1 -9,9.1 0,5 4,9 9.1,9 4.9,0.1 9,-4 9,-9 z" /><path
   inkscape:connector-curvature="0"
   id="path24" class="White"
   d="m 402.8,244 c 0,-5 -4.1,-9.1 -9.1,-9.1 -5,0 -9,4.1 -9,9.1 0,5 4.1,9.1 9.1,9.1 4.9,-0.1 9,-4.1 9,-9.1 z" /><path
   inkscape:connector-curvature="0"
   id="path26" class="White"
   d="m 309.5,244 c 0,-5 -4.1,-9.1 -9.1,-9 -5,0 -9.1,4 -9,9.1 0,5 4,9.1 9.1,9 4.9,0 9,-4.1 9,-9.1 z" /><path
   inkscape:connector-curvature="0"
   id="path28" class="White"
   d="m 462.3,250.3 c 1.7,-1.7 2.7,-4 2.7,-6.4 0,-2.4 -1,-4.7 -2.7,-6.4 -1.7,-1.7 -4,-2.7 -6.4,-2.7 -2.4,0 -4.7,1 -6.4,2.7 -1.7,1.7 -2.7,4 -2.7,6.4 0,2.4 1,4.7 2.7,6.4 1.7,1.7 4,2.7 6.4,2.7 2.4,0 4.7,-1 6.4,-2.7 z" /><path
   inkscape:connector-curvature="0"
   id="path30" class="White"
   d="m 198.2,427 c 0,5 4.1,9.1 9.1,9.1 v 0 l 248.8,-0.2 c 5,0 9.1,-4.1 9.1,-9.1 0,-5 -4.1,-9.1 -9.1,-9.1 v 0 L 207.2,418 c -5,0 -9,4 -9,9 z" />
</g>
<g
     id="g36">
</g>
<g
     id="g38">
</g>
<g
     id="g40">
</g>
<g
     id="g42">
</g>
<g
     id="g44">
</g>
<g
     id="g46">
</g>
<g
     id="g48">
</g>
<g
     id="g50">
</g>
<g
     id="g52">
</g>
<g
     id="g54">
</g>
<g
     id="g56">
</g>
<g
     id="g58">
</g>
<g
     id="g60">
</g>
<g
     id="g62">
</g>
<g
     id="g64">
</g>
</svg>