<?xml version="1.0" encoding="utf-8"?>
<!-- Generator: Adobe Illustrator 23.0.0, SVG Export Plug-In . SVG Version: 6.00 Build 0)  -->
<svg version="1.1" id="Layer_1" xmlns="http://www.w3.org/2000/svg" xmlns:xlink="http://www.w3.org/1999/xlink" x="0px" y="0px"
	 viewBox="0 0 512 512" style="enable-background:new 0 0 512 512;" xml:space="preserve">
<style type="text/css">
	.st0{fill:#8F96AC;}
	.Black{fill:#000000;}
	.Yellow{fill:#EEB764;}
	.Green{fill:#4DAE89;}
	.Red{fill:#D04D2F;}
	.Blue{fill:#377AB5;}
	.st6{fill:#D7DEED;}
</style>
<g>
	<path class="st0" d="M17.7,397.2c-3.5,0-6.7-2-8.2-5.4c-1.9-4.5,0.3-9.7,4.8-11.5l102.5-42.7l51.6-129c1.1-2.8,3.5-4.8,6.4-5.4
		c2.9-0.6,5.9,0.3,8,2.4l72.9,72.9l66.6-72.7c3.3-3.6,8.9-3.8,12.5-0.5s3.8,8.9,0.5,12.5l-72.8,79.4c-1.6,1.8-3.9,2.8-6.3,2.9
		c-2.2,0-4.7-0.9-6.4-2.6l-70-70l-48,120c-0.9,2.2-2.6,4-4.8,4.9L21.1,396.6C19.9,397,18.8,397.2,17.7,397.2z"/>
	<path class="st0" d="M388.4,178.8c-3.4,0-6.6-2-8.1-5.3c-2-4.5,0.1-9.7,4.5-11.6l105.9-46.3c4.5-2,9.7,0.1,11.6,4.5
		c2,4.5-0.1,9.7-4.5,11.6L392,178C390.8,178.5,389.6,178.8,388.4,178.8z"/>
</g>
<circle id="Black" class="Black" cx="494.3" cy="123.6" r="17.7"/>
<circle id="Yellow" class="Yellow" cx="256" cy="291.3" r="17.7"/>
<circle id="Orange" class="Blue" cx="176.6" cy="211.9" r="17.7"/>
<circle id="Red" class="Red" cx="123.6" cy="344.3" r="17.7"/>
<circle id="Blue" class="Black" cx="17.7" cy="388.4" r="17.7"/>
<g>
	<circle class="st6" cx="353.1" cy="8.8" r="8.8"/>
	<circle class="st6" cx="353.1" cy="44.1" r="8.8"/>
	<circle class="st6" cx="353.1" cy="79.4" r="8.8"/>
	<circle class="st6" cx="353.1" cy="114.8" r="8.8"/>
</g>
<circle id="Green" class="Green" cx="353.1" cy="185.4" r="17.7"/>
<g>
	<circle class="st6" cx="353.1" cy="256" r="8.8"/>
	<circle class="st6" cx="353.1" cy="291.3" r="8.8"/>
	<circle class="st6" cx="353.1" cy="326.6" r="8.8"/>
	<circle class="st6" cx="353.1" cy="361.9" r="8.8"/>
	<circle class="st6" cx="353.1" cy="397.2" r="8.8"/>
	<circle class="st6" cx="353.1" cy="432.6" r="8.8"/>
	<circle class="st6" cx="353.1" cy="467.9" r="8.8"/>
	<circle class="st6" cx="353.1" cy="503.2" r="8.8"/>
	<path class="st6" d="M353.1,229.5c-24.3,0-44.1-19.8-44.1-44.1s19.8-44.1,44.1-44.1s44.1,19.8,44.1,44.1S377.4,229.5,353.1,229.5z
		 M353.1,158.9c-14.6,0-26.5,11.9-26.5,26.5s11.9,26.5,26.5,26.5s26.5-11.9,26.5-26.5S367.7,158.9,353.1,158.9z"/>
</g>
<circle class="st6" cx="176.6" cy="282.5" r="8.8"/>
<circle class="st6" cx="176.6" cy="317.8" r="8.8"/>
<circle class="st6" cx="176.6" cy="353.1" r="8.8"/>
<circle class="st6" cx="176.6" cy="388.4" r="8.8"/>
<circle class="st6" cx="176.6" cy="423.7" r="8.8"/>
<circle class="st6" cx="176.6" cy="459" r="8.8"/>
<circle class="st6" cx="176.6" cy="494.3" r="8.8"/>
<circle class="st6" cx="176.6" cy="151.2" r="8.8"/>
<path class="st6" d="M176.6,256c-24.3,0-44.1-19.8-44.1-44.1s19.8-44.1,44.1-44.1s44.1,19.8,44.1,44.1S200.9,256,176.6,256z
	 M176.6,185.4c-14.6,0-26.5,11.9-26.5,26.5s11.9,26.5,26.5,26.5s26.5-11.9,26.5-26.5S191.2,185.4,176.6,185.4z"/>
<g>
	<circle class="st6" cx="176.6" cy="8.8" r="8.8"/>
	<circle class="st6" cx="176.6" cy="44.1" r="8.8"/>
	<circle class="st6" cx="176.6" cy="79.4" r="8.8"/>
	<circle class="st6" cx="176.6" cy="114.8" r="8.8"/>
</g>
</svg>
