<svg height="512pt" viewBox="0 0 512 512" width="512pt" xmlns="http://www.w3.org/2000/svg"><path d="m486.398438 247.464844-152.574219 130.816406c-17.050781 14.59375-27.660157 35.320312-29.527344 57.6875l-4.351563 51.882812c-.730468 8.832032-8.117187 15.625-16.980468 15.613282h-53.929688c-8.863281.011718-16.25-6.78125-16.980468-15.613282l-4.351563-51.882812c-1.867187-22.367188-12.476563-43.09375-29.527344-57.6875l-152.574219-130.816406 217.597657-16.125 12.800781-.941406zm0 0" fill="#fec108"/><path d="m460.800781 247.464844-152.578125 130.816406c-17.050781 14.59375-27.660156 35.320312-29.523437 57.6875l-4.351563 51.882812c-.730468 8.832032-8.121094 15.625-16.980468 15.613282h-28.332032c-8.863281.011718-16.25-6.78125-16.980468-15.613282l-4.351563-51.882812c-1.867187-22.367188-12.476563-43.09375-29.527344-57.6875l-152.574219-130.816406 217.597657-16.125zm0 0" fill="#ffdc00"/><path d="m281.601562 17.066406v76.800782h-51.203124v-76.800782c.015624-4.707031 3.828124-8.519531 8.535156-8.53125h34.132812c4.707032.011719 8.519532 3.824219 8.535156 8.53125zm0 0" fill="#549414"/><path d="m196.265625 128v59.734375h-51.199219v-59.734375c.015625-4.707031 3.828125-8.519531 8.535156-8.535156h34.132813c4.707031.015625 8.519531 3.828125 8.53125 8.535156zm0 0" fill="#c81e1e"/><path d="m110.933594 76.800781v34.132813h-51.199219v-34.132813c.011719-4.707031 3.824219-8.519531 8.53125-8.535156h34.132813c4.707031.015625 8.519531 3.828125 8.535156 8.535156zm0 0" fill="#0377bc"/><path d="m366.933594 68.265625v85.335937h-51.199219v-85.335937c.011719-4.707031 3.824219-8.519531 8.53125-8.53125h34.132813c4.707031.011719 8.519531 3.824219 8.535156 8.53125zm0 0" fill="#fec108"/><path d="m452.265625 128v59.734375h-51.199219v-59.734375c.015625-4.707031 3.828125-8.519531 8.535156-8.535156h34.132813c4.707031.015625 8.519531 3.828125 8.53125 8.535156zm0 0" fill="#ad1457"/><path d="m230.398438 85.332031h51.203124v136.535157h-51.203124zm0 0" fill="#549414"/><path d="m256 17.066406v76.800782h-25.601562v-76.800782c.015624-4.707031 3.828124-8.519531 8.535156-8.53125h8.53125c4.710937.011719 8.523437 3.824219 8.535156 8.53125zm0 0" fill="#60a917"/><path d="m230.398438 85.332031h25.601562v136.535157h-25.601562zm0 0" fill="#60a917"/><path d="m145.066406 179.199219h51.199219v42.667969h-51.199219zm0 0" fill="#c81e1e"/><path d="m170.667969 128v59.734375h-25.601563v-59.734375c.015625-4.707031 3.828125-8.519531 8.535156-8.535156h8.53125c4.707032.015625 8.519532 3.828125 8.535157 8.535156zm0 0" fill="#f44335"/><path d="m145.066406 179.199219h25.601563v42.667969h-25.601563zm0 0" fill="#f44335"/><path d="m59.734375 102.398438h51.199219v119.46875h-51.199219zm0 0" fill="#0377bc"/><path d="m85.332031 76.800781v34.132813h-25.597656v-34.132813c.011719-4.707031 3.824219-8.519531 8.53125-8.535156h8.535156c4.707031.015625 8.519531 3.828125 8.53125 8.535156zm0 0" fill="#02a9f4"/><path d="m59.734375 102.398438h25.597656v119.46875h-25.597656zm0 0" fill="#02a9f4"/><path d="m315.734375 145.066406h51.199219v76.800782h-51.199219zm0 0" fill="#fec108"/><path d="m341.332031 68.265625v85.335937h-25.597656v-85.335937c.011719-4.707031 3.824219-8.519531 8.53125-8.53125h8.535156c4.707031.011719 8.519531 3.824219 8.53125 8.53125zm0 0" fill="#ffdc00"/><path d="m315.734375 145.066406h25.597656v76.800782h-25.597656zm0 0" fill="#ffdc00"/><path d="m401.066406 179.199219h51.199219v42.667969h-51.199219zm0 0" fill="#ad1457"/><path d="m426.667969 128v59.734375h-25.601563v-59.734375c.015625-4.707031 3.828125-8.519531 8.535156-8.535156h8.53125c4.707032.015625 8.519532 3.828125 8.535157 8.535156zm0 0" fill="#e91e63"/><path d="m401.066406 179.199219h25.601563v42.667969h-25.601563zm0 0" fill="#e91e63"/><path d="m503.464844 230.398438c-.066406 9.398437-7.667969 17-17.066406 17.066406h-460.796876c-9.414062-.027344-17.039062-7.652344-17.066406-17.066406-.027344-4.527344 1.792969-8.867188 5.03125-12.03125 3.164063-3.242188 7.507813-5.058594 12.035156-5.035157h460.796876c9.414062.027344 17.039062 7.652344 17.066406 17.066407zm0 0" fill="#f57c00"/><path d="m477.867188 230.398438c-.070313 9.398437-7.667969 17-17.066407 17.066406h-435.199219c-9.414062-.027344-17.039062-7.652344-17.066406-17.066406-.027344-4.527344 1.792969-8.867188 5.03125-12.03125 3.164063-3.242188 7.507813-5.058594 12.035156-5.035157h435.199219c9.414063.027344 17.039063 7.652344 17.066407 17.066407zm0 0" fill="#ff9801"/><path d="m486.398438 256h-460.796876c-14.140624 0-25.601562-11.460938-25.601562-25.601562 0-14.136719 11.460938-25.597657 25.601562-25.597657h460.796876c14.140624 0 25.601562 11.460938 25.601562 25.597657 0 14.140624-11.460938 25.601562-25.601562 25.601562zm-460.796876-34.132812c-4.714843 0-8.535156 3.820312-8.535156 8.53125 0 4.714843 3.820313 8.535156 8.535156 8.535156h460.796876c4.714843 0 8.535156-3.820313 8.535156-8.535156 0-4.710938-3.820313-8.53125-8.535156-8.53125zm0 0"/><path d="m282.964844 512h-53.929688c-13.289062-.070312-24.339844-10.242188-25.507812-23.480469l-4.316406-51.835937c-1.632813-20.144532-11.183594-38.816406-26.558594-51.933594l-152.597656-130.804688c-2.710938-2.324218-3.691407-6.085937-2.453126-9.4375 1.238282-3.347656 4.429688-5.570312 8-5.574218h460.796876c3.570312.003906 6.761718 2.226562 8 5.574218 1.238281 3.351563.257812 7.113282-2.453126 9.4375l-152.605468 130.804688c-15.367188 13.117188-24.914063 31.792969-26.546875 51.933594l-4.328125 51.839844c-1.164063 13.238281-12.214844 23.410156-25.5 23.476562zm-234.296875-256 135.089843 115.792969c18.792969 16.027343 30.460938 38.855469 32.449219 63.472656l4.328125 51.84375c.390625 4.410156 4.070313 7.800781 8.5 7.824219h53.929688c4.425781-.023438 8.105468-3.414063 8.492187-7.820313l4.332031-51.847656c1.992188-24.617187 13.65625-47.441406 32.441407-63.472656l135.101562-115.792969zm0 0"/><path d="m137.785156 307.199219c-2.035156.003906-4.003906-.726563-5.546875-2.054688l-19.910156-17.066406c-3.460937-3.09375-3.8125-8.386719-.792969-11.914063 3.019532-3.523437 8.304688-3.988281 11.894532-1.042968l19.90625 17.066406c2.710937 2.324219 3.691406 6.089844 2.453124 9.441406-1.242187 3.347656-4.433593 5.570313-8.003906 5.570313zm0 0"/><path d="m196.265625 357.328125c-2.035156.003906-4.003906-.726563-5.546875-2.054687l-28.617188-24.527344c-3.460937-3.09375-3.8125-8.386719-.792968-11.914063 3.019531-3.527343 8.304687-3.988281 11.894531-1.042969l28.609375 24.527344c2.710938 2.324219 3.691406 6.089844 2.453125 9.4375s-4.429687 5.574219-8 5.574219zm0 0"/><path d="m281.601562 221.867188h-51.203124c-4.710938 0-8.53125-3.820313-8.53125-8.535157v-196.265625c.011718-9.421875 7.644531-17.0546872 17.066406-17.066406h34.132812c9.421875.0117188 17.054688 7.644531 17.066406 17.066406v196.265625c0 4.714844-3.820312 8.535157-8.53125 8.535157zm-42.667968-17.066407h34.132812v-187.734375h-34.132812zm0 0"/><path d="m196.265625 221.867188h-51.199219c-4.710937 0-8.53125-3.820313-8.53125-8.535157v-85.332031c.007813-9.421875 7.644532-17.054688 17.066406-17.066406h34.132813c9.421875.011718 17.054687 7.644531 17.066406 17.066406v85.332031c0 4.714844-3.820312 8.535157-8.535156 8.535157zm-42.664063-17.066407h34.132813v-76.800781h-34.132813zm0 0"/><path d="m110.933594 221.867188h-51.199219c-4.714844 0-8.535156-3.820313-8.535156-8.535157v-136.53125c.011719-9.421875 7.644531-17.054687 17.066406-17.066406h34.132813c9.421874.011719 17.058593 7.644531 17.066406 17.066406v136.53125c0 4.714844-3.820313 8.535157-8.53125 8.535157zm-42.667969-17.066407h34.132813v-128h-34.132813zm0 0"/><path d="m366.933594 221.867188h-51.199219c-4.714844 0-8.535156-3.820313-8.535156-8.535157v-145.066406c.011719-9.421875 7.644531-17.054687 17.066406-17.066406h34.132813c9.421874.011719 17.058593 7.644531 17.066406 17.066406v145.066406c0 4.714844-3.820313 8.535157-8.53125 8.535157zm-42.667969-17.066407h34.132813v-136.535156h-34.132813zm0 0"/><path d="m452.265625 221.867188h-51.199219c-4.710937 0-8.53125-3.820313-8.53125-8.535157v-85.332031c.007813-9.421875 7.644532-17.054688 17.066406-17.066406h34.132813c9.421875.011718 17.054687 7.644531 17.066406 17.066406v85.332031c0 4.714844-3.820312 8.535157-8.535156 8.535157zm-42.664063-17.066407h34.132813v-76.800781h-34.132813zm0 0"/><path d="m110.933594 110.933594h-51.199219c-4.714844 0-8.535156-3.820313-8.535156-8.535156 0-4.710938 3.820312-8.53125 8.535156-8.53125h51.199219c4.710937 0 8.53125 3.820312 8.53125 8.53125 0 4.714843-3.820313 8.535156-8.53125 8.535156zm0 0"/><path d="m196.265625 187.734375h-51.199219c-4.710937 0-8.53125-3.820313-8.53125-8.535156 0-4.710938 3.820313-8.53125 8.53125-8.53125h51.199219c4.714844 0 8.535156 3.820312 8.535156 8.53125 0 4.714843-3.820312 8.535156-8.535156 8.535156zm0 0"/><path d="m281.601562 93.867188h-51.203124c-4.710938 0-8.53125-3.820313-8.53125-8.535157 0-4.710937 3.820312-8.53125 8.53125-8.53125h51.203124c4.710938 0 8.53125 3.820313 8.53125 8.53125 0 4.714844-3.820312 8.535157-8.53125 8.535157zm0 0"/><path d="m366.933594 153.601562h-51.199219c-4.714844 0-8.535156-3.820312-8.535156-8.535156 0-4.710937 3.820312-8.53125 8.535156-8.53125h51.199219c4.710937 0 8.53125 3.820313 8.53125 8.53125 0 4.714844-3.820313 8.535156-8.53125 8.535156zm0 0"/><path d="m452.265625 187.734375h-51.199219c-4.710937 0-8.53125-3.820313-8.53125-8.535156 0-4.710938 3.820313-8.53125 8.53125-8.53125h51.199219c4.714844 0 8.535156 3.820312 8.535156 8.53125 0 4.714843-3.820312 8.535156-8.535156 8.535156zm0 0"/></svg>