<svg id="Layer_1" enable-background="new 0 0 256 256" height="512" viewBox="0 0 256 256" width="512" xmlns="http://www.w3.org/2000/svg"><g fill="#e0ebfc"><path d="m246.917 191.731h-204c-1.105 0-2-.896-2-2s.895-2 2-2h204c1.104 0 2 .896 2 2s-.896 2-2 2z"/><path d="m246.917 151.731h-204c-1.105 0-2-.896-2-2s.895-2 2-2h204c1.104 0 2 .896 2 2s-.896 2-2 2z"/><path d="m246.917 111.731h-204c-1.105 0-2-.896-2-2s.895-2 2-2h204c1.104 0 2 .896 2 2s-.896 2-2 2z"/><path d="m246.917 71.731h-204c-1.105 0-2-.896-2-2s.895-2 2-2h204c1.104 0 2 .896 2 2s-.896 2-2 2z"/><path d="m246.917 31.731h-204c-1.105 0-2-.896-2-2s.895-2 2-2h204c1.104 0 2 .896 2 2s-.896 2-2 2z"/></g><path d="m29.083 73.731h-16c-2.209 0-4-1.791-4-4s1.791-4 4-4h16c2.209 0 4 1.791 4 4s-1.791 4-4 4z" fill="#b9befc"/><path d="m29.083 113.731h-16c-2.209 0-4-1.791-4-4s1.791-4 4-4h16c2.209 0 4 1.791 4 4s-1.791 4-4 4z" fill="#b9befc"/><path d="m29.083 153.731h-16c-2.209 0-4-1.791-4-4s1.791-4 4-4h16c2.209 0 4 1.791 4 4s-1.791 4-4 4z" fill="#b9befc"/><path d="m29.083 193.731h-16c-2.209 0-4-1.791-4-4s1.791-4 4-4h16c2.209 0 4 1.791 4 4s-1.791 4-4 4z" fill="#b9befc"/><path d="m29.083 33.731h-16c-2.209 0-4-1.791-4-4s1.791-4 4-4h16c2.209 0 4 1.791 4 4s-1.791 4-4 4z" fill="#b9befc"/><path d="m137.583 211.481h-30v-108.75c0-3.314 2.686-6 6-6h18c3.314 0 6 2.686 6 6z" fill="#6bdddd"/><path d="m183.583 211.481h-30v-82.25c0-3.314 2.686-6 6-6h18c3.314 0 6 2.686 6 6z" fill="#a4c9ff"/><path d="m79.125 230.269h-7.083c-2.209 0-4-1.791-4-4 0-2.209 1.791-4 4-4h7.083c2.209 0 4 1.791 4 4 0 2.209-1.791 4-4 4z" fill="#b9befc"/><path d="m61.583 211.481h30v-71.917c0-3.314-2.686-6-6-6h-18c-3.314 0-6 2.686-6 6z" fill="#f9a7a7"/><path d="m91.583 213.481h-30c-1.104 0-2-.896-2-2v-71.917c0-4.411 3.589-8 8-8h18c4.411 0 8 3.589 8 8v71.917c0 1.105-.896 2-2 2zm-28-4h26v-69.917c0-2.206-1.794-4-4-4h-18c-2.206 0-4 1.794-4 4z" fill="#3762cc"/><path d="m246.917 213.481h-204c-1.105 0-2-.896-2-2s.895-2 2-2h204c1.104 0 2 .896 2 2s-.896 2-2 2z" fill="#3762cc"/><path d="m137.583 213.481h-30c-1.104 0-2-.896-2-2v-108.75c0-4.411 3.589-8 8-8h18c4.411 0 8 3.589 8 8v108.75c0 1.105-.895 2-2 2zm-28-4h26v-106.75c0-2.206-1.794-4-4-4h-18c-2.206 0-4 1.794-4 4z" fill="#3762cc"/><path d="m183.583 213.481h-30c-1.104 0-2-.896-2-2v-82.25c0-4.411 3.589-8 8-8h18c4.411 0 8 3.589 8 8v82.25c0 1.105-.895 2-2 2zm-28-4h26v-80.25c0-2.206-1.794-4-4-4h-18c-2.206 0-4 1.794-4 4z" fill="#3762cc"/><path d="m76.583 160.486c-1.933 0-3.5-1.567-3.5-3.5v-60.926c0-1.933 1.567-3.5 3.5-3.5s3.5 1.567 3.5 3.5v60.926c0 1.933-1.567 3.5-3.5 3.5z" fill="#ffea92"/><path d="m122.583 107.731c-1.104 0-2-.896-2-2v-60.925c0-1.104.896-2 2-2s2 .896 2 2v60.926c0 1.104-.895 1.999-2 1.999z" fill="#3762cc"/><path d="m122.583 109.231c-1.933 0-3.5-1.567-3.5-3.5v-60.925c0-1.933 1.567-3.5 3.5-3.5s3.5 1.567 3.5 3.5v60.925c0 1.933-1.567 3.5-3.5 3.5z" fill="#ffea92"/><path d="m168.667 150.152c-1.933 0-3.5-1.567-3.5-3.5v-60.925c0-1.933 1.567-3.5 3.5-3.5s3.5 1.567 3.5 3.5v60.925c0 1.933-1.567 3.5-3.5 3.5z" fill="#ffea92"/><path d="m126.706 228.688h-7.083c-2.209 0-4-1.791-4-4 0-2.209 1.791-4 4-4h7.083c2.209 0 4 1.791 4 4 0 2.209-1.791 4-4 4z" fill="#b9befc"/><path d="m172.415 228.978h-7.083c-2.209 0-4-1.791-4-4 0-2.209 1.791-4 4-4h7.083c2.209 0 4 1.791 4 4 0 2.209-1.79 4-4 4z" fill="#b9befc"/><path d="m227.583 211.481h-30v-82.25c0-3.314 2.686-6 6-6h18c3.314 0 6 2.686 6 6z" fill="#4671c6"/><path d="m227.583 213.481h-30c-1.104 0-2-.896-2-2v-82.25c0-4.411 3.589-8 8-8h18c4.411 0 8 3.589 8 8v82.25c0 1.105-.895 2-2 2zm-28-4h26v-80.25c0-2.206-1.794-4-4-4h-18c-2.206 0-4 1.794-4 4z" fill="#3762cc"/><path d="m216.221 230.269h-7.083c-2.209 0-4-1.791-4-4 0-2.209 1.791-4 4-4h7.083c2.209 0 4 1.791 4 4 0 2.209-1.791 4-4 4z" fill="#b9befc"/><path d="m212.583 142.603c-1.933 0-3.5-1.567-3.5-3.5v-60.925c0-1.933 1.567-3.5 3.5-3.5s3.5 1.567 3.5 3.5v60.925c0 1.933-1.567 3.5-3.5 3.5z" fill="#ffea92"/><path d="m76.583 162.486c-3.032 0-5.5-2.467-5.5-5.5v-60.926c0-3.033 2.468-5.5 5.5-5.5s5.5 2.467 5.5 5.5v60.926c0 3.033-2.468 5.5-5.5 5.5zm0-67.926c-.827 0-1.5.673-1.5 1.5v60.926c0 .827.673 1.5 1.5 1.5s1.5-.673 1.5-1.5v-60.926c0-.827-.673-1.5-1.5-1.5z" fill="#3762cc"/><path d="m122.583 111.231c-3.032 0-5.5-2.467-5.5-5.5v-60.925c0-3.033 2.468-5.5 5.5-5.5s5.5 2.467 5.5 5.5v60.925c0 3.033-2.468 5.5-5.5 5.5zm0-67.925c-.827 0-1.5.673-1.5 1.5v60.925c0 .827.673 1.5 1.5 1.5s1.5-.673 1.5-1.5v-60.925c0-.827-.673-1.5-1.5-1.5z" fill="#3762cc"/><path d="m168.667 152.152c-3.032 0-5.5-2.467-5.5-5.5v-60.925c0-3.033 2.468-5.5 5.5-5.5s5.5 2.467 5.5 5.5v60.925c0 3.033-2.468 5.5-5.5 5.5zm0-67.925c-.827 0-1.5.673-1.5 1.5v60.925c0 .827.673 1.5 1.5 1.5s1.5-.673 1.5-1.5v-60.925c0-.827-.673-1.5-1.5-1.5z" fill="#3762cc"/><path d="m212.583 144.604c-3.032 0-5.5-2.467-5.5-5.5v-60.926c0-3.033 2.468-5.5 5.5-5.5s5.5 2.467 5.5 5.5v60.925c0 3.033-2.468 5.501-5.5 5.501zm0-67.926c-.827 0-1.5.673-1.5 1.5v60.925c0 .827.673 1.5 1.5 1.5s1.5-.673 1.5-1.5v-60.925c0-.827-.673-1.5-1.5-1.5z" fill="#3762cc"/><path d="m83.583 133.565h-14c-2.209 0-4-1.791-4-4v-6.083c0-2.209 1.791-4 4-4h14c2.209 0 4 1.791 4 4v6.083c0 2.209-1.791 4-4 4z" fill="#ffea92"/><path d="m129.583 82.31h-14c-2.209 0-4-1.791-4-4v-6.083c0-2.209 1.791-4 4-4h14c2.209 0 4 1.791 4 4v6.083c0 2.209-1.791 4-4 4z" fill="#ffea92"/><path d="m175.583 123.231h-14c-2.209 0-4-1.791-4-4v-6.083c0-2.209 1.791-4 4-4h14c2.209 0 4 1.791 4 4v6.083c0 2.21-1.791 4-4 4z" fill="#ffea92"/><path d="m219.679 115.682h-14c-2.209 0-4-1.791-4-4v-6.083c0-2.209 1.791-4 4-4h14c2.209 0 4 1.791 4 4v6.083c0 2.21-1.791 4-4 4z" fill="#ffea92"/><path d="m83.583 135.565h-14c-3.309 0-6-2.691-6-6v-6.083c0-3.309 2.691-6 6-6h14c3.309 0 6 2.691 6 6v6.083c0 3.309-2.691 6-6 6zm-14-14.084c-1.103 0-2 .897-2 2v6.083c0 1.103.897 2 2 2h14c1.103 0 2-.897 2-2v-6.083c0-1.103-.897-2-2-2z" fill="#3762cc"/><path d="m129.583 84.31h-14c-3.309 0-6-2.691-6-6v-6.083c0-3.309 2.691-6 6-6h14c3.309 0 6 2.691 6 6v6.083c0 3.309-2.691 6-6 6zm-14-14.083c-1.103 0-2 .897-2 2v6.083c0 1.103.897 2 2 2h14c1.103 0 2-.897 2-2v-6.083c0-1.103-.897-2-2-2z" fill="#3762cc"/><path d="m175.583 125.231h-14c-3.309 0-6-2.691-6-6v-6.083c0-3.309 2.691-6 6-6h14c3.309 0 6 2.691 6 6v6.083c0 3.309-2.691 6-6 6zm-14-14.083c-1.103 0-2 .897-2 2v6.083c0 1.103.897 2 2 2h14c1.103 0 2-.897 2-2v-6.083c0-1.103-.897-2-2-2z" fill="#3762cc"/><path d="m219.679 117.683h-14c-3.309 0-6-2.691-6-6v-6.083c0-3.309 2.691-6 6-6h14c3.309 0 6 2.691 6 6v6.083c0 3.308-2.692 6-6 6zm-14-14.084c-1.103 0-2 .897-2 2v6.083c0 1.103.897 2 2 2h14c1.103 0 2-.897 2-2v-6.083c0-1.103-.897-2-2-2z" fill="#3762cc"/></svg>