<?xml version="1.0" encoding="utf-8"?>
<!-- Generator: Adobe Illustrator 22.1.0, SVG Export Plug-In . SVG Version: 6.00 Build 0)  -->
<svg version="1.1" id="Layer_1" xmlns="http://www.w3.org/2000/svg" xmlns:xlink="http://www.w3.org/1999/xlink" x="0px" y="0px"
	 viewBox="0 0 52 52" style="enable-background:new 0 0 52 52;" xml:space="preserve">
<style type="text/css">
	.Red{fill:#F93E2B;}
</style>
<g>
	<g>
		<path id="Red3" class="Red" d="M27,27.4v22.9C46.1,48.4,47,33,47,32.8v-5.4H27z"/>
	</g>
	<g>
		<path id="Black" d="M25,25.4V4.6c-1,0.4-3.2,1.2-6.5,1.2c-3.9,0-8-1.1-12-3.3L5,1.7v23.7H25z"/>
	</g>
	<g>
		<path id="Red2" class="Red" d="M27,25.4h20V1.7l-1.5,0.8c-4.1,2.2-8.1,3.3-12,3.3C30.3,5.7,28,5,27,4.6V25.4z"/>
	</g>
	<g id="Red">
		<path id="REd1" class="Red" d="M25,27.4H5v5.5C5,33,5.9,48.4,25,50.3V27.4z"/>
	</g>
</g>
</svg>
