<svg id="Layer_1" enable-background="new 0 0 256 256" height="512" viewBox="0 0 256 256" width="512" xmlns="http://www.w3.org/2000/svg"><path d="m138.075 153.075c-2.017 0-4.004.13-5.954.376-1.008.127-1.77.974-1.77 1.99v12.989c0 1.253 1.135 2.18 2.368 1.958 3.557-.638 7.323-.664 11.204.087 13.05 2.527 23.142 13.408 24.59 26.621 2.142 19.538-14.227 35.953-33.75 33.892-13.125-1.385-24.005-11.299-26.674-24.224-.789-3.823-.82-7.54-.254-11.061.197-1.222-.727-2.331-1.965-2.331h-12.964c-1.029 0-1.878.781-1.993 1.804-.368 3.27-.406 6.64-.07 10.078 2.244 22.962 21.097 41.178 44.122 42.646 27.621 1.761 50.573-20.121 50.573-47.363-.001-26.212-21.25-47.462-47.463-47.462z" fill="#f9a7a7"/><path d="m130.591 80.246c-4.779-1.32-9.861-1.912-15.118-1.647-24.14 1.215-43.738 20.817-44.949 44.957-.954 19.022 9.3 35.737 24.734 44.141l-6.829 6.829c-1.26 1.26-.368 3.414 1.414 3.414h25.634c1.105 0 2-.895 2-2v-25.634c0-1.782-2.154-2.674-3.414-1.414l-6.084 6.084.008-.008c.005-.005.003-.012-.003-.014-12.655-4.355-21.59-16.771-20.612-31.093 1.04-15.22 13.441-27.508 28.668-28.431 4.712-.285 9.211.508 13.281 2.149 1.298.523 2.709-.468 2.709-1.868v-13.543c0-.889-.582-1.685-1.439-1.922z" fill="#6bdddd"/><path d="m148.317 71.302c-1.26-1.26-3.414-.368-3.414 1.414v25.634c0 1.105.895 2 2 2h25.634c1.782 0 2.674-2.154 1.414-3.414l-5.238-5.238c10.286-8.706 16.824-21.705 16.824-36.236 0-27.233-22.936-49.11-50.546-47.365-22.754 1.438-41.483 19.24-44.067 41.893-.65 5.694-.266 11.203.958 16.389.21.891 1.024 1.509 1.939 1.509h13.337c1.353 0 2.34-1.323 1.905-2.604-1.319-3.88-1.878-8.108-1.501-12.508 1.211-14.129 14.334-26.959 28.485-27.875 17.801-1.152 32.654 13.003 32.654 30.561 0 9.868-4.695 18.655-11.964 24.26z" fill="#4671c6"/><g fill="#a4c9ff"><path d="m155.574 204.537h-35c-2.209 0-4-1.791-4-4s1.791-4 4-4h35c2.209 0 4 1.791 4 4s-1.791 4-4 4z"/><path d="m155.574 60.25h-35c-2.209 0-4-1.791-4-4s1.791-4 4-4h35c2.209 0 4 1.791 4 4s-1.791 4-4 4z"/><path d="m135.574 132h-35c-2.209 0-4-1.791-4-4s1.791-4 4-4h35c2.209 0 4 1.791 4 4s-1.791 4-4 4z"/></g><path d="m115.478 179.94h-25.635c-1.624 0-3.074-.969-3.696-2.47-.621-1.5-.28-3.211.868-4.359l4.988-4.988c-15.455-9.488-24.395-26.366-23.477-44.667 1.255-25.015 21.832-45.596 46.846-46.854 5.352-.269 10.651.309 15.751 1.717h.001c1.711.473 2.906 2.057 2.906 3.85v13.543c0 1.335-.662 2.579-1.771 3.328-1.094.737-2.473.885-3.687.395-3.95-1.592-8.123-2.269-12.413-2.008-14.299.866-25.818 12.289-26.794 26.57-.854 12.498 6.548 24.102 18.12 28.644l5.163-5.163c1.147-1.148 2.857-1.488 4.358-.868 1.5.622 2.47 2.072 2.47 3.696v25.634c.002 2.206-1.793 4-3.998 4zm2.446-99.403c-.782 0-1.565.02-2.351.06-22.988 1.157-41.898 20.071-43.052 43.06-.885 17.642 8.194 33.844 23.693 42.284.554.301.933.847 1.023 1.471s-.12 1.254-.565 1.7l-6.829 6.83h25.634v-25.634l-6.076 6.077s0 0 0 0l-.008.007c-.637.638-1.598.753-2.353.353-13.766-4.884-22.662-18.416-21.664-33.019 1.112-16.281 14.242-29.303 30.542-30.291 4.889-.3 9.645.476 14.15 2.291l-.039-13.556.001-.002c-3.931-1.085-7.993-1.631-12.106-1.631z" fill="#3762cc"/><path d="m172.537 102.351h-25.634c-2.206 0-4-1.794-4-4v-25.634c0-1.624.97-3.074 2.47-3.696 1.499-.621 3.212-.28 4.358.867l7.14 7.14c6.27-5.455 9.83-13.219 9.83-21.565 0-7.87-3.305-15.481-9.065-20.882-5.838-5.472-13.448-8.204-21.459-7.684-13.064.846-25.504 13.019-26.621 26.051-.344 4.009.128 7.944 1.402 11.693.408 1.199.208 2.533-.534 3.569-.753 1.051-1.974 1.679-3.265 1.679h-13.337c-1.865 0-3.463-1.254-3.886-3.051-1.318-5.584-1.654-11.329-.999-17.074 2.714-23.789 22.029-42.151 45.928-43.662 13.838-.865 26.995 3.847 37.057 13.293 9.924 9.316 15.615 22.462 15.615 36.068 0 13.845-5.771 26.963-15.905 36.325l3.733 3.734c1.148 1.147 1.489 2.858.868 4.358-.621 1.501-2.072 2.471-3.696 2.471zm-25.648-29.647.015 25.647h25.634l-5.237-5.238c-.396-.396-.607-.938-.584-1.497s.279-1.083.706-1.443c10.241-8.668 16.115-21.319 16.115-34.709 0-12.689-5.098-24.463-14.353-33.152-9.248-8.682-21.344-13.021-34.067-12.217-21.962 1.388-39.712 18.262-42.206 40.123-.603 5.286-.294 10.569.917 15.703l13.33-.031c-1.441-4.236-1.979-8.718-1.588-13.282 1.296-15.118 15.194-28.719 30.349-29.7 9.106-.588 17.799 2.52 24.452 8.757 6.564 6.154 10.33 14.829 10.33 23.8 0 10.179-4.645 19.599-12.742 25.843-.799.615-1.926.541-2.636-.17l-8.42-8.42c-.01-.011-.015-.014-.015-.014z" fill="#3762cc"/><path d="m138.114 250.001c-1.088 0-2.18-.035-3.276-.104-23.889-1.523-43.658-20.631-45.986-44.448-.342-3.499-.317-7.03.073-10.496.23-2.041 1.941-3.58 3.98-3.58h12.964c1.17 0 2.276.51 3.034 1.399.764.897 1.094 2.082.906 3.25-.551 3.426-.471 6.905.238 10.338 2.487 12.043 12.737 21.353 24.926 22.64 8.703.915 17.225-2.096 23.375-8.272s9.131-14.709 8.177-23.414c-1.347-12.287-10.797-22.517-22.981-24.876-3.487-.675-7.011-.703-10.471-.082-1.182.211-2.38-.105-3.296-.871-.906-.758-1.426-1.872-1.426-3.056v-12.989c0-2.013 1.513-3.722 3.52-3.975 2.061-.26 4.147-.392 6.204-.392 27.274 0 49.463 22.189 49.463 49.462 0 13.611-5.695 26.76-15.625 36.078-9.27 8.7-21.169 13.388-33.799 13.388zm-45.209-54.628c-.364 3.216-.387 6.466-.072 9.688 2.139 21.886 20.306 39.445 42.258 40.844 12.734.811 24.83-3.524 34.084-12.207 9.261-8.69 14.361-20.467 14.361-33.161 0-25.068-20.395-45.462-45.463-45.462-1.89 0-3.809.121-5.704.36l-.02 12.995c3.962-.718 7.978-.687 11.952.083 13.89 2.689 24.662 14.354 26.198 28.367 1.087 9.913-2.311 19.634-9.319 26.671s-16.707 10.476-26.629 9.427c-13.9-1.467-25.588-12.08-28.423-25.809-.807-3.91-.898-7.875-.27-11.782z" fill="#3762cc"/></svg>