<svg height="512pt" viewBox="0 0 512 512.00001" width="512pt" xmlns="http://www.w3.org/2000/svg"><path d="m196.265625 290.132812c.015625 24.898438-9.871094 48.785157-27.476563 66.390626-17.605468 17.605468-41.488281 27.492187-66.390624 27.476562-4.285157.035156-8.5625-.28125-12.796876-.9375-46.449218-6.363281-81.066406-46.046875-81.066406-92.929688 0-46.882812 34.617188-86.566406 81.066406-92.925781 4.234376-.660156 8.511719-.972656 12.796876-.941406 24.902343-.011719 48.785156 9.871094 66.390624 27.476563 17.605469 17.609374 27.492188 41.492187 27.476563 66.390624zm0 0" fill="#bb193b"/><path d="m170.667969 290.132812c.050781 46.902344-34.59375 86.613282-81.066407 92.929688-46.449218-6.363281-81.066406-46.046875-81.066406-92.929688 0-46.882812 34.617188-86.566406 81.066406-92.925781 46.472657 6.3125 81.117188 46.023438 81.066407 92.925781zm0 0" fill="#ef314c"/><path d="m17.066406 8.535156h290.132813c4.714843 0 8.535156 3.820313 8.535156 8.53125v68.265625c0 4.714844-3.820313 8.535157-8.535156 8.535157h-290.132813c-4.710937 0-8.53125-3.820313-8.53125-8.535157v-68.265625c0-4.710937 3.820313-8.53125 8.53125-8.53125zm0 0" fill="#fec108"/><path d="m17.066406 8.535156h264.535156c4.710938 0 8.53125 3.820313 8.53125 8.53125v68.265625c0 4.714844-3.820312 8.535157-8.53125 8.535157h-264.535156c-4.710937 0-8.53125-3.820313-8.53125-8.535157v-68.265625c0-4.710937 3.820313-8.53125 8.53125-8.53125zm0 0" fill="#ffdc00"/><path d="m196.265625 290.132812h-93.867187v-93.867187c24.902343-.011719 48.785156 9.871094 66.390624 27.476563 17.605469 17.609374 27.492188 41.492187 27.476563 66.390624zm0 0" fill="#0377bc"/><path d="m170.667969 290.132812h-68.269531v-90.28125c40.410156 11.40625 68.300781 48.292969 68.269531 90.28125zm0 0" fill="#02a9f4"/><path d="m102.398438 196.265625v93.867187l-66.386719 66.390626c-26.835938-26.855469-34.859375-67.226563-20.328125-102.300782 14.527344-35.074218 48.75-57.945312 86.714844-57.957031zm0 0" fill="#ffdc00"/><path d="m503.464844 196.265625c.003906 9.054687-3.589844 17.738281-9.992188 24.140625s-15.085937 9.996094-24.140625 9.992188c-4.394531.035156-8.753906-.835938-12.796875-2.558594-12.890625-5.183594-21.335937-17.679688-21.335937-31.574219 0-13.890625 8.445312-26.390625 21.335937-31.574219 4.042969-1.71875 8.402344-2.59375 12.796875-2.558594 9.054688-.003906 17.738281 3.59375 24.140625 9.996094s9.996094 15.085938 9.992188 24.136719zm0 0" fill="#bb193b"/><path d="m477.867188 196.265625c0-17.4375-9.550782-31.574219-21.332032-31.574219-11.785156 0-21.335937 14.136719-21.335937 31.574219s9.550781 31.574219 21.335937 31.574219c11.78125 0 21.332032-14.136719 21.332032-31.574219zm0 0" fill="#ef314c"/><path d="m307.199219 102.398438h-290.132813c-9.421875-.011719-17.0546872-7.644532-17.066406-17.066407v-68.265625c.0117188-9.421875 7.644531-17.0546872 17.066406-17.066406h290.132813c9.421875.0117188 17.054687 7.644531 17.066406 17.066406v68.265625c-.011719 9.421875-7.644531 17.054688-17.066406 17.066407zm-290.132813-85.332032v68.265625h290.152344l-.019531-68.265625zm0 0"/><path d="m8.542969 75.132812c-3.9375.003907-7.363281-2.6875-8.296875-6.507812-.933594-3.824219.867187-7.789062 4.363281-9.601562 30.214844-15.789063 63.699219-24.3125 97.789063-24.890626 19.273437-.035156 38.441406 2.773438 56.894531 8.335938 20.304687 6.019531 41.394531 8.964844 62.574219 8.730469 15.292968-.472657 30.375-3.707031 44.515624-9.550781 15.566407-5.761719 31.640626-10.046876 48.007813-12.804688 3.046875-.558594 6.152344.578125 8.121094 2.964844 1.96875 2.390625 2.488281 5.65625 1.359375 8.539062-1.128906 2.882813-3.730469 4.925782-6.796875 5.34375-15.390625 2.605469-30.5 6.65625-45.132813 12.09375-15.933594 6.453125-32.890625 10.003906-50.074218 10.480469-22.671876.269531-45.25-2.871094-66.988282-9.316406-17.011718-5.167969-34.699218-7.78125-52.480468-7.75-31.355469.570312-62.152344 8.4375-89.941407 22.976562-1.207031.628907-2.550781.957031-3.914062.957031zm0 0"/><path d="m102.398438 102.398438c-4.710938 0-8.53125-3.820313-8.53125-8.53125v-51.199219c0-4.714844 3.820312-8.535157 8.53125-8.535157 4.714843 0 8.535156 3.820313 8.535156 8.535157v51.199219c0 4.710937-3.820313 8.53125-8.535156 8.53125zm0 0"/><path d="m213.332031 102.398438c-4.710937 0-8.53125-3.820313-8.53125-8.53125v-34.132813c0-4.714844 3.820313-8.535156 8.53125-8.535156 4.714844 0 8.535157 3.820312 8.535157 8.535156v34.132813c0 4.710937-3.820313 8.53125-8.535157 8.53125zm0 0"/><path d="m469.332031 238.933594c-23.5625 0-42.664062-19.101563-42.664062-42.667969 0-23.5625 19.101562-42.664063 42.664062-42.664063 23.566407 0 42.667969 19.101563 42.667969 42.664063-.027344 23.554687-19.113281 42.640625-42.667969 42.667969zm0-68.265625c-14.136719 0-25.597656 11.460937-25.597656 25.597656 0 14.140625 11.460937 25.601563 25.597656 25.601563 14.140625 0 25.601563-11.460938 25.601563-25.601563-.015625-14.132813-11.46875-25.582031-25.601563-25.597656zm0 0"/><path d="m469.332031 136.535156c-4.710937 0-8.53125-3.824218-8.53125-8.535156v-17.066406c0-4.714844 3.820313-8.535156 8.53125-8.535156 4.714844 0 8.535157 3.820312 8.535157 8.535156v17.066406c0 4.710938-3.820313 8.535156-8.535157 8.535156zm0-51.203125c-4.710937 0-8.53125-3.820312-8.53125-8.53125v-8.535156c.003907-1.433594-.355469-2.84375-1.042969-4.097656-2.167968-4.128907-.621093-9.230469 3.472657-11.460938s9.21875-.765625 11.511719 3.292969c2.046874 3.765625 3.121093 7.980469 3.125 12.265625v8.535156c0 4.710938-3.820313 8.53125-8.535157 8.53125zm-32.914062-25.597656h-17.066407c-4.714843 0-8.535156-3.820313-8.535156-8.535156 0-4.710938 3.820313-8.53125 8.535156-8.53125h17.066407c4.710937 0 8.53125 3.820312 8.53125 8.53125 0 4.714843-3.820313 8.535156-8.53125 8.535156zm-51.199219 0h-17.070312c-4.710938 0-8.53125-3.820313-8.53125-8.535156 0-4.710938 3.820312-8.53125 8.53125-8.53125h17.070312c4.710938 0 8.53125 3.820312 8.53125 8.53125 0 4.714843-3.820312 8.535156-8.53125 8.535156zm-51.203125 0h-17.066406c-4.710938 0-8.53125-3.820313-8.53125-8.535156 0-4.710938 3.820312-8.53125 8.53125-8.53125h17.066406c4.714844 0 8.535156 3.820312 8.535156 8.53125 0 4.714843-3.820312 8.535156-8.535156 8.535156zm0 0"/><path d="m469.34375 136.535156c-3.761719 0-7.082031-2.457031-8.175781-6.058594-1.09375-3.597656.300781-7.488281 3.433593-9.578124l25.597657-17.066407c3.921875-2.558593 9.171875-1.484375 11.769531 2.410157 2.597656 3.898437 1.570312 9.15625-2.300781 11.789062l-25.601563 17.070312c-1.398437.929688-3.042968 1.429688-4.722656 1.433594zm0 0"/><path d="m469.324219 136.535156c-1.679688-.003906-3.324219-.503906-4.722657-1.433594l-25.601562-17.070312c-3.871094-2.632812-4.898438-7.890625-2.300781-11.789062 2.597656-3.894532 7.847656-4.96875 11.765625-2.410157l25.601562 17.066407c3.128906 2.089843 4.523438 5.980468 3.433594 9.578124-1.09375 3.601563-4.414062 6.058594-8.175781 6.058594zm0 0"/><path d="m247.476562 324.265625c-2.859374.007813-5.527343-1.421875-7.109374-3.800781l-17.066407-25.597656c-1.910156-2.867188-1.910156-6.601563 0-9.46875l17.066407-25.597657c2.632812-3.871093 7.894531-4.898437 11.789062-2.300781 3.898438 2.597656 4.972656 7.847656 2.410156 11.765625l-13.910156 20.867187 13.910156 20.867188c1.746094 2.617188 1.910156 5.980469.425782 8.757812-1.484376 2.773438-4.371094 4.507813-7.515626 4.507813zm0 0"/><path d="m230.390625 512c-3.144531-.003906-6.03125-1.738281-7.515625-4.511719-1.484375-2.773437-1.320312-6.136719.425781-8.753906l13.90625-20.867187-13.90625-20.867188c-1.726562-2.535156-1.957031-5.804688-.605469-8.558594 1.351563-2.753906 4.074219-4.570312 7.136719-4.757812s5.988281 1.28125 7.667969 3.851562l17.066406 25.597656c1.90625 2.867188 1.90625 6.601563 0 9.46875l-17.066406 25.597657c-1.582031 2.378906-4.253906 3.804687-7.109375 3.800781zm0 0"/><path d="m392.535156 358.398438c-1.6875.003906-3.335937-.496094-4.734375-1.433594l-25.601562-17.066406c-3.871094-2.632813-4.898438-7.894532-2.300781-11.789063 2.597656-3.894531 7.847656-4.972656 11.769531-2.410156l20.867187 13.910156 20.863282-13.910156c3.921874-2.5625 9.171874-1.484375 11.769531 2.410156 2.597656 3.894531 1.570312 9.15625-2.300781 11.789063l-25.601563 17.066406c-1.398437.9375-3.046875 1.4375-4.730469 1.433594zm0 0"/><path d="m102.398438 170.667969c-1.683594 0-3.332032-.5-4.730469-1.433594l-25.601563-17.066406c-3.871094-2.632813-4.898437-7.894531-2.300781-11.792969 2.597656-3.894531 7.847656-4.96875 11.769531-2.40625l20.863282 13.90625 20.867187-13.910156c3.921875-2.558594 9.171875-1.484375 11.769531 2.410156s1.570313 9.15625-2.300781 11.789062l-25.601563 17.066407c-1.398437.9375-3.046874 1.4375-4.734374 1.4375zm0 0"/><path d="m102.398438 392.535156c-56.550782 0-102.398438-45.847656-102.398438-102.402344 0-56.554687 45.847656-102.398437 102.398438-102.398437 56.554687 0 102.402343 45.84375 102.402343 102.398437-.0625 56.527344-45.871093 102.339844-102.402343 102.402344zm0-187.734375c-47.125 0-85.332032 38.203125-85.332032 85.332031 0 47.128907 38.207032 85.332032 85.332032 85.332032 47.128906 0 85.335937-38.203125 85.335937-85.332032-.054687-47.105468-38.230469-85.277343-85.335937-85.332031zm0 0"/><path d="m238.933594 298.667969c-4.714844 0-8.535156-3.820313-8.535156-8.535157 0-4.710937 3.820312-8.53125 8.535156-8.53125 31.523437 0 57.183594-14.203124 78.433594-43.417968 23.089843-31.648438 59.890624-50.390625 99.066406-50.449219h18.765625c4.714843 0 8.535156 3.820313 8.535156 8.53125 0 4.714844-3.820313 8.535156-8.535156 8.535156h-18.765625c-33.71875.050781-65.390625 16.179688-85.265625 43.414063-24.34375 33.476562-55.375 50.453125-92.234375 50.453125zm0 0"/><path d="m36.035156 365.03125c-3.453125 0-6.5625-2.078125-7.882812-5.265625-1.320313-3.1875-.59375-6.859375 1.847656-9.300781l66.367188-66.363282c1.597656-1.601562 3.769531-2.5 6.03125-2.5h93.867187c4.714844 0 8.535156 3.820313 8.535156 8.53125 0 4.714844-3.820312 8.535157-8.535156 8.535157h-90.332031l-63.863282 63.867187c-1.601562 1.601563-3.773437 2.5-6.035156 2.496094zm0 0"/><path d="m102.398438 298.667969c-4.710938 0-8.53125-3.820313-8.53125-8.535157v-93.867187c0-4.710937 3.820312-8.53125 8.53125-8.53125 4.714843 0 8.535156 3.820313 8.535156 8.53125v93.867187c0 4.714844-3.820313 8.535157-8.535156 8.535157zm0 0"/><path d="m503.464844 512h-221.863282c-4.714843 0-8.535156-3.820312-8.535156-8.535156v-119.464844c0-4.710938 3.820313-8.535156 8.535156-8.535156 4.710938 0 8.53125 3.824218 8.53125 8.535156v110.933594h213.332032c4.714844 0 8.535156 3.820312 8.535156 8.53125 0 4.714844-3.820312 8.535156-8.535156 8.535156zm0 0"/><path d="m503.464844 512c-24.347656 0-36.265625-26.382812-48.882813-54.324219-14.472656-32.027343-29.433593-65.140625-62.046875-65.140625-32.617187 0-47.578125 33.113282-62.050781 65.140625-12.617187 27.941407-24.535156 54.324219-48.882813 54.324219-4.714843 0-8.535156-3.820312-8.535156-8.535156 0-4.710938 3.820313-8.53125 8.535156-8.53125 13.332032 0 23.046876-21.503906 33.332032-44.289063 15.136718-33.488281 33.964844-75.179687 77.601562-75.179687 43.632813 0 62.460938 41.691406 77.597656 75.179687 10.285157 22.785157 20 44.289063 33.332032 44.289063 4.714844 0 8.535156 3.820312 8.535156 8.53125 0 4.714844-3.820312 8.535156-8.535156 8.535156zm0 0"/><path d="m392.535156 409.601562c-4.714844 0-8.535156-3.820312-8.535156-8.535156v-17.066406c0-4.710938 3.820312-8.535156 8.535156-8.535156 4.710938 0 8.53125 3.824218 8.53125 8.535156v17.066406c0 4.714844-3.820312 8.535156-8.53125 8.535156zm0 0"/><path d="m392.535156 512c-4.714844 0-8.535156-3.820312-8.535156-8.535156v-17.066406c0-4.710938 3.820312-8.53125 8.535156-8.53125 4.710938 0 8.53125 3.820312 8.53125 8.53125v17.066406c0 4.714844-3.820312 8.535156-8.53125 8.535156zm0 0"/><path d="m392.535156 460.800781c-4.714844 0-8.535156-3.820312-8.535156-8.535156v-17.066406c0-4.710938 3.820312-8.53125 8.535156-8.53125 4.710938 0 8.53125 3.820312 8.53125 8.53125v17.066406c0 4.714844-3.820312 8.535156-8.53125 8.535156zm0 0"/><path d="m247.464844 486.398438h-128c-14.128906-.015626-25.582032-11.464844-25.597656-25.597657v-76.800781c0-4.710938 3.820312-8.535156 8.53125-8.535156 4.714843 0 8.535156 3.824218 8.535156 8.535156v76.800781c.003906 4.710938 3.820312 8.53125 8.53125 8.53125h128c4.714844 0 8.535156 3.820313 8.535156 8.535157 0 4.710937-3.820312 8.53125-8.535156 8.53125zm0 0"/><path d="m396.226562 328.691406c-2.664062.003906-5.175781-1.234375-6.792968-3.351562-1.617188-2.113282-2.152344-4.863282-1.449219-7.429688 1.632813-6.019531 3.855469-11.867187 6.632813-17.453125 1.3125-2.808593 4.046874-4.683593 7.136718-4.898437 3.09375-.210938 6.058594 1.265625 7.75 3.867187 1.6875 2.597657 1.832032 5.910157.378906 8.648438-2.273437 4.589843-4.09375 9.390625-5.433593 14.335937-1.011719 3.707032-4.382813 6.28125-8.222657 6.28125zm26.824219-42.648437c-3.53125-.003907-6.695312-2.175781-7.964843-5.472657-1.265626-3.292968-.375-7.03125 2.246093-9.394531 4.472657-3.988281 9.152344-7.738281 14.019531-11.234375 3.808594-2.773437 9.148438-1.9375 11.921876 1.875 2.777343 3.8125 1.9375 9.148438-1.875 11.925782-4.382813 3.140624-8.597657 6.511718-12.628907 10.097656-1.566406 1.421875-3.605469 2.207031-5.71875 2.203125zm40.089844-31.734375c-3.332031 0-6.355469-1.9375-7.75-4.964844-1.394531-3.023438-.898437-6.582031 1.265625-9.113281 2.574219-2.636719 4.054688-6.148438 4.144531-9.832031 0-4.710938 3.820313-8.53125 8.53125-8.53125 4.714844 0 8.535157 3.820312 8.535157 8.53125-.0625 7.757812-2.996094 15.214843-8.242188 20.925781-1.621094 1.894531-3.992188 2.984375-6.484375 2.984375zm0 0"/><path d="m102.398438 170.667969c-4.710938 0-8.53125-3.820313-8.53125-8.535157v-68.265624c0-4.714844 3.820312-8.535157 8.53125-8.535157 4.714843 0 8.535156 3.820313 8.535156 8.535157v68.265624c0 4.714844-3.820313 8.535157-8.535156 8.535157zm0 0"/></svg>