<svg height="512pt" viewBox="0 0 512.00095 512" width="512pt" xmlns="http://www.w3.org/2000/svg"><path d="m377.257812 495.191406c.871094 1.789063.757813 3.898438-.300781 5.582032-1.058593 1.6875-2.914062 2.703124-4.902343 2.695312h-150.101563c-4.175781.011719-8.046875-2.199219-10.15625-5.804688-2.714844-4.738281-4.945313-9.742187-6.65625-14.933593-1.558594-4.789063-6.054687-8.003907-11.089844-7.933594h-30.890625c-7.039062.558594-13.972656-1.972656-18.988281-6.941406-5.015625-4.964844-7.617187-11.875-7.125-18.917969.023437-3.515625.511719-7.019531 1.449219-10.410156.808594-2.691406.566406-5.585938-.683594-8.105469l-2.386719-4.695313c-.769531-1.617187-.769531-3.496093 0-5.117187l4.523438-8.960937-8.363281-4.179688c-1.980469-.9375-3.242188-2.929688-3.242188-5.121094v-8.023437c-.03125-3.144531-2.574219-5.6875-5.71875-5.714844l-2.902344-.085937c-3.550781-.859376-6.480468-3.355469-7.894531-6.722657-1.414063-3.367187-1.144531-7.207031.726563-10.34375l25.089843-41.984375c1.386719-2.289062.996094-5.234375-.941406-7.082031l-5.460937-5.460937c-1.730469-1.65625-2.210938-4.234376-1.191407-6.402344 5.527344-11.488282 8.882813-23.898438 9.898438-36.605469 0-37.890625 51.796875-96.34375 116.308593-102.65625 3.769532-.414063 7.558594-.613281 11.347657-.597656 81.238281 0 133.460937 51.625 133.460937 120.488281 0 74.582031-46.421875 74.582031-46.421875 137.730469 0 24.917969 15.875 52.820312 22.613281 66.304687zm0 0" fill="#dfc49c"/><path d="m351.660156 495.191406c.871094 1.789063.753906 3.898438-.304687 5.582032-1.058594 1.6875-2.910157 2.703124-4.902344 2.695312h-124.5c-4.175781.011719-8.046875-2.199219-10.15625-5.804688-2.714844-4.738281-4.945313-9.742187-6.65625-14.933593-1.558594-4.789063-6.054687-8.003907-11.089844-7.933594h-30.890625c-7.039062.558594-13.972656-1.972656-18.988281-6.941406-5.015625-4.964844-7.617187-11.875-7.125-18.917969.023437-3.515625.511719-7.019531 1.449219-10.410156.808594-2.691406.566406-5.585938-.683594-8.105469l-2.386719-4.695313c-.769531-1.617187-.769531-3.496093 0-5.117187l4.523438-8.960937-8.363281-4.179688c-1.980469-.9375-3.242188-2.929688-3.242188-5.121094v-8.023437c-.03125-3.144531-2.574219-5.6875-5.71875-5.714844l-2.902344-.085937c-3.550781-.859376-6.480468-3.355469-7.894531-6.722657-1.414063-3.367187-1.144531-7.207031.726563-10.34375l25.089843-41.984375c1.386719-2.289062.996094-5.234375-.941406-7.082031l-5.460937-5.460937c-1.730469-1.65625-2.210938-4.234376-1.191407-6.402344 5.527344-11.488282 8.882813-23.898438 9.898438-36.605469 0-37.890625 51.796875-96.34375 116.308593-102.65625 73.042969 5.628906 119.210938 55.125 119.210938 119.890625 0 74.582031-46.421875 74.582031-46.421875 137.730469 0 24.917969 15.871094 52.820312 22.613281 66.304687zm0 0" fill="#ffe0b2"/><path d="m273.066406 204.800781v76.800781h-76.796875c0-42.414062 34.382813-76.796874 76.796875-76.800781zm0 0" fill="#60a917"/><path d="m327.339844 335.871094c-21.964844 21.929687-54.972656 28.484375-83.648438 16.609375-28.679687-11.875-47.390625-39.839844-47.421875-70.878907h76.796875zm0 0" fill="#0377bc"/><path d="m309.761719 325.71875c-14.367188 14.441406-33.902344 22.550781-54.273438 22.527344-10.015625.023437-19.9375-1.949219-29.183593-5.804688-18.957032-14.480468-30.070313-36.984375-30.039063-60.839844h69.378906zm0 0" fill="#02a9f4"/><path d="m349.867188 281.601562c.023437 20.371094-8.085938 39.90625-22.527344 54.269532l-54.273438-54.269532v-76.800781c42.414063.003907 76.796875 34.386719 76.800782 76.800781zm0 0" fill="#bb193b"/><path d="m324.269531 281.601562c.027344 14.097657-3.871093 27.929688-11.265625 39.933594l-39.9375-39.933594v-72.363281c30.703125 10.800781 51.230469 39.816407 51.203125 72.363281zm0 0" fill="#ef314c"/><path d="m503.46875 418.132812c.011719 15.847657-6.277344 31.046876-17.484375 42.25-11.203125 11.207032-26.402344 17.496094-42.25 17.484376-4.300781-.015626-8.589844-.472657-12.800781-1.367188-27.40625-6.019531-46.933594-30.304688-46.933594-58.367188s19.527344-52.34375 46.933594-58.367187c4.210937-.894531 8.5-1.351563 12.800781-1.363281 15.847656-.011719 31.046875 6.277344 42.25 17.480468 11.207031 11.203126 17.496094 26.40625 17.484375 42.25zm0 0" fill="#fdd834"/><path d="m477.867188 418.132812c0-32.234374-21.011719-58.367187-46.933594-58.367187-25.917969 0-46.933594 26.132813-46.933594 58.367187 0 32.238282 21.015625 58.367188 46.933594 58.367188 25.921875 0 46.933594-26.128906 46.933594-58.367188zm0 0" fill="#ffeb3a"/><path d="m375.46875 8.535156h119.464844c4.714844 0 8.535156 3.820313 8.535156 8.53125v119.46875c0 4.710938-3.820312 8.53125-8.535156 8.53125h-119.464844c-4.714844 0-8.535156-3.820312-8.535156-8.53125v-119.46875c0-4.710937 3.820312-8.53125 8.535156-8.53125zm0 0" fill="#bb193b"/><path d="m375.46875 8.535156h93.867188c4.710937 0 8.53125 3.820313 8.53125 8.53125v119.46875c0 4.710938-3.820313 8.53125-8.53125 8.53125h-93.867188c-4.714844 0-8.535156-3.820312-8.535156-8.53125v-119.46875c0-4.710937 3.820312-8.53125 8.535156-8.53125zm0 0" fill="#ef314c"/><path d="m372.054688 512h-150.113282c-7.25.011719-13.949218-3.875-17.539062-10.175781l-.011719-.015625c-3.054687-5.257813-5.539063-10.828125-7.40625-16.617188-.496094-1.191406-1.683594-1.945312-2.976563-1.882812h-30.847656c-9.304687.578125-18.410156-2.84375-25.027344-9.40625-6.617187-6.5625-10.117187-15.636719-9.621093-24.945313-.003907-4.320312.597656-8.621093 1.792969-12.773437.203124-.632813.171874-1.316406-.089844-1.925782l-2.382813-4.707031c-2.027343-4.039062-2.027343-8.796875 0-12.832031l.613281-1.226562-.671874-.332032c-4.882813-2.390625-7.972657-7.351562-7.960938-12.785156l-.242188-5.308594c-.632812-.015625-1.261718-.097656-1.875-.25-6.1875-1.496094-11.292968-5.855468-13.742187-11.730468-2.449219-5.878907-1.949219-12.570313 1.339844-18.019532l23.882812-40.125-3.957031-3.914062c-4.261719-4.167969-5.457031-10.554688-2.988281-15.976563 5.042969-10.386719 8.15625-21.601562 9.183593-33.101562 0-44.15625 61.019532-111.816407 136.191407-111.816407 83.605469 0 141.996093 53.058594 141.996093 129.035157.769532 28.910156-8.460937 57.199219-26.132812 80.089843-13.257812 16.261719-20.433594 36.636719-20.292969 57.617188 0 20.054688 11.964844 43.410156 19.109375 57.367188l2.632813 5.183593c2.203125 4.398438 1.957031 9.628907-.652344 13.800781-2.613281 4.230469-7.238281 6.796876-12.210937 6.773438zm-152.804688-18.574219c.5625.949219 1.589844 1.523438 2.691406 1.507813h145.617188l-.457032-.90625c-7.851562-15.335938-20.992187-40.984375-20.992187-65.152344-.160156-24.390625 8.035156-48.097656 23.222656-67.183594 15.796875-20.042968 24.015625-45.015625 23.203125-70.523437 0-65.925781-51.371094-111.96875-124.929687-111.96875-64.605469 0-119.125 58.199219-119.125 94.75-.859375 13.277343-4.210938 26.273437-9.882813 38.308593l4.140625 4.097657c4.703125 4.617187 5.601563 11.863281 2.175781 17.492187l-24.992187 42.007813c-.503906.785156-.59375 1.765625-.242187 2.625.285156.679687.808593 1.226562 1.46875 1.542969l1.675781.035156c7.765625.179687 13.988281 6.496094 14.050781 14.265625v6.300781l6.859375 3.382812c2.039063 1.011719 3.589844 2.796876 4.308594 4.953126.71875 2.160156.546875 4.515624-.476563 6.546874l-3.855468 7.625 1.730468 3.425782c2.222656 4.453125 2.671875 9.585937 1.257813 14.359375-.746094 2.613281-1.125 5.320312-1.121094 8.039062-.496094 4.773438 1.210937 9.511719 4.632813 12.875 3.417968 3.359375 8.183593 4.984375 12.949218 4.410157h30.847656c8.796876-.046876 16.605469 5.613281 19.300782 13.984374 1.519531 4.59375 3.507812 9.015626 5.941406 13.199219zm-88.964844-168.359375-.019531.035156zm0 0"/><path d="m273.066406 366.933594c-47.128906 0-85.332031-38.203125-85.332031-85.332032 0-47.128906 38.203125-85.335937 85.332031-85.335937s85.335938 38.207031 85.335938 85.335937c-.054688 47.105469-38.230469 85.277344-85.335938 85.332032zm0-153.601563c-37.703125 0-68.265625 30.566407-68.265625 68.269531 0 37.703126 30.5625 68.265626 68.265625 68.265626s68.269532-30.5625 68.269532-68.265626c-.042969-37.6875-30.582032-68.222656-68.269532-68.269531zm0 0"/><path d="m327.367188 344.433594c-2.261719.003906-4.433594-.898438-6.035157-2.5l-54.296875-54.300782c-1.601562-1.597656-2.5-3.769531-2.5-6.03125v-76.800781c0-4.714843 3.820313-8.535156 8.53125-8.535156 4.714844 0 8.535156 3.820313 8.535156 8.535156v73.265625l51.796876 51.796875c2.441406 2.441407 3.171874 6.113281 1.851562 9.300781-1.324219 3.1875-4.433594 5.265626-7.886719 5.265626zm0 0"/><path d="m273.066406 290.132812h-76.796875c-4.714843 0-8.535156-3.820312-8.535156-8.53125 0-4.714843 3.820313-8.535156 8.535156-8.535156h76.796875c4.714844 0 8.535156 3.820313 8.535156 8.535156 0 4.710938-3.820312 8.53125-8.535156 8.53125zm0 0"/><path d="m494.933594 153.601562h-119.464844c-9.421875-.015624-17.054688-7.648437-17.066406-17.066406v-119.46875c.011718-9.417968 7.644531-17.0546872 17.066406-17.066406h119.464844c9.421875.0117188 17.054687 7.648438 17.066406 17.066406v119.46875c-.011719 9.417969-7.644531 17.050782-17.066406 17.066406zm-119.464844-136.535156v119.46875h119.484375l-.019531-119.46875zm0 0"/><path d="m435.199219 51.199219h-42.664063c-4.714844 0-8.535156-3.820313-8.535156-8.53125 0-4.714844 3.820312-8.535157 8.535156-8.535157h42.664063c4.714843 0 8.535156 3.820313 8.535156 8.535157 0 4.710937-3.820313 8.53125-8.535156 8.53125zm0 0"/><path d="m477.867188 85.332031h-85.332032c-4.714844 0-8.535156-3.820312-8.535156-8.53125 0-4.714843 3.820312-8.535156 8.535156-8.535156h85.332032c4.714843 0 8.535156 3.820313 8.535156 8.535156 0 4.710938-3.820313 8.53125-8.535156 8.53125zm0 0"/><path d="m452.269531 119.46875h-59.734375c-4.714844 0-8.535156-3.820312-8.535156-8.535156 0-4.710938 3.820312-8.53125 8.535156-8.53125h59.734375c4.710938 0 8.53125 3.820312 8.53125 8.53125 0 4.714844-3.820312 8.535156-8.53125 8.535156zm0 0"/><path d="m315.734375 281.601562c-4.050781-.003906-7.539063-2.851562-8.351563-6.820312-.8125-3.964844 1.273438-7.957031 4.992188-9.554688l109.125-46.761718c3.136719-1.347656 5.167969-4.433594 5.167969-7.847656v-65.550782c0-4.710937 3.820312-8.53125 8.53125-8.53125 4.714843 0 8.535156 3.820313 8.535156 8.53125v65.550782c.003906 10.238281-6.097656 19.492187-15.507813 23.523437l-109.132812 46.765625c-1.058594.460938-2.203125.695312-3.359375.695312zm0 0"/><path d="m187.734375 153.601562h-179.199219c-4.714844 0-8.535156-3.820312-8.535156-8.535156v-136.53125c0-4.714844 3.820312-8.535156 8.535156-8.535156 4.710938 0 8.53125 3.820312 8.53125 8.535156v128h170.667969c4.710937 0 8.535156 3.820313 8.535156 8.53125 0 4.714844-3.824219 8.535156-8.535156 8.535156zm0 0"/><path d="m8.535156 153.601562c-2.832031 0-5.480468-1.40625-7.066406-3.75-1.589844-2.34375-1.910156-5.320312-.859375-7.949218 17.890625-44.734375 54.5-73.636719 93.257813-73.636719 15.199218.679687 29.761718 6.28125 41.5 15.957031 14.863281 11.871094 33.347656 18.285156 52.367187 18.179688 4.710937 0 8.535156 3.820312 8.535156 8.53125 0 4.714844-3.824219 8.535156-8.535156 8.535156-22.433594.109375-44.25-7.328125-61.941406-21.117188-8.945313-7.691406-20.152344-12.261718-31.925781-13.019531-31.742188 0-62.121094 24.695313-77.40625 62.902344-1.296876 3.242187-4.4375 5.367187-7.925782 5.367187zm0 0"/><path d="m8.542969 68.265625c-3.871094.003906-7.257813-2.597656-8.253907-6.335937-.996093-3.742188.652344-7.683594 4.011719-9.605469l59.734375-34.132813c2.320313-1.335937 5.136719-1.496094 7.59375-.433594l55.324219 23.710938 55.824219-39.875c3.832031-2.609375 9.042968-1.6757812 11.738281 2.09375 2.695313 3.773438 1.886719 9.007812-1.824219 11.789062l-59.730468 42.664063c-2.425782 1.734375-5.578126 2.074219-8.320313.902344l-55.832031-23.925781-56.039063 32.023437c-1.289062.742187-2.746093 1.128906-4.226562 1.125zm0 0"/><path d="m230.402344 256c-1.117188 0-2.21875-.21875-3.25-.640625l-139.785156-57.554687c-6.40625-2.625-10.585938-8.867188-10.566407-15.789063v-36.949219c0-4.710937 3.820313-8.53125 8.535157-8.53125 4.710937 0 8.53125 3.820313 8.53125 8.53125v36.949219l139.785156 57.558594c3.769531 1.550781 5.917968 5.550781 5.125 9.550781-.789063 3.996094-4.300782 6.878906-8.375 6.875zm0 0"/><path d="m384 426.667969h-102.398438c-14.132812-.015625-25.585937-11.46875-25.601562-25.601563v-68.265625c0-4.714843 3.820312-8.535156 8.535156-8.535156 4.710938 0 8.53125 3.820313 8.53125 8.535156v68.265625c.003906 4.710938 3.824219 8.53125 8.535156 8.535156h102.398438c4.714844 0 8.535156 3.820313 8.535156 8.53125 0 4.714844-3.820312 8.535157-8.535156 8.535157zm0 0"/><path d="m443.734375 486.402344c-37.703125 0-68.265625-30.566406-68.265625-68.269532 0-37.703124 30.5625-68.265624 68.265625-68.265624s68.265625 30.5625 68.265625 68.265624c-.042969 37.6875-30.582031 68.222657-68.265625 68.269532zm0-119.46875c-28.277344 0-51.199219 22.921875-51.199219 51.199218 0 28.277344 22.921875 51.199219 51.199219 51.199219s51.199219-22.921875 51.199219-51.199219c-.03125-28.261718-22.933594-51.167968-51.199219-51.199218zm0 0"/><path d="m443.734375 418.132812c-4.714844 0-8.535156-3.820312-8.535156-8.53125v-17.066406c0-4.714844 3.820312-8.535156 8.535156-8.535156 4.710937 0 8.535156 3.820312 8.535156 8.535156v17.066406c0 4.710938-3.824219 8.53125-8.535156 8.53125zm0 0"/><path d="m452.269531 443.734375c0 4.710937-3.824219 8.53125-8.535156 8.53125-4.714844 0-8.535156-3.820313-8.535156-8.53125 0-4.714844 3.820312-8.535156 8.535156-8.535156 4.710937 0 8.535156 3.820312 8.535156 8.535156zm0 0"/><path d="m136.535156 512h-128c-4.714844 0-8.535156-3.820312-8.535156-8.53125 0-4.714844 3.820312-8.535156 8.535156-8.535156h128c4.710938 0 8.53125 3.820312 8.53125 8.535156 0 4.710938-3.820312 8.53125-8.53125 8.53125zm0 0"/><path d="m93.867188 477.867188h-85.332032c-4.714844 0-8.535156-3.820313-8.535156-8.535157 0-4.710937 3.820312-8.53125 8.535156-8.53125h85.332032c4.714843 0 8.535156 3.820313 8.535156 8.53125 0 4.714844-3.820313 8.535157-8.535156 8.535157zm0 0"/><path d="m51.199219 443.734375h-42.664063c-4.714844 0-8.535156-3.820313-8.535156-8.535156 0-4.710938 3.820312-8.53125 8.535156-8.53125h42.664063c4.714843 0 8.535156 3.820312 8.535156 8.53125 0 4.714843-3.820313 8.535156-8.535156 8.535156zm0 0"/><path d="m85.335938 409.601562h-76.800782c-4.714844 0-8.535156-3.820312-8.535156-8.535156 0-4.710937 3.820312-8.53125 8.535156-8.53125h76.800782c4.710937 0 8.53125 3.820313 8.53125 8.53125 0 4.714844-3.820313 8.535156-8.53125 8.535156zm0 0"/><path d="m59.734375 375.46875h-51.199219c-4.714844 0-8.535156-3.820312-8.535156-8.535156 0-4.710938 3.820312-8.53125 8.535156-8.53125h51.199219c4.710937 0 8.535156 3.820312 8.535156 8.53125 0 4.714844-3.824219 8.535156-8.535156 8.535156zm0 0"/><path d="m93.867188 341.332031h-85.332032c-4.714844 0-8.535156-3.820312-8.535156-8.53125 0-4.714843 3.820312-8.535156 8.535156-8.535156h85.332032c4.714843 0 8.535156 3.820313 8.535156 8.535156 0 4.710938-3.820313 8.53125-8.535156 8.53125zm0 0"/><path d="m68.269531 307.199219h-59.734375c-4.714844 0-8.535156-3.820313-8.535156-8.53125 0-4.714844 3.820312-8.535157 8.535156-8.535157h59.734375c4.710938 0 8.53125 3.820313 8.53125 8.535157 0 4.710937-3.820312 8.53125-8.53125 8.53125zm0 0"/><path d="m110.933594 273.066406h-102.398438c-4.714844 0-8.535156-3.820312-8.535156-8.53125 0-4.714844 3.820312-8.535156 8.535156-8.535156h102.398438c4.714844 0 8.535156 3.820312 8.535156 8.535156 0 4.710938-3.820312 8.53125-8.535156 8.53125zm0 0"/></svg>