<svg id="Layer_1" enable-background="new 0 0 256 256" height="512" viewBox="0 0 256 256" width="512" xmlns="http://www.w3.org/2000/svg"><path d="m211.063 139.921-1.394 1.022c-.668.49-1.607.345-2.097-.323l-9.081-12.388-6.756-9.216-.642-.876-9.081-12.388c-.49-.668-.345-1.607.323-2.097l1.394-1.022c.991-.726.736-2.271-.436-2.64l-18.338-5.783c-.967-.305-1.951.417-1.951 1.43l-.004 19.229c0 1.229 1.396 1.936 2.387 1.21l1.394-1.022c.668-.49 1.607-.345 2.097.323l9.081 12.388.642.876 6.756 9.216 9.081 12.388c.49.668.345 1.607-.323 2.097l-1.394 1.021c-.991.726-.736 2.271.436 2.64l18.338 5.783c.967.305 1.951-.417 1.951-1.43l.003-19.228c.001-1.229-1.395-1.936-2.386-1.21z" fill="#f9cfcf"/><path d="m44.937 139.921 1.394 1.022c.668.49 1.607.345 2.097-.323l9.081-12.388 6.756-9.216.642-.876 9.081-12.388c.49-.668.345-1.607-.323-2.097l-1.394-1.022c-.991-.726-.736-2.271.436-2.64l18.338-5.783c.967-.305 1.951.417 1.951 1.43l.004 19.229c0 1.229-1.396 1.936-2.387 1.21l-1.394-1.022c-.668-.49-1.607-.345-2.097.323l-9.081 12.388-.642.876-6.756 9.216-9.081 12.388c-.49.668-.345 1.607.323 2.097l1.394 1.021c.991.726.736 2.271-.436 2.64l-18.338 5.783c-.967.305-1.951-.417-1.951-1.43l-.003-19.228c-.001-1.229 1.395-1.936 2.386-1.21z" fill="#f9cfcf"/><path d="m157 78.348h-58c-3.314 0-6-2.686-6-6v-30.122c0-3.314 2.686-6 6-6h58c3.314 0 6 2.686 6 6v30.122c0 3.314-2.686 6-6 6z" fill="#4671c6"/><path d="m150.901 60.287h-45.133c-1.657 0-3-1.343-3-3s1.343-3 3-3h45.133c1.657 0 3 1.343 3 3s-1.343 3-3 3z" fill="#ffea92"/><path d="m157 80.349h-58c-4.411 0-8-3.589-8-8v-30.123c0-4.411 3.589-8 8-8h58c4.411 0 8 3.589 8 8v30.123c0 4.411-3.589 8-8 8zm-58-42.123c-2.206 0-4 1.794-4 4v30.123c0 2.206 1.794 4 4 4h58c2.206 0 4-1.794 4-4v-30.123c0-2.206-1.794-4-4-4z" fill="#3762cc"/><path d="m71.994 219.774h-58c-3.314 0-6-2.686-6-6v-30.122c0-3.314 2.686-6 6-6h58c3.314 0 6 2.686 6 6v30.122c0 3.314-2.686 6-6 6z" fill="#6bdddd"/><path d="m65.896 201.713h-45.134c-1.657 0-3-1.343-3-3s1.343-3 3-3h45.133c1.657 0 3 1.343 3 3s-1.343 3-2.999 3z" fill="#ffea92"/><path d="m71.994 221.774h-58c-4.411 0-8-3.589-8-8v-30.123c0-4.411 3.589-8 8-8h58c4.411 0 8 3.589 8 8v30.123c0 4.412-3.589 8-8 8zm-58-42.123c-2.206 0-4 1.794-4 4v30.123c0 2.206 1.794 4 4 4h58c2.206 0 4-1.794 4-4v-30.123c0-2.206-1.794-4-4-4z" fill="#3762cc"/><path d="m242.006 219.614h-58c-3.314 0-6-2.686-6-6v-30.122c0-3.314 2.686-6 6-6h58c3.314 0 6 2.686 6 6v30.122c0 3.313-2.686 6-6 6z" fill="#a4c9ff"/><path d="m235.908 201.553h-45.133c-1.657 0-3-1.343-3-3s1.343-3 3-3h45.133c1.657 0 3 1.343 3 3s-1.344 3-3 3z" fill="#ffea92"/><path d="m242.006 221.613h-58c-4.411 0-8-3.589-8-8v-30.122c0-4.411 3.589-8 8-8h58c4.411 0 8 3.589 8 8v30.122c0 4.411-3.589 8-8 8zm-58-42.122c-2.206 0-4 1.794-4 4v30.122c0 2.206 1.794 4 4 4h58c2.206 0 4-1.794 4-4v-30.122c0-2.206-1.794-4-4-4z" fill="#3762cc"/><path d="m149.62 206.686c.828 0 1.5.671 1.501 1.499l.001 1.728c.001 1.229 1.397 1.936 2.388 1.209l15.501-11.378c.817-.6.817-1.82-.001-2.419l-15.511-11.365c-.991-.726-2.387-.018-2.387 1.211l.001 1.729c0 .828-.671 1.5-1.499 1.501l-43.233.018c-.828 0-1.5-.671-1.501-1.499l-.001-1.729c-.001-1.229-1.397-1.936-2.388-1.209l-15.501 11.378c-.817.6-.817 1.82.001 2.419l15.511 11.364c.991.726 2.387.018 2.387-1.211l-.001-1.728c0-.828.671-1.5 1.499-1.501z" fill="#f9cfcf"/></svg>