<svg id="Layer_1" enable-background="new 0 0 256 256" height="512" viewBox="0 0 256 256" width="512" xmlns="http://www.w3.org/2000/svg"><path d="m244.417 30.167h-200c-1.105 0-2-.895-2-2 0-1.105.895-2 2-2h200c1.105 0 2 .895 2 2 0 1.104-.896 2-2 2z" fill="#e0ebfc"/><path d="m244.417 70.167h-200c-1.105 0-2-.895-2-2 0-1.105.895-2 2-2h200c1.105 0 2 .895 2 2 0 1.104-.896 2-2 2z" fill="#e0ebfc"/><path d="m244.417 110.167h-200c-1.105 0-2-.895-2-2 0-1.105.895-2 2-2h200c1.105 0 2 .895 2 2 0 1.104-.896 2-2 2z" fill="#e0ebfc"/><path d="m244.417 150.167h-200c-1.105 0-2-.895-2-2 0-1.105.895-2 2-2h200c1.105 0 2 .895 2 2 0 1.104-.896 2-2 2z" fill="#e0ebfc"/><path d="m244.417 190.167h-200c-1.105 0-2-.895-2-2 0-1.105.895-2 2-2h200c1.105 0 2 .895 2 2 0 1.104-.896 2-2 2z" fill="#e0ebfc"/><path d="m29.583 72.167h-16c-2.209 0-4-1.791-4-4s1.791-4 4-4h16c2.209 0 4 1.791 4 4s-1.791 4-4 4z" fill="#b9befc"/><path d="m29.583 112.167h-16c-2.209 0-4-1.791-4-4s1.791-4 4-4h16c2.209 0 4 1.791 4 4s-1.791 4-4 4z" fill="#b9befc"/><path d="m29.583 152.167h-16c-2.209 0-4-1.791-4-4s1.791-4 4-4h16c2.209 0 4 1.791 4 4s-1.791 4-4 4z" fill="#b9befc"/><path d="m29.583 192.167h-16c-2.209 0-4-1.791-4-4s1.791-4 4-4h16c2.209 0 4 1.791 4 4s-1.791 4-4 4z" fill="#b9befc"/><path d="m29.583 32.167h-16c-2.209 0-4-1.791-4-4s1.791-4 4-4h16c2.209 0 4 1.791 4 4s-1.791 4-4 4z" fill="#b9befc"/><path d="m246.417 211.917h-204c-1.105 0-2-.896-2-2s.895-2 2-2h204c1.104 0 2 .896 2 2s-.896 2-2 2z" fill="#3762cc"/><path d="m94.417 231.833h-18c-2.209 0-4-1.791-4-4s1.791-4 4-4h18c2.209 0 4 1.791 4 4s-1.791 4-4 4z" fill="#b9befc"/><path d="m154.417 231.833h-18c-2.209 0-4-1.791-4-4s1.791-4 4-4h18c2.209 0 4 1.791 4 4s-1.791 4-4 4z" fill="#b9befc"/><path d="m214.417 231.833h-18c-2.209 0-4-1.791-4-4s1.791-4 4-4h18c2.209 0 4 1.791 4 4s-1.791 4-4 4z" fill="#b9befc"/><path d="m205.417 102.833c-.216 0-.434-.023-.65-.071l-60-13.333c-.402-.089-.782-.261-1.115-.503l-57.743-42.024-34.199 40.533c-1.068 1.266-2.962 1.427-4.228.358-1.267-1.068-1.427-2.961-.358-4.228l36-42.667c1.015-1.203 2.786-1.417 4.058-.491l59.496 43.299 57.432 12.764 32.85-46.9c.949-1.356 2.82-1.688 4.178-.736 1.357.95 1.688 2.821.736 4.178l-34 48.542c-.568.813-1.492 1.279-2.457 1.279z" fill="#4671c6"/><path d="m205.417 174.5c-.367 0-.735-.067-1.087-.204l-60-23.333c-.203-.079-.396-.179-.577-.3l-57.841-38.561-34.265 38.072c-1.108 1.232-3.006 1.332-4.237.223-1.231-1.108-1.332-3.005-.223-4.237l36-40c.997-1.107 2.654-1.316 3.894-.489l59.729 39.819 58.217 22.64 32.693-22.437c1.366-.938 3.232-.59 4.171.776.938 1.366.59 3.234-.776 4.171l-34 23.333c-.508.348-1.1.527-1.698.527z" fill="#f9a7a7"/><circle cx="239.417" cy="51.291" fill="#ffea92" r="7"/><circle cx="49.417" cy="85.5" fill="#ffea92" r="7"/><circle cx="85.417" cy="42.833" fill="#ffea92" r="7"/><circle cx="145.417" cy="86.5" fill="#ffea92" r="7"/><circle cx="205.417" cy="99.833" fill="#ffea92" r="7"/><circle cx="49.417" cy="148.167" fill="#a4c9ff" r="7"/><circle cx="239.417" cy="148.167" fill="#a4c9ff" r="7"/><circle cx="85.417" cy="108.167" fill="#a4c9ff" r="7"/><circle cx="145.417" cy="148.167" fill="#a4c9ff" r="7"/><circle cx="205.417" cy="171.5" fill="#a4c9ff" r="7"/><g fill="#3762cc"><path d="m239.417 60.291c-4.963 0-9-4.038-9-9s4.037-9 9-9 9 4.038 9 9-4.037 9-9 9zm0-14c-2.757 0-5 2.243-5 5s2.243 5 5 5 5-2.243 5-5-2.243-5-5-5z"/><path d="m49.417 94.5c-4.962 0-9-4.038-9-9s4.038-9 9-9 9 4.038 9 9-4.038 9-9 9zm0-14c-2.757 0-5 2.243-5 5s2.243 5 5 5 5-2.243 5-5-2.243-5-5-5z"/><path d="m85.417 51.833c-4.962 0-9-4.038-9-9s4.038-9 9-9 9 4.038 9 9-4.038 9-9 9zm0-14c-2.757 0-5 2.243-5 5s2.243 5 5 5 5-2.243 5-5-2.243-5-5-5z"/><path d="m145.417 95.5c-4.963 0-9-4.038-9-9s4.037-9 9-9 9 4.038 9 9-4.037 9-9 9zm0-14c-2.757 0-5 2.243-5 5s2.243 5 5 5 5-2.243 5-5-2.243-5-5-5z"/><path d="m205.417 108.833c-4.963 0-9-4.038-9-9s4.037-9 9-9 9 4.038 9 9-4.037 9-9 9zm0-14c-2.757 0-5 2.243-5 5s2.243 5 5 5 5-2.243 5-5-2.243-5-5-5z"/><path d="m49.417 157.167c-4.962 0-9-4.038-9-9s4.038-9 9-9 9 4.038 9 9-4.038 9-9 9zm0-14c-2.757 0-5 2.243-5 5s2.243 5 5 5 5-2.243 5-5-2.243-5-5-5z"/><path d="m239.417 157.167c-4.963 0-9-4.038-9-9s4.037-9 9-9 9 4.038 9 9-4.037 9-9 9zm0-14c-2.757 0-5 2.243-5 5s2.243 5 5 5 5-2.243 5-5-2.243-5-5-5z"/><path d="m85.417 117.167c-4.962 0-9-4.038-9-9s4.038-9 9-9 9 4.038 9 9-4.038 9-9 9zm0-14c-2.757 0-5 2.243-5 5s2.243 5 5 5 5-2.243 5-5-2.243-5-5-5z"/><path d="m145.417 157.167c-4.963 0-9-4.038-9-9s4.037-9 9-9 9 4.038 9 9-4.037 9-9 9zm0-14c-2.757 0-5 2.243-5 5s2.243 5 5 5 5-2.243 5-5-2.243-5-5-5z"/><path d="m205.417 180.5c-4.963 0-9-4.038-9-9s4.037-9 9-9 9 4.038 9 9-4.037 9-9 9zm0-14c-2.757 0-5 2.243-5 5s2.243 5 5 5 5-2.243 5-5-2.243-5-5-5z"/></g></svg>