<?xml version="1.0" encoding="utf-8"?>
<!-- Generator: Adobe Illustrator 23.0.0, SVG Export Plug-In . SVG Version: 6.00 Build 0)  -->
<svg version="1.1" id="Layer_1" xmlns="http://www.w3.org/2000/svg" xmlns:xlink="http://www.w3.org/1999/xlink" x="0px" y="0px"
	 viewBox="0 0 512 512" style="enable-background:new 0 0 512 512;" xml:space="preserve">
<style type="text/css">
	.st0{fill:#009EFF;}
	.Black{fill:#FFFFFF;}
</style>
<path class="st0" d="M512,256c0,141.4-114.6,256-256,256S0,397.4,0,256S114.6,0,256,0S512,114.6,512,256z"/>
<g>
	<g>
		<path class="Black" d="M236.3,245.8H218l-40.5-75.6h-0.7L139,245.8h-17.9L172.6,144h7.9L236.3,245.8z"/>
	</g>
	<g>
		<path class="Black" d="M253,368V144h63.8c19.4,0,34.7,4.7,46.1,14.2c11.4,9.5,17,21.8,17,37c0,12.7-3.4,23.8-10.3,33.1s-16.4,16-28.4,20v0.6
			c15.1,1.8,27.2,7.5,36.3,17.1c9.1,9.6,13.6,22.2,13.6,37.6c0,19.2-6.9,34.7-20.6,46.6s-31.1,17.8-52,17.8H253z M279.2,167.7v72.3
			h26.9c14.4,0,25.7-3.5,33.9-10.4c8.2-6.9,12.3-16.7,12.3-29.3c0-21.8-14.3-32.7-43-32.7H279.2z M279.2,263.7v80.6h35.6
			c15.4,0,27.4-3.6,35.9-10.9c8.5-7.3,12.7-17.3,12.7-30c0-26.5-18-39.7-54.1-39.7H279.2z"/>
	</g>
</g>
</svg>
