<?xml version="1.0" encoding="utf-8"?>
<!-- Generator: Adobe Illustrator 23.0.0, SVG Export Plug-In . SVG Version: 6.00 Build 0)  -->
<svg version="1.1" id="Layer_1" xmlns="http://www.w3.org/2000/svg" xmlns:xlink="http://www.w3.org/1999/xlink" x="0px" y="0px"
	 viewBox="0 0 512 512" style="enable-background:new 0 0 512 512;" xml:space="preserve">
<style type="text/css">
	.st0{fill:#009EFF;}
	.Black{fill:#FFFFFF;}
</style>
<path class="st0" d="M512,256c0,141.4-114.6,256-256,256S0,397.4,0,256S114.6,0,256,0S512,114.6,512,256z"/>
<g>
	<g>
		<path class="Black" d="M213.4,245.8h-18.3l-40.5-75.6h-0.7l-37.7,75.6H98.2L149.7,144h7.9L213.4,245.8z"/>
	</g>
	<g>
		<path class="Black" d="M233.5,368V144h61.9c79,0,118.4,36.4,118.4,109.2c0,34.6-11,62.4-32.9,83.4c-21.9,21-51.3,31.5-88,31.5H233.5z
			 M259.7,167.7v176.6h33.4c29.4,0,52.2-7.9,68.6-23.6c16.4-15.7,24.5-38,24.5-66.9c0-57.4-30.5-86.1-91.6-86.1H259.7z"/>
	</g>
</g>
</svg>
