<?xml version="1.0" encoding="utf-8"?>
<!-- Generator: Adobe Illustrator 23.0.0, SVG Export Plug-In . SVG Version: 6.00 Build 0)  -->
<svg version="1.1" id="Layer_1" xmlns="http://www.w3.org/2000/svg" xmlns:xlink="http://www.w3.org/1999/xlink" x="0px" y="0px"
	 viewBox="0 0 512 512" style="enable-background:new 0 0 512 512;" xml:space="preserve">
<style type="text/css">
	.st0{fill:#EF314C;}
	.st1{fill:#FEC108;}
	.st2{fill:#FFDC00;}
	.st3{fill:#00838F;}
	.st4{fill:#00BCD4;}
	.st5{fill:#BB193B;}
	.Black{fill:#00000;}
	.Red{fill:#D04D2F;}
	.Green{fill:#4DAE89;}
	.Blue{fill:#377AB5;}
	.Yellow{fill:#EEB764}
</style>
<g>
	<path class="Red" d="M298.7,349.9c-4.7,0-8.5-3.8-8.5-8.5v-17.1c0-4.7,3.8-8.5,8.5-8.5c4.7,0,8.5,3.8,8.5,8.5v17.1
		C307.2,346,303.4,349.9,298.7,349.9z"/>
	<path class="Red" d="M298.7,401.1c-4.7,0-8.5-3.8-8.5-8.5v-17.1c0-4.7,3.8-8.5,8.5-8.5c4.7,0,8.5,3.8,8.5,8.5v17.1
		C307.2,397.2,303.4,401.1,298.7,401.1z"/>
	<path class="Red" d="M298.7,452.3c-4.7,0-8.5-3.8-8.5-8.5v-17.1c0-4.7,3.8-8.5,8.5-8.5c4.7,0,8.5,3.8,8.5,8.5v17.1
		C307.2,448.4,303.4,452.3,298.7,452.3z"/>
	<path class="Red" d="M435.2,119.5h-8.5c-4.7,0-8.5-3.8-8.5-8.5c0-4.7,3.8-8.5,8.5-8.5h8.5c4.7,0,8.5,3.8,8.5,8.5
		C443.7,115.6,439.9,119.5,435.2,119.5z"/>
	<path class="Red" d="M392.5,119.5h-17.1c-4.7,0-8.5-3.8-8.5-8.5c0-4.7,3.8-8.5,8.5-8.5h17.1c4.7,0,8.5,3.8,8.5,8.5
		C401.1,115.6,397.2,119.5,392.5,119.5z"/>
	<path class="Red" d="M341.3,119.5h-17.1c-4.7,0-8.5-3.8-8.5-8.5c0-4.7,3.8-8.5,8.5-8.5h17.1c4.7,0,8.5,3.8,8.5,8.5
		C349.9,115.6,346,119.5,341.3,119.5z"/>
	<path class="Red" d="M290.1,119.5h-17.1c-4.7,0-8.5-3.8-8.5-8.5c0-4.7,3.8-8.5,8.5-8.5h17.1c4.7,0,8.5,3.8,8.5,8.5
		C298.7,115.6,294.8,119.5,290.1,119.5z"/>
	<path class="Red" d="M238.9,119.5h-17.1c-4.7,0-8.5-3.8-8.5-8.5c0-4.7,3.8-8.5,8.5-8.5h17.1c4.7,0,8.5,3.8,8.5,8.5
		C247.5,115.6,243.6,119.5,238.9,119.5z"/>
	<path class="Red" d="M187.7,119.5h-17.1c-4.7,0-8.5-3.8-8.5-8.5c0-4.7,3.8-8.5,8.5-8.5h17.1c4.7,0,8.5,3.8,8.5,8.5
		C196.3,115.6,192.4,119.5,187.7,119.5z"/>
	<path class="Red" d="M136.5,119.5h-17.1c-4.7,0-8.5-3.8-8.5-8.5c0-4.7,3.8-8.5,8.5-8.5h17.1c4.7,0,8.5,3.8,8.5,8.5
		C145.1,115.6,141.2,119.5,136.5,119.5z"/>
	<path class="Red" d="M85.3,119.5H68.3c-4.7,0-8.5-3.8-8.5-8.5c0-4.7,3.8-8.5,8.5-8.5h17.1c4.7,0,8.5,3.8,8.5,8.5
		C93.9,115.6,90,119.5,85.3,119.5z"/>
</g>
<path id="RealYellow" class="st1" d="M162.1,290.1c0,9.1-3.6,17.7-10,24.1c-6.4,6.4-15.1,10-24.1,10c-4.4,0-8.8-0.8-12.8-2.6
	c-12.9-5.2-21.3-17.7-21.3-31.6c0-13.9,8.4-26.4,21.3-31.6c4-1.7,8.4-2.6,12.8-2.6c9.1,0,17.7,3.6,24.1,10
	C158.5,272.4,162.1,281.1,162.1,290.1z"/>
<path id="Yellow" class="Yellow" d="M136.5,290.1c0-17.4-9.6-31.6-21.3-31.6s-21.3,14.1-21.3,31.6s9.6,31.6,21.3,31.6
	S136.5,307.6,136.5,290.1z"/>
<path id="RealBlue" class="st3" d="M332.8,290.1c0,9.1-3.6,17.7-10,24.1c-6.4,6.4-15.1,10-24.1,10c-4.4,0-8.8-0.8-12.8-2.6
	c-12.9-5.2-21.3-17.7-21.3-31.6c0-13.9,8.4-26.4,21.3-31.6c4-1.7,8.4-2.6,12.8-2.6c9.1,0,17.7,3.6,24.1,10
	C329.2,272.4,332.8,281.1,332.8,290.1z"/>
<path id="Blue" class="Blue" d="M307.2,290.1c0-17.4-9.6-31.6-21.3-31.6s-21.3,14.1-21.3,31.6s9.6,31.6,21.3,31.6
	S307.2,307.6,307.2,290.1z"/>
<path id="RealRed" class="st5" d="M503.5,110.9c0,9.1-3.6,17.7-10,24.1c-6.4,6.4-15.1,10-24.1,10c-4.4,0-8.8-0.8-12.8-2.6
	c-12.9-5.2-21.3-17.7-21.3-31.6s8.4-26.4,21.3-31.6c4-1.7,8.4-2.6,12.8-2.6c9.1,0,17.7,3.6,24.1,10
	C499.9,93.2,503.5,101.9,503.5,110.9z"/>
<path id="Red1" class="Red" d="M477.9,110.9c0-17.4-9.6-31.6-21.3-31.6c-11.8,0-21.3,14.1-21.3,31.6s9.6,31.6,21.3,31.6
	C468.3,142.5,477.9,128.4,477.9,110.9z"/>
<path class="Black" d="M503.5,512H8.5c-4.7,0-8.5-3.8-8.5-8.5V8.5C0,3.8,3.8,0,8.5,0c4.7,0,8.5,3.8,8.5,8.5v486.4h486.4c4.7,0,8.5,3.8,8.5,8.5
	C512,508.2,508.2,512,503.5,512z"/>
<path class="Black" d="M42.7,51.2c-2.3,0-4.4-0.9-6-2.5L2.5,14.6c-3.2-3.3-3.2-8.7,0.1-12c3.3-3.3,8.6-3.3,12-0.1l34.1,34.1
	c2.4,2.4,3.2,6.1,1.8,9.3C49.2,49.1,46.1,51.2,42.7,51.2z"/>
<path class="Black" d="M503.5,512c-2.3,0-4.4-0.9-6-2.5l-34.1-34.1c-3.2-3.3-3.2-8.7,0.1-12c3.3-3.3,8.6-3.3,12-0.1l34.1,34.1
	c2.4,2.4,3.2,6.1,1.8,9.3C510,509.9,506.9,512,503.5,512z"/>
<path class="Black" d="M435.2,512c-4.7,0-8.5-3.8-8.5-8.5v-25.6c0-4.7,3.8-8.5,8.5-8.5c4.7,0,8.5,3.8,8.5,8.5v25.6
	C443.7,508.2,439.9,512,435.2,512z"/>
<path class="Black" d="M401.1,512c-4.7,0-8.5-3.8-8.5-8.5v-25.6c0-4.7,3.8-8.5,8.5-8.5c4.7,0,8.5,3.8,8.5,8.5v25.6
	C409.6,508.2,405.8,512,401.1,512z"/>
<path class="Black" d="M366.9,512c-4.7,0-8.5-3.8-8.5-8.5v-25.6c0-4.7,3.8-8.5,8.5-8.5c4.7,0,8.5,3.8,8.5,8.5v25.6
	C375.5,508.2,371.6,512,366.9,512z"/>
<path class="Black" d="M332.8,512c-4.7,0-8.5-3.8-8.5-8.5v-25.6c0-4.7,3.8-8.5,8.5-8.5c4.7,0,8.5,3.8,8.5,8.5v25.6
	C341.3,508.2,337.5,512,332.8,512z"/>
<path class="Black" d="M298.7,512c-4.7,0-8.5-3.8-8.5-8.5v-25.6c0-4.7,3.8-8.5,8.5-8.5c4.7,0,8.5,3.8,8.5,8.5v25.6
	C307.2,508.2,303.4,512,298.7,512z"/>
<path class="Black" d="M264.5,512c-4.7,0-8.5-3.8-8.5-8.5v-25.6c0-4.7,3.8-8.5,8.5-8.5c4.7,0,8.5,3.8,8.5,8.5v25.6
	C273.1,508.2,269.2,512,264.5,512z"/>
<path class="Black" d="M230.4,512c-4.7,0-8.5-3.8-8.5-8.5v-25.6c0-4.7,3.8-8.5,8.5-8.5c4.7,0,8.5,3.8,8.5,8.5v25.6
	C238.9,508.2,235.1,512,230.4,512z"/>
<path class="Black" d="M196.3,512c-4.7,0-8.5-3.8-8.5-8.5v-25.6c0-4.7,3.8-8.5,8.5-8.5c4.7,0,8.5,3.8,8.5,8.5v25.6C204.8,508.2,201,512,196.3,512z
	"/>
<path class="Black" d="M162.1,512c-4.7,0-8.5-3.8-8.5-8.5v-25.6c0-4.7,3.8-8.5,8.5-8.5c4.7,0,8.5,3.8,8.5,8.5v25.6
	C170.7,508.2,166.8,512,162.1,512z"/>
<path class="Black" d="M128,512c-4.7,0-8.5-3.8-8.5-8.5v-25.6c0-4.7,3.8-8.5,8.5-8.5s8.5,3.8,8.5,8.5v25.6C136.5,508.2,132.7,512,128,512z"/>
<path class="Black" d="M34.1,187.7H8.5c-4.7,0-8.5-3.8-8.5-8.5c0-4.7,3.8-8.5,8.5-8.5h25.6c4.7,0,8.5,3.8,8.5,8.5
	C42.7,183.9,38.8,187.7,34.1,187.7z"/>
<path class="Black" d="M34.1,221.9H8.5c-4.7,0-8.5-3.8-8.5-8.5c0-4.7,3.8-8.5,8.5-8.5h25.6c4.7,0,8.5,3.8,8.5,8.5C42.7,218,38.8,221.9,34.1,221.9z
	"/>
<path class="Black" d="M34.1,256H8.5c-4.7,0-8.5-3.8-8.5-8.5c0-4.7,3.8-8.5,8.5-8.5h25.6c4.7,0,8.5,3.8,8.5,8.5C42.7,252.2,38.8,256,34.1,256z"/>
<path class="Black" d="M34.1,290.1H8.5c-4.7,0-8.5-3.8-8.5-8.5c0-4.7,3.8-8.5,8.5-8.5h25.6c4.7,0,8.5,3.8,8.5,8.5
	C42.7,286.3,38.8,290.1,34.1,290.1z"/>
<path class="Black" d="M34.1,324.3H8.5c-4.7,0-8.5-3.8-8.5-8.5c0-4.7,3.8-8.5,8.5-8.5h25.6c4.7,0,8.5,3.8,8.5,8.5
	C42.7,320.4,38.8,324.3,34.1,324.3z"/>
<path class="Black" d="M34.1,358.4H8.5c-4.7,0-8.5-3.8-8.5-8.5c0-4.7,3.8-8.5,8.5-8.5h25.6c4.7,0,8.5,3.8,8.5,8.5
	C42.7,354.6,38.8,358.4,34.1,358.4z"/>
<path class="Black" d="M34.1,153.6H8.5c-4.7,0-8.5-3.8-8.5-8.5c0-4.7,3.8-8.5,8.5-8.5h25.6c4.7,0,8.5,3.8,8.5,8.5
	C42.7,149.8,38.8,153.6,34.1,153.6z"/>
<path class="Black" d="M34.1,119.5H8.5c-4.7,0-8.5-3.8-8.5-8.5c0-4.7,3.8-8.5,8.5-8.5h25.6c4.7,0,8.5,3.8,8.5,8.5
	C42.7,115.6,38.8,119.5,34.1,119.5z"/>
<path class="Black" d="M34.1,85.3H8.5c-4.7,0-8.5-3.8-8.5-8.5c0-4.7,3.8-8.5,8.5-8.5h25.6c4.7,0,8.5,3.8,8.5,8.5C42.7,81.5,38.8,85.3,34.1,85.3z"
	/>
<path class="Black" d="M128,332.8c-23.6,0-42.7-19.1-42.7-42.7c0-23.6,19.1-42.7,42.7-42.7s42.7,19.1,42.7,42.7C170.6,313.7,151.6,332.8,128,332.8
	z M128,264.5c-14.1,0-25.6,11.5-25.6,25.6c0,14.1,11.5,25.6,25.6,25.6s25.6-11.5,25.6-25.6C153.6,276,142.1,264.6,128,264.5z"/>
<path class="Black" d="M298.7,332.8c-23.6,0-42.7-19.1-42.7-42.7c0-23.6,19.1-42.7,42.7-42.7c23.6,0,42.7,19.1,42.7,42.7
	C341.3,313.7,322.2,332.8,298.7,332.8z M298.7,264.5c-14.1,0-25.6,11.5-25.6,25.6c0,14.1,11.5,25.6,25.6,25.6
	c14.1,0,25.6-11.5,25.6-25.6C324.3,276,312.8,264.6,298.7,264.5z"/>
<path class="Black" d="M469.3,153.6c-23.6,0-42.7-19.1-42.7-42.7s19.1-42.7,42.7-42.7c23.6,0,42.7,19.1,42.7,42.7
	C512,134.5,492.9,153.6,469.3,153.6z M469.3,85.3c-14.1,0-25.6,11.5-25.6,25.6c0,14.1,11.5,25.6,25.6,25.6
	c14.1,0,25.6-11.5,25.6-25.6C494.9,96.8,483.5,85.3,469.3,85.3z"/>
<path class="Black" d="M469.3,51.2c-4.7,0-8.5-3.8-8.5-8.5V8.5c0-4.7,3.8-8.5,8.5-8.5c4.7,0,8.5,3.8,8.5,8.5v34.1C477.9,47.4,474,51.2,469.3,51.2z
	"/>
<path class="Black" d="M503.5,51.2c-4.7,0-8.5-3.8-8.5-8.5V8.5c0-4.7,3.8-8.5,8.5-8.5c4.7,0,8.5,3.8,8.5,8.5v34.1C512,47.4,508.2,51.2,503.5,51.2z
	"/>
<path class="Black" d="M435.2,51.2c-4.7,0-8.5-3.8-8.5-8.5V8.5c0-4.7,3.8-8.5,8.5-8.5c4.7,0,8.5,3.8,8.5,8.5v34.1
	C443.7,47.4,439.9,51.2,435.2,51.2z"/>
<path class="Black" d="M128,230.4c-4.7,0-8.5-3.8-8.5-8.5v-34.1c0-4.7,3.8-8.5,8.5-8.5s8.5,3.8,8.5,8.5v34.1C136.5,226.6,132.7,230.4,128,230.4z"
	/>
<path class="Black" d="M315.7,230.4c-4.7,0-8.5-3.8-8.5-8.5v-34.1c0-4.7,3.8-8.5,8.5-8.5c4.7,0,8.5,3.8,8.5,8.5v34.1
	C324.3,226.6,320.4,230.4,315.7,230.4z"/>
<path class="Black" d="M281.6,230.4c-4.7,0-8.5-3.8-8.5-8.5v-34.1c0-4.7,3.8-8.5,8.5-8.5c4.7,0,8.5,3.8,8.5,8.5v34.1
	C290.1,226.6,286.3,230.4,281.6,230.4z"/>
<path class="Black" d="M322.2,274c-3.4,0-6.5-2-7.8-5.2c-1.3-3.1-0.7-6.8,1.7-9.2l123.6-129.8c2.1-2.2,5.2-3.1,8.2-2.4c3,0.7,5.3,3,6.2,5.9
	c0.9,2.9,0.1,6.1-2,8.3L328.4,271.3C326.8,273,324.5,274,322.2,274z"/>
<path class="Black" d="M264.5,298.7H162.1c-4.7,0-8.5-3.8-8.5-8.5c0-4.7,3.8-8.5,8.5-8.5h102.4c4.7,0,8.5,3.8,8.5,8.5
	C273.1,294.8,269.2,298.7,264.5,298.7z"/>
<path class="Black" d="M8.5,512c-3,0-5.8-1.6-7.4-4.2c-1.5-2.6-1.6-5.8-0.1-8.5l102.8-183.6c2.3-4.1,7.5-5.5,11.6-3.2s5.6,7.4,3.3,11.6L16,507.6
	C14.5,510.3,11.6,512,8.5,512z"/>
</svg>
