<?xml version="1.0" encoding="utf-8"?>
<!-- Generator: Adobe Illustrator 23.0.0, SVG Export Plug-In . SVG Version: 6.00 Build 0)  -->
<svg version="1.1" id="Layer_1" xmlns="http://www.w3.org/2000/svg" xmlns:xlink="http://www.w3.org/1999/xlink" x="0px" y="0px"
	 viewBox="0 0 496.2 496.2" style="enable-background:new 0 0 496.2 496.2;" xml:space="preserve">
<style type="text/css">
	.st0{fill:#978874;}
	.White{fill:#FFFFFF;}
</style>
<path class="st0" d="M248.1,0C111.1,0,0,111.1,0,248.1c0,137,111.1,248.1,248.1,248.1c137,0,248.1-111.1,248.1-248.1
	C496.2,111.1,385.1,0,248.1,0z"/>
<g id="X">
	<path class="White" d="M346.5,370.6h-35l-56.4-93.8c-1.7-2.8-3.6-6.9-5.6-12.1h-0.7c-1.1,2.6-3.1,6.7-5.8,12.1l-58.1,93.8h-35.2l82-123.2
		l-75.5-121.9h35.2l50.1,86.1c3.3,5.7,6.2,11.4,8.7,17.1h0.7c3.6-7.5,6.8-13.4,9.6-17.8l52.1-85.4h33l-77.1,121.5L346.5,370.6z"/>
</g>
</svg>
