<svg height="512pt" viewBox="0 0 512 512.00001" width="512pt" xmlns="http://www.w3.org/2000/svg"><g fill="#ef314c"><path d="m298.667969 349.867188c-4.714844 0-8.535157-3.820313-8.535157-8.535157v-17.066406c0-4.710937 3.820313-8.53125 8.535157-8.53125 4.710937 0 8.53125 3.820313 8.53125 8.53125v17.066406c0 4.714844-3.820313 8.535157-8.53125 8.535157zm0 0"/><path d="m298.667969 401.066406c-4.714844 0-8.535157-3.820312-8.535157-8.53125v-17.070312c0-4.710938 3.820313-8.53125 8.535157-8.53125 4.710937 0 8.53125 3.820312 8.53125 8.53125v17.070312c0 4.710938-3.820313 8.53125-8.53125 8.53125zm0 0"/><path d="m298.667969 452.265625c-4.714844 0-8.535157-3.820313-8.535157-8.53125v-17.066406c0-4.714844 3.820313-8.535157 8.535157-8.535157 4.710937 0 8.53125 3.820313 8.53125 8.535157v17.066406c0 4.710937-3.820313 8.53125-8.53125 8.53125zm0 0"/><path d="m435.199219 119.464844h-8.53125c-4.714844 0-8.535157-3.820313-8.535157-8.53125 0-4.714844 3.820313-8.535156 8.535157-8.535156h8.53125c4.714843 0 8.535156 3.820312 8.535156 8.535156 0 4.710937-3.820313 8.53125-8.535156 8.53125zm0 0"/><path d="m392.535156 119.464844h-17.070312c-4.710938 0-8.53125-3.820313-8.53125-8.53125 0-4.714844 3.820312-8.535156 8.53125-8.535156h17.070312c4.710938 0 8.53125 3.820312 8.53125 8.535156 0 4.710937-3.820312 8.53125-8.53125 8.53125zm0 0"/><path d="m341.332031 119.464844h-17.066406c-4.710937 0-8.53125-3.820313-8.53125-8.53125 0-4.714844 3.820313-8.535156 8.53125-8.535156h17.066406c4.714844 0 8.535157 3.820312 8.535157 8.535156 0 4.710937-3.820313 8.53125-8.535157 8.53125zm0 0"/><path d="m290.132812 119.464844h-17.066406c-4.710937 0-8.53125-3.820313-8.53125-8.53125 0-4.714844 3.820313-8.535156 8.53125-8.535156h17.066406c4.714844 0 8.535157 3.820312 8.535157 8.535156 0 4.710937-3.820313 8.53125-8.535157 8.53125zm0 0"/><path d="m238.933594 119.464844h-17.066406c-4.714844 0-8.535157-3.820313-8.535157-8.53125 0-4.714844 3.820313-8.535156 8.535157-8.535156h17.066406c4.710937 0 8.53125 3.820312 8.53125 8.535156 0 4.710937-3.820313 8.53125-8.53125 8.53125zm0 0"/><path d="m187.734375 119.464844h-17.066406c-4.714844 0-8.535157-3.820313-8.535157-8.53125 0-4.714844 3.820313-8.535156 8.535157-8.535156h17.066406c4.710937 0 8.53125 3.820312 8.53125 8.535156 0 4.710937-3.820313 8.53125-8.53125 8.53125zm0 0"/><path d="m136.535156 119.464844h-17.070312c-4.710938 0-8.53125-3.820313-8.53125-8.53125 0-4.714844 3.820312-8.535156 8.53125-8.535156h17.070312c4.710938 0 8.53125 3.820312 8.53125 8.535156 0 4.710937-3.820312 8.53125-8.53125 8.53125zm0 0"/><path d="m85.332031 119.464844h-17.066406c-4.710937 0-8.53125-3.820313-8.53125-8.53125 0-4.714844 3.820313-8.535156 8.53125-8.535156h17.066406c4.714844 0 8.535157 3.820312 8.535157 8.535156 0 4.710937-3.820313 8.53125-8.535157 8.53125zm0 0"/></g><path d="m162.132812 290.132812c.003907 9.054688-3.59375 17.738282-9.996093 24.140626-6.398438 6.398437-15.082031 9.996093-24.136719 9.992187-4.398438.035156-8.753906-.835937-12.800781-2.558594-12.886719-5.183593-21.332031-17.679687-21.332031-31.574219 0-13.890624 8.445312-26.390624 21.332031-31.574218 4.046875-1.722656 8.402343-2.59375 12.800781-2.558594 9.054688-.003906 17.738281 3.59375 24.136719 9.996094 6.402343 6.398437 10 15.082031 9.996093 24.136718zm0 0" fill="#fec108"/><path d="m136.535156 290.132812c0-17.4375-9.554687-31.574218-21.335937-31.574218s-21.332031 14.136718-21.332031 31.574218 9.550781 31.574219 21.332031 31.574219 21.335937-14.136719 21.335937-31.574219zm0 0" fill="#ffdc00"/><path d="m332.800781 290.132812c0 9.054688-3.59375 17.738282-9.996093 24.140626-6.402344 6.398437-15.085938 9.996093-24.136719 9.992187-4.398438.035156-8.753907-.835937-12.800781-2.558594-12.890626-5.183593-21.332032-17.679687-21.332032-31.574219 0-13.890624 8.441406-26.390624 21.332032-31.574218 4.046874-1.722656 8.402343-2.59375 12.800781-2.558594 9.050781-.003906 17.734375 3.59375 24.136719 9.996094 6.402343 6.398437 9.996093 15.082031 9.996093 24.136718zm0 0" fill="#00838f"/><path d="m307.199219 290.132812c0-17.4375-9.550781-31.574218-21.332031-31.574218s-21.332032 14.136718-21.332032 31.574218 9.550782 31.574219 21.332032 31.574219 21.332031-14.136719 21.332031-31.574219zm0 0" fill="#00bcd4"/><path d="m503.464844 110.933594c.003906 9.054687-3.589844 17.738281-9.992188 24.136718-6.402344 6.402344-15.085937 10-24.140625 9.996094-4.394531.035156-8.753906-.835937-12.796875-2.558594-12.890625-5.183593-21.335937-17.683593-21.335937-31.574218s8.445312-26.390625 21.335937-31.574219c4.042969-1.722656 8.402344-2.59375 12.796875-2.558594 9.054688-.003906 17.738281 3.59375 24.140625 9.992188 6.402344 6.402343 9.996094 15.085937 9.992188 24.140625zm0 0" fill="#bb193b"/><path d="m477.867188 110.933594c0-17.4375-9.550782-31.574219-21.332032-31.574219-11.785156 0-21.335937 14.136719-21.335937 31.574219s9.550781 31.574218 21.335937 31.574218c11.78125 0 21.332032-14.136718 21.332032-31.574218zm0 0" fill="#ef314c"/><path d="m503.464844 512h-494.929688c-4.714844 0-8.535156-3.820312-8.535156-8.535156v-494.929688c0-4.714844 3.820312-8.535156 8.535156-8.535156 4.710938 0 8.53125 3.820312 8.53125 8.535156v486.398438h486.398438c4.714844 0 8.535156 3.820312 8.535156 8.53125 0 4.714844-3.820312 8.535156-8.535156 8.535156zm0 0"/><path d="m42.667969 51.199219c-2.265625.003906-4.4375-.894531-6.035157-2.5l-34.132812-34.132813c-3.234375-3.347656-3.1875-8.671875.105469-11.960937 3.289062-3.292969 8.613281-3.339844 11.960937-.105469l34.132813 34.132812c2.441406 2.441407 3.171875 6.109376 1.847656 9.300782-1.320313 3.1875-4.429687 5.265625-7.878906 5.265625zm0 0"/><path d="m503.464844 512c-2.261719.003906-4.433594-.898438-6.03125-2.5l-34.132813-34.132812c-3.234375-3.347657-3.1875-8.671876.101563-11.964844 3.292968-3.289063 8.617187-3.335938 11.964844-.101563l34.132812 34.132813c2.441406 2.441406 3.167969 6.109375 1.847656 9.296875-1.320312 3.191406-4.429687 5.269531-7.882812 5.269531zm0 0"/><path d="m435.199219 512c-4.710938 0-8.53125-3.820312-8.53125-8.535156v-25.597656c0-4.714844 3.820312-8.535157 8.53125-8.535157 4.714843 0 8.535156 3.820313 8.535156 8.535157v25.597656c0 4.714844-3.820313 8.535156-8.535156 8.535156zm0 0"/><path d="m401.066406 512c-4.710937 0-8.53125-3.820312-8.53125-8.535156v-25.597656c0-4.714844 3.820313-8.535157 8.53125-8.535157 4.714844 0 8.535156 3.820313 8.535156 8.535157v25.597656c0 4.714844-3.820312 8.535156-8.535156 8.535156zm0 0"/><path d="m366.933594 512c-4.714844 0-8.535156-3.820312-8.535156-8.535156v-25.597656c0-4.714844 3.820312-8.535157 8.535156-8.535157 4.710937 0 8.53125 3.820313 8.53125 8.535157v25.597656c0 4.714844-3.820313 8.535156-8.53125 8.535156zm0 0"/><path d="m332.800781 512c-4.714843 0-8.535156-3.820312-8.535156-8.535156v-25.597656c0-4.714844 3.820313-8.535157 8.535156-8.535157 4.710938 0 8.53125 3.820313 8.53125 8.535157v25.597656c0 4.714844-3.820312 8.535156-8.53125 8.535156zm0 0"/><path d="m298.667969 512c-4.714844 0-8.535157-3.820312-8.535157-8.535156v-25.597656c0-4.714844 3.820313-8.535157 8.535157-8.535157 4.710937 0 8.53125 3.820313 8.53125 8.535157v25.597656c0 4.714844-3.820313 8.535156-8.53125 8.535156zm0 0"/><path d="m264.535156 512c-4.714844 0-8.535156-3.820312-8.535156-8.535156v-25.597656c0-4.714844 3.820312-8.535157 8.535156-8.535157 4.710938 0 8.53125 3.820313 8.53125 8.535157v25.597656c0 4.714844-3.820312 8.535156-8.53125 8.535156zm0 0"/><path d="m230.398438 512c-4.710938 0-8.53125-3.820312-8.53125-8.535156v-25.597656c0-4.714844 3.820312-8.535157 8.53125-8.535157 4.714843 0 8.535156 3.820313 8.535156 8.535157v25.597656c0 4.714844-3.820313 8.535156-8.535156 8.535156zm0 0"/><path d="m196.265625 512c-4.710937 0-8.53125-3.820312-8.53125-8.535156v-25.597656c0-4.714844 3.820313-8.535157 8.53125-8.535157 4.714844 0 8.535156 3.820313 8.535156 8.535157v25.597656c0 4.714844-3.820312 8.535156-8.535156 8.535156zm0 0"/><path d="m162.132812 512c-4.710937 0-8.53125-3.820312-8.53125-8.535156v-25.597656c0-4.714844 3.820313-8.535157 8.53125-8.535157 4.714844 0 8.535157 3.820313 8.535157 8.535157v25.597656c0 4.714844-3.820313 8.535156-8.535157 8.535156zm0 0"/><path d="m128 512c-4.710938 0-8.535156-3.820312-8.535156-8.535156v-25.597656c0-4.714844 3.824218-8.535157 8.535156-8.535157s8.535156 3.820313 8.535156 8.535157v25.597656c0 4.714844-3.824218 8.535156-8.535156 8.535156zm0 0"/><path d="m34.132812 187.734375h-25.597656c-4.714844 0-8.535156-3.820313-8.535156-8.535156 0-4.710938 3.820312-8.53125 8.535156-8.53125h25.597656c4.714844 0 8.535157 3.820312 8.535157 8.53125 0 4.714843-3.820313 8.535156-8.535157 8.535156zm0 0"/><path d="m34.132812 221.867188h-25.597656c-4.714844 0-8.535156-3.820313-8.535156-8.535157 0-4.710937 3.820312-8.53125 8.535156-8.53125h25.597656c4.714844 0 8.535157 3.820313 8.535157 8.53125 0 4.714844-3.820313 8.535157-8.535157 8.535157zm0 0"/><path d="m34.132812 256h-25.597656c-4.714844 0-8.535156-3.820312-8.535156-8.535156 0-4.710938 3.820312-8.53125 8.535156-8.53125h25.597656c4.714844 0 8.535157 3.820312 8.535157 8.53125 0 4.714844-3.820313 8.535156-8.535157 8.535156zm0 0"/><path d="m34.132812 290.132812h-25.597656c-4.714844 0-8.535156-3.820312-8.535156-8.53125 0-4.714843 3.820312-8.535156 8.535156-8.535156h25.597656c4.714844 0 8.535157 3.820313 8.535157 8.535156 0 4.710938-3.820313 8.53125-8.535157 8.53125zm0 0"/><path d="m34.132812 324.265625h-25.597656c-4.714844 0-8.535156-3.820313-8.535156-8.53125 0-4.714844 3.820312-8.535156 8.535156-8.535156h25.597656c4.714844 0 8.535157 3.820312 8.535157 8.535156 0 4.710937-3.820313 8.53125-8.535157 8.53125zm0 0"/><path d="m34.132812 358.398438h-25.597656c-4.714844 0-8.535156-3.820313-8.535156-8.53125 0-4.714844 3.820312-8.535157 8.535156-8.535157h25.597656c4.714844 0 8.535157 3.820313 8.535157 8.535157 0 4.710937-3.820313 8.53125-8.535157 8.53125zm0 0"/><path d="m34.132812 153.601562h-25.597656c-4.714844 0-8.535156-3.820312-8.535156-8.535156 0-4.710937 3.820312-8.53125 8.535156-8.53125h25.597656c4.714844 0 8.535157 3.820313 8.535157 8.53125 0 4.714844-3.820313 8.535156-8.535157 8.535156zm0 0"/><path d="m34.132812 119.464844h-25.597656c-4.714844 0-8.535156-3.820313-8.535156-8.53125 0-4.714844 3.820312-8.535156 8.535156-8.535156h25.597656c4.714844 0 8.535157 3.820312 8.535157 8.535156 0 4.710937-3.820313 8.53125-8.535157 8.53125zm0 0"/><path d="m34.132812 85.332031h-25.597656c-4.714844 0-8.535156-3.820312-8.535156-8.53125 0-4.714843 3.820312-8.535156 8.535156-8.535156h25.597656c4.714844 0 8.535157 3.820313 8.535157 8.535156 0 4.710938-3.820313 8.53125-8.535157 8.53125zm0 0"/><path d="m128 332.800781c-23.5625 0-42.667969-19.101562-42.667969-42.667969 0-23.5625 19.105469-42.667968 42.667969-42.667968s42.667969 19.105468 42.667969 42.667968c-.027344 23.554688-19.117188 42.640626-42.667969 42.667969zm0-68.265625c-14.136719 0-25.601562 11.460938-25.601562 25.597656 0 14.140626 11.464843 25.601563 25.601562 25.601563s25.601562-11.460937 25.601562-25.601563c-.015624-14.132812-11.46875-25.582031-25.601562-25.597656zm0 0"/><path d="m298.667969 332.800781c-23.566407 0-42.667969-19.101562-42.667969-42.667969 0-23.5625 19.101562-42.667968 42.667969-42.667968 23.5625 0 42.664062 19.105468 42.664062 42.667968-.027343 23.554688-19.113281 42.640626-42.664062 42.667969zm0-68.265625c-14.140625 0-25.601563 11.460938-25.601563 25.597656 0 14.140626 11.460938 25.601563 25.601563 25.601563 14.136719 0 25.597656-11.460937 25.597656-25.601563-.015625-14.132812-11.46875-25.582031-25.597656-25.597656zm0 0"/><path d="m469.332031 153.601562c-23.5625 0-42.664062-19.105468-42.664062-42.667968s19.101562-42.667969 42.664062-42.667969c23.566407 0 42.667969 19.105469 42.667969 42.667969-.027344 23.550781-19.113281 42.636718-42.667969 42.667968zm0-68.269531c-14.136719 0-25.597656 11.460938-25.597656 25.601563 0 14.136718 11.460937 25.601562 25.597656 25.601562 14.140625 0 25.601563-11.464844 25.601563-25.601562-.015625-14.132813-11.46875-25.585938-25.601563-25.601563zm0 0"/><path d="m469.332031 51.199219c-4.710937 0-8.53125-3.820313-8.53125-8.53125v-34.132813c0-4.714844 3.820313-8.535156 8.53125-8.535156 4.714844 0 8.535157 3.820312 8.535157 8.535156v34.132813c0 4.710937-3.820313 8.53125-8.535157 8.53125zm0 0"/><path d="m503.464844 51.199219c-4.710938 0-8.53125-3.820313-8.53125-8.53125v-34.132813c0-4.714844 3.820312-8.535156 8.53125-8.535156 4.714844 0 8.535156 3.820312 8.535156 8.535156v34.132813c0 4.710937-3.820312 8.53125-8.535156 8.53125zm0 0"/><path d="m435.199219 51.199219c-4.710938 0-8.53125-3.820313-8.53125-8.53125v-34.132813c0-4.714844 3.820312-8.535156 8.53125-8.535156 4.714843 0 8.535156 3.820312 8.535156 8.535156v34.132813c0 4.710937-3.820313 8.53125-8.535156 8.53125zm0 0"/><path d="m128 230.398438c-4.710938 0-8.535156-3.820313-8.535156-8.53125v-34.132813c0-4.714844 3.824218-8.535156 8.535156-8.535156s8.535156 3.820312 8.535156 8.535156v34.132813c0 4.710937-3.824218 8.53125-8.535156 8.53125zm0 0"/><path d="m315.734375 230.398438c-4.714844 0-8.535156-3.820313-8.535156-8.53125v-34.132813c0-4.714844 3.820312-8.535156 8.535156-8.535156 4.710937 0 8.53125 3.820312 8.53125 8.535156v34.132813c0 4.710937-3.820313 8.53125-8.53125 8.53125zm0 0"/><path d="m281.601562 230.398438c-4.714843 0-8.535156-3.820313-8.535156-8.53125v-34.132813c0-4.714844 3.820313-8.535156 8.535156-8.535156 4.710938 0 8.53125 3.820312 8.53125 8.535156v34.132813c0 4.710937-3.820312 8.53125-8.53125 8.53125zm0 0"/><path d="m322.191406 273.96875c-3.414062 0-6.5-2.035156-7.84375-5.171875-1.347656-3.136719-.691406-6.773437 1.660156-9.246094l123.617188-129.800781c2.101562-2.207031 5.222656-3.128906 8.1875-2.414062 2.964844.71875 5.320312 2.960937 6.183594 5.882812.863281 2.925781.097656 6.089844-2.003906 8.296875l-123.617188 129.800781c-1.613281 1.691406-3.847656 2.648438-6.183594 2.652344zm0 0"/><path d="m264.535156 298.667969h-102.402344c-4.710937 0-8.53125-3.820313-8.53125-8.535157 0-4.710937 3.820313-8.53125 8.53125-8.53125h102.402344c4.710938 0 8.53125 3.820313 8.53125 8.53125 0 4.714844-3.820312 8.535157-8.53125 8.535157zm0 0"/><path d="m8.523438 512c-3.023438-.003906-5.820313-1.613281-7.351563-4.222656-1.527344-2.613282-1.558594-5.835938-.082031-8.476563l102.792968-183.558593c2.320313-4.074219 7.488282-5.511719 11.578126-3.222657 4.089843 2.289063 5.566406 7.449219 3.304687 11.554688l-102.789063 183.558593c-1.507812 2.699219-4.359374 4.371094-7.453124 4.367188zm0 0"/></svg>