<?xml version="1.0" encoding="utf-8"?>
<!-- Generator: Adobe Illustrator 23.0.0, SVG Export Plug-In . SVG Version: 6.00 Build 0)  -->
<svg version="1.1" id="Layer_1" xmlns="http://www.w3.org/2000/svg" xmlns:xlink="http://www.w3.org/1999/xlink" x="0px" y="0px"
	 viewBox="0 0 496.2 496.2" style="enable-background:new 0 0 496.2 496.2;" xml:space="preserve">
<style type="text/css">
	.st0{fill:#978874;}
	.White{fill:#FFFFFF;}
</style>
<path class="st0" d="M248.1,0C111.1,0,0,111.1,0,248.1c0,137,111.1,248.1,248.1,248.1c137,0,248.1-111.1,248.1-248.1
	C496.2,111.1,385.1,0,248.1,0z"/>
<g id="B">
	<path class="White" d="M172.6,370.6V125.5h69.7c21.2,0,38,5.2,50.4,15.6c12.4,10.4,18.6,23.9,18.6,40.5c0,13.9-3.8,26-11.3,36.2
		s-17.9,17.5-31.1,21.9v0.7c16.5,1.9,29.7,8.2,39.6,18.7c9.9,10.5,14.9,24.2,14.9,41.1c0,21-7.5,37.9-22.6,50.9s-34,19.5-56.9,19.5
		H172.6z M201.3,151.5v79.1h29.4c15.7,0,28.1-3.8,37.1-11.4c9-7.6,13.5-18.3,13.5-32c0-23.8-15.7-35.7-47-35.7H201.3z M201.3,256.5
		v88.2h39c16.9,0,29.9-4,39.2-12c9.3-8,13.9-18.9,13.9-32.8c0-28.9-19.7-43.4-59.1-43.4H201.3z"/>
</g>
</svg>
