<?xml version="1.0" encoding="utf-8"?>
<!-- Generator: Adobe Illustrator 23.0.0, SVG Export Plug-In . SVG Version: 6.00 Build 0)  -->
<svg version="1.1" id="Layer_1" xmlns="http://www.w3.org/2000/svg" xmlns:xlink="http://www.w3.org/1999/xlink" x="0px" y="0px"
	 viewBox="0 0 496.2 496.2" style="enable-background:new 0 0 496.2 496.2;" xml:space="preserve">
<style type="text/css">
	.st0{fill:#978874;}
	.White{fill:#FFFFFF;}
</style>
<path class="st0" d="M248.1,0C111.1,0,0,111.1,0,248.1c0,137,111.1,248.1,248.1,248.1c137,0,248.1-111.1,248.1-248.1
	C496.2,111.1,385.1,0,248.1,0z"/>
<g id="C">
	<path class="White" d="M339.5,360.4c-18.1,9.6-40.7,14.4-67.7,14.4c-34.9,0-62.8-11.2-83.7-33.7c-21-22.4-31.4-51.9-31.4-88.4
		c0-39.2,11.8-70.9,35.4-95c23.6-24.2,53.5-36.2,89.7-36.2c23.2,0,42.5,3.4,57.8,10.1v30.6c-17.5-9.8-36.9-14.7-58.1-14.7
		c-28.1,0-51,9.4-68.4,28.2c-17.5,18.8-26.2,43.9-26.2,75.4c0,29.9,8.2,53.6,24.5,71.4c16.3,17.7,37.8,26.6,64.3,26.6
		c24.6,0,45.9-5.5,63.9-16.4V360.4z"/>
</g>
</svg>
