<?xml version="1.0" encoding="utf-8"?>
<!-- Generator: Adobe Illustrator 22.1.0, SVG Export Plug-In . SVG Version: 6.00 Build 0)  -->
<svg version="1.1" id="Layer_1" xmlns="http://www.w3.org/2000/svg" xmlns:xlink="http://www.w3.org/1999/xlink" x="0px" y="0px"
	 viewBox="0 0 52 52" style="enable-background:new 0 0 52 52;" xml:space="preserve">
<style type="text/css">
	.Green{fill:#3A92CC;}
</style>
<g>
	<g>
		<path id="GreenId" class="Green" d="M38,10.7c-0.8,0-1.6,0.1-2.3,0.2C34.4,5.8,29.6,2,24,2c-5.5,0-10.3,3.7-11.6,8.8
			C6.5,11.6,2,16.5,2,22.4c0,5.8,4.3,10.5,10,11.5l0-7.2h3.2C15.5,20.7,20.2,16,26,16c2.9,0,5.6,1.2,7.7,3.3c1.9,2,3,4.6,3.1,7.3H40
			v7.2c5.7-0.9,10-5.7,10-11.5C50,15.9,44.6,10.7,38,10.7z"/>
	</g>
	<g>
		<path id="Lock" d="M34.8,27.1c0-2.4-0.9-4.7-2.6-6.4C30.6,19,28.3,18,26,18c-4.9,0-8.8,4.1-8.8,9.1v1.5H14L14,50h24V28.6h-3.2
			V27.1z M28.4,40.9v3.7h-4.8v-3.7c-0.9-0.7-1.4-1.8-1.4-3c0-2.1,1.7-3.9,3.8-3.9c2.1,0,3.8,1.7,3.8,3.9
			C29.8,39,29.3,40.1,28.4,40.9z M32.8,28.6H19.2v-1.5c0-3.9,3.1-7.1,6.8-7.1c1.8,0,3.5,0.7,4.8,2.1c1.3,1.4,2,3.2,2,5.1V28.6z"/>
	</g>
</g>
</svg>
