<?xml version="1.0" encoding="utf-8"?>
<!-- Generator: Adobe Illustrator 23.0.0, SVG Export Plug-In . SVG Version: 6.00 Build 0)  -->
<svg version="1.1" id="Layer_1" xmlns="http://www.w3.org/2000/svg" xmlns:xlink="http://www.w3.org/1999/xlink" x="0px" y="0px"
	 viewBox="0 0 512 512" style="enable-background:new 0 0 512 512;" xml:space="preserve">
<style type="text/css">
	.st0{fill:#1E0478;}
	.st1{display:none;fill:#9B8CCC;}
	.st2{fill:#FFFFFF;}
	.st3{fill:#94E7EF;}
	.st4{fill:#6F7CCD;}
</style>
<path class="st0" d="M457.6,134.7c30,0,54.4,24.4,54.4,54.4s-24.4,54.4-54.4,54.4c-10.9,0-21.1-3.3-29.6-8.8l-58.7,58.7
	c5.6,8.5,8.8,18.7,8.8,29.6c0,30-24.4,54.4-54.4,54.4s-54.4-24.4-54.4-54.4c0-10.5,3-20.4,8.2-28.7l-59.7-59.7
	c-8.5,5.6-18.7,8.8-29.6,8.8s-21.1-3.3-29.6-8.8l-58.7,58.7c5.6,8.5,8.8,18.7,8.8,29.6c0,30-24.4,54.4-54.4,54.4S0,352.9,0,323
	s24.4-54.4,54.4-54.4c10.9,0,21.1,3.3,29.6,8.8l58.7-58.7c-5.6-8.5-8.8-18.7-8.8-29.6c0-30,24.4-54.4,54.4-54.4s54.4,24.4,54.4,54.4
	c0,10.9-3.3,21.1-8.8,29.6l59.3,59.3c8.7-6,19.2-9.4,30.6-9.4c10.9,0,21.1,3.3,29.6,8.8l58.7-58.7c-5.6-8.5-8.8-18.7-8.8-29.6
	C403.3,159.1,427.7,134.7,457.6,134.7z M489.5,189c0-17.6-14.3-31.9-31.9-31.9s-31.9,14.3-31.9,31.9c0,17.6,14.3,31.9,31.9,31.9
	C475.2,220.9,489.5,206.6,489.5,189z M355.6,323c0-17.6-14.3-31.9-31.9-31.9s-31.9,14.3-31.9,31.9c0,17.6,14.3,31.9,31.9,31.9
	S355.6,340.5,355.6,323z M220.2,189c0-17.6-14.3-31.9-31.9-31.9s-31.9,14.3-31.9,31.9c0,17.6,14.3,31.9,31.9,31.9
	S220.2,206.6,220.2,189z M86.3,323c0-17.6-14.3-31.9-31.9-31.9S22.5,305.4,22.5,323c0,17.6,14.3,31.9,31.9,31.9S86.3,340.5,86.3,323
	z"/>
<path class="st1" d="M457.6,157.2c17.6,0,31.9,14.3,31.9,31.9c0,17.6-14.3,31.9-31.9,31.9s-31.9-14.3-31.9-31.9
	C425.7,171.5,440.1,157.2,457.6,157.2z"/>
<path class="st0" d="M374,200.9c4.4,4.4,4.4,11.5,0,15.9l-22.9,22.9c-2.2,2.2-5.1,3.3-7.9,3.3s-5.8-1.1-7.9-3.3
	c-4.4-4.4-4.4-11.5,0-15.9l22.9-22.9C362.5,196.6,369.6,196.6,374,200.9z"/>
<path class="st2" d="M323.7,291.1c17.6,0,31.9,14.3,31.9,31.9c0,17.6-14.3,31.9-31.9,31.9s-31.9-14.3-31.9-31.9
	C291.8,305.4,306.1,291.1,323.7,291.1z"/>
<path class="st3" d="M188.3,157.2c17.6,0,31.9,14.3,31.9,31.9c0,17.6-14.3,31.9-31.9,31.9s-31.9-14.3-31.9-31.9
	C156.4,171.5,170.7,157.2,188.3,157.2z"/>
<path class="st0" d="M176.8,272.7c4.4,4.4,4.4,11.5,0,15.9l-22.9,22.9c-2.2,2.2-5.1,3.3-7.9,3.3c-2.9,0-5.8-1.1-7.9-3.3
	c-4.4-4.4-4.4-11.5,0-15.9l22.9-22.9C165.3,268.3,172.4,268.3,176.8,272.7z"/>
<path class="st4" d="M323.7,291.1c17.6,0,31.9,14.3,31.9,31.9c0,17.6-14.3,31.9-31.9,31.9s-31.9-14.3-31.9-31.9
	C291.8,305.4,306.1,291.1,323.7,291.1z"/>
</svg>
