<?xml version="1.0" encoding="utf-8"?>
<!-- Generator: Adobe Illustrator 22.1.0, SVG Export Plug-In . SVG Version: 6.00 Build 0)  -->
<svg version="1.1" id="Layer_1" xmlns="http://www.w3.org/2000/svg" xmlns:xlink="http://www.w3.org/1999/xlink" x="0px" y="0px"
	 viewBox="0 0 300 300" style="enable-background:new 0 0 300 300;" xml:space="preserve">
<style type="text/css">
	.Green{fill:#238DB1;}
	.White{fill:#FFFFFF;}
</style>
<g>
	<path id="Green_1_" class="Green" d="M151.1,15C76.3,15,15.7,75.6,15.7,150.4c0,74.8,60.6,135.4,135.4,135.4
		c74.8,0,135.4-60.6,135.4-135.4C286.5,75.6,225.9,15,151.1,15z M151.1,266.7c-64.2,0-116.3-52.1-116.3-116.3
		c0-64.2,52.1-116.3,116.3-116.3s116.3,52,116.3,116.3C267.4,214.6,215.3,266.7,151.1,266.7z"/>
	<path id="Green" class="Green" d="M255.9,150.4c0,57.9-46.9,104.7-104.7,104.7S46.4,208.3,46.4,150.4c0-57.9,46.9-104.8,104.7-104.8
		S255.9,92.6,255.9,150.4z"/>
	<polygon id="White" class="White" points="198.5,159.6 173.7,159.6 173.7,223.3 128.6,223.3 128.6,159.6 103.8,159.6 128.6,116.3 
		128.6,116.1 128.7,116.1 150.8,77.5 173.3,116.1 173.7,116.1 173.7,116.8 	"/>
</g>
</svg>
