<svg id="Layer_1" enable-background="new 0 0 256 256" height="512" viewBox="0 0 256 256" width="512" xmlns="http://www.w3.org/2000/svg"><path d="m28.833 72.167h-16c-2.209 0-4-1.791-4-4s1.791-4 4-4h16c2.209 0 4 1.791 4 4s-1.791 4-4 4z" fill="#b9befc"/><path d="m28.833 112.167h-16c-2.209 0-4-1.791-4-4s1.791-4 4-4h16c2.209 0 4 1.791 4 4s-1.791 4-4 4z" fill="#b9befc"/><path d="m28.833 152.167h-16c-2.209 0-4-1.791-4-4s1.791-4 4-4h16c2.209 0 4 1.791 4 4s-1.791 4-4 4z" fill="#b9befc"/><path d="m28.833 192.167h-16c-2.209 0-4-1.791-4-4s1.791-4 4-4h16c2.209 0 4 1.791 4 4s-1.791 4-4 4z" fill="#b9befc"/><path d="m28.833 32.167h-16c-2.209 0-4-1.791-4-4s1.791-4 4-4h16c2.209 0 4 1.791 4 4s-1.791 4-4 4z" fill="#b9befc"/><path d="m247.167 211.917h-204c-1.104 0-2-.896-2-2s.896-2 2-2h204c1.104 0 2 .896 2 2s-.896 2-2 2z" fill="#3762cc"/><path d="m91.667 231.833h-18c-2.209 0-4-1.791-4-4s1.791-4 4-4h18c2.209 0 4 1.791 4 4s-1.791 4-4 4z" fill="#b9befc"/><path d="m151.667 231.833h-18c-2.209 0-4-1.791-4-4s1.791-4 4-4h18c2.209 0 4 1.791 4 4s-1.791 4-4 4z" fill="#b9befc"/><path d="m211.667 231.833h-18c-2.209 0-4-1.791-4-4s1.791-4 4-4h18c2.209 0 4 1.791 4 4s-1.791 4-4 4z" fill="#b9befc"/><path d="m245.167 31h-200c-1.105 0-2-.895-2-2 0-1.105.895-2 2-2h200c1.105 0 2 .895 2 2 0 1.105-.896 2-2 2z" fill="#e0ebfc"/><path d="m245.167 71h-200c-1.105 0-2-.895-2-2 0-1.105.895-2 2-2h200c1.105 0 2 .895 2 2 0 1.105-.896 2-2 2z" fill="#e0ebfc"/><path d="m245.167 111h-200c-1.105 0-2-.895-2-2 0-1.105.895-2 2-2h200c1.105 0 2 .895 2 2 0 1.105-.896 2-2 2z" fill="#e0ebfc"/><path d="m245.167 151h-200c-1.105 0-2-.895-2-2 0-1.105.895-2 2-2h200c1.105 0 2 .895 2 2 0 1.105-.896 2-2 2z" fill="#e0ebfc"/><path d="m245.167 191h-200c-1.105 0-2-.895-2-2 0-1.105.895-2 2-2h200c1.105 0 2 .895 2 2 0 1.105-.896 2-2 2z" fill="#e0ebfc"/><path d="m240.166 152.001c-.379 0-.765-.073-1.138-.226l-97.5-40c-.383-.157-.729-.392-1.017-.689l-57.675-59.597-30.362 36.512c-1.059 1.275-2.952 1.448-4.225.389-1.274-1.059-1.448-2.951-.389-4.225l32.5-39.083c.545-.655 1.342-1.048 2.194-1.08.843-.037 1.676.299 2.269.912l59.563 61.549 96.919 39.762c1.533.629 2.266 2.381 1.637 3.914-.476 1.16-1.596 1.862-2.776 1.862z" fill="#4671c6"/><path d="m50.166 151.167c-.675 0-1.354-.227-1.914-.691-1.275-1.058-1.451-2.949-.393-4.224l32.5-39.167c.237-.286.525-.525.849-.706l60-33.417c.769-.427 1.687-.497 2.51-.189l59.898 22.378 37.396 10.969c1.59.467 2.501 2.133 2.035 3.723-.467 1.59-2.137 2.498-3.723 2.035l-37.5-11c-.069-.021-.138-.043-.206-.069l-58.702-21.931-58.298 32.469-32.142 38.734c-.594.716-1.449 1.086-2.31 1.086z" fill="#f9a7a7"/><circle cx="240.167" cy="109" fill="#a4c9ff" r="7"/><circle cx="50.167" cy="148.167" fill="#a4c9ff" r="7"/><circle cx="50.167" cy="86.083" fill="#ffea92" r="7"/><circle cx="240.167" cy="149" fill="#ffea92" r="7"/><circle cx="82.667" cy="109" fill="#a4c9ff" r="7"/><circle cx="82.667" cy="47" fill="#ffea92" r="7"/><circle cx="142.667" cy="75.583" fill="#a4c9ff" r="7"/><circle cx="142.667" cy="109" fill="#ffea92" r="7"/><circle cx="202.667" cy="98" fill="#a4c9ff" r="7"/><circle cx="202.667" cy="133.563" fill="#ffea92" r="7"/><g fill="#3762cc"><path d="m50.167 95.083c-4.962 0-9-4.038-9-9s4.038-9 9-9 9 4.038 9 9-4.038 9-9 9zm0-14c-2.757 0-5 2.243-5 5s2.243 5 5 5 5-2.243 5-5-2.243-5-5-5z"/><path d="m240.167 158c-4.962 0-9-4.038-9-9s4.038-9 9-9 9 4.038 9 9-4.038 9-9 9zm0-14c-2.757 0-5 2.243-5 5s2.243 5 5 5 5-2.243 5-5-2.244-5-5-5z"/><path d="m82.667 56c-4.962 0-9-4.038-9-9s4.038-9 9-9 9 4.038 9 9-4.038 9-9 9zm0-14c-2.757 0-5 2.243-5 5s2.243 5 5 5 5-2.243 5-5-2.243-5-5-5z"/><path d="m142.667 118c-4.962 0-9-4.038-9-9s4.038-9 9-9 9 4.038 9 9-4.038 9-9 9zm0-14c-2.757 0-5 2.243-5 5s2.243 5 5 5 5-2.243 5-5-2.243-5-5-5z"/><path d="m202.667 142.563c-4.962 0-9-4.038-9-9s4.038-9 9-9 9 4.038 9 9-4.038 9-9 9zm0-14c-2.757 0-5 2.243-5 5s2.243 5 5 5 5-2.243 5-5-2.243-5-5-5z"/><path d="m240.167 118c-4.962 0-9-4.038-9-9s4.038-9 9-9 9 4.038 9 9-4.038 9-9 9zm0-14c-2.757 0-5 2.243-5 5s2.243 5 5 5 5-2.243 5-5-2.244-5-5-5z"/><path d="m50.167 157.167c-4.962 0-9-4.038-9-9s4.038-9 9-9 9 4.038 9 9-4.038 9-9 9zm0-14c-2.757 0-5 2.243-5 5s2.243 5 5 5 5-2.243 5-5-2.243-5-5-5z"/><path d="m82.667 118c-4.962 0-9-4.038-9-9s4.038-9 9-9 9 4.038 9 9-4.038 9-9 9zm0-14c-2.757 0-5 2.243-5 5s2.243 5 5 5 5-2.243 5-5-2.243-5-5-5z"/><path d="m142.667 84.583c-4.962 0-9-4.038-9-9s4.038-9 9-9 9 4.038 9 9-4.038 9-9 9zm0-14c-2.757 0-5 2.243-5 5s2.243 5 5 5 5-2.243 5-5-2.243-5-5-5z"/><path d="m202.667 107c-4.962 0-9-4.038-9-9s4.038-9 9-9 9 4.038 9 9-4.038 9-9 9zm0-14c-2.757 0-5 2.243-5 5s2.243 5 5 5 5-2.243 5-5-2.243-5-5-5z"/></g></svg>