<svg id="Layer_1" enable-background="new 0 0 256 256" height="512" viewBox="0 0 256 256" width="512" xmlns="http://www.w3.org/2000/svg"><g fill="#e0ebfc"><path d="m246.917 191h-204c-1.105 0-2-.896-2-2s.895-2 2-2h204c1.104 0 2 .896 2 2s-.896 2-2 2z"/><path d="m246.917 151h-204c-1.105 0-2-.896-2-2s.895-2 2-2h204c1.104 0 2 .896 2 2s-.896 2-2 2z"/><path d="m246.917 111h-204c-1.105 0-2-.896-2-2s.895-2 2-2h204c1.104 0 2 .896 2 2s-.896 2-2 2z"/><path d="m246.917 71h-204c-1.105 0-2-.896-2-2s.895-2 2-2h204c1.104 0 2 .896 2 2s-.896 2-2 2z"/><path d="m246.917 31h-204c-1.105 0-2-.896-2-2s.895-2 2-2h204c1.104 0 2 .896 2 2s-.896 2-2 2z"/></g><path d="m29.083 73h-16c-2.209 0-4-1.791-4-4s1.791-4 4-4h16c2.209 0 4 1.791 4 4s-1.791 4-4 4z" fill="#b9befc"/><path d="m29.083 113h-16c-2.209 0-4-1.791-4-4s1.791-4 4-4h16c2.209 0 4 1.791 4 4s-1.791 4-4 4z" fill="#b9befc"/><path d="m29.083 153h-16c-2.209 0-4-1.791-4-4s1.791-4 4-4h16c2.209 0 4 1.791 4 4s-1.791 4-4 4z" fill="#b9befc"/><path d="m29.083 193h-16c-2.209 0-4-1.791-4-4s1.791-4 4-4h16c2.209 0 4 1.791 4 4s-1.791 4-4 4z" fill="#b9befc"/><path d="m29.083 33h-16c-2.209 0-4-1.791-4-4s1.791-4 4-4h16c2.209 0 4 1.791 4 4s-1.791 4-4 4z" fill="#b9befc"/><path d="m102.583 210.75h30v-125.25c0-3.314-2.686-6-6-6h-18c-3.314 0-6 2.686-6 6z" fill="#f9cfcf"/><path d="m162.583 210.75h-30v-108.75c0-3.314 2.686-6 6-6h18c3.314 0 6 2.686 6 6z" fill="#6bdddd"/><path d="m192.583 210.75h-30v-149.833c0-3.314 2.686-6 6-6h18c3.314 0 6 2.686 6 6z" fill="#a4c9ff"/><path d="m192.583 212.75h-30c-1.104 0-2-.896-2-2v-149.833c0-4.411 3.589-8 8-8h18c4.411 0 8 3.589 8 8v149.833c0 1.104-.896 2-2 2zm-28-4h26v-147.833c0-2.206-1.794-4-4-4h-18c-2.206 0-4 1.794-4 4z" fill="#3762cc"/><path d="m222.583 210.75h-30v-82.25c0-3.314 2.686-6 6-6h18c3.314 0 6 2.686 6 6z" fill="#4671c6"/><path d="m106.125 231h-7.083c-2.209 0-4-1.791-4-4 0-2.209 1.791-4 4-4h7.083c2.209 0 4 1.791 4 4 0 2.209-1.791 4-4 4z" fill="#b9befc"/><path d="m76.125 231h-7.083c-2.209 0-4-1.791-4-4 0-2.209 1.791-4 4-4h7.083c2.209 0 4 1.791 4 4 0 2.209-1.791 4-4 4z" fill="#b9befc"/><path d="m136.125 231h-7.083c-2.209 0-4-1.791-4-4 0-2.209 1.791-4 4-4h7.083c2.209 0 4 1.791 4 4 0 2.209-1.791 4-4 4z" fill="#b9befc"/><path d="m72.583 210.75h30v-71.917c0-3.314-2.686-6-6-6h-18c-3.314 0-6 2.686-6 6z" fill="#f9a7a7"/><path d="m102.583 212.75h-30c-.53 0-1.039-.211-1.414-.586s-.586-.884-.586-1.414v-71.917c0-4.411 3.589-8 8-8h18c4.411 0 8 3.589 8 8v71.917c0 1.104-.896 2-2 2zm-28-4h26v-69.917c0-2.206-1.794-4-4-4h-18c-2.206 0-4 1.794-4 4z" fill="#3762cc"/><path d="m246.917 212.75h-204c-1.105 0-2-.896-2-2s.895-2 2-2h204c1.104 0 2 .896 2 2s-.896 2-2 2z" fill="#3762cc"/><path d="m132.583 212.75h-30c-1.104 0-2-.896-2-2v-125.25c0-4.411 3.589-8 8-8h18c4.411 0 8 3.589 8 8v125.25c0 1.104-.896 2-2 2zm-28-4h26v-123.25c0-2.206-1.794-4-4-4h-18c-2.206 0-4 1.794-4 4z" fill="#3762cc"/><path d="m162.583 212.75h-30c-1.104 0-2-.896-2-2v-108.75c0-4.411 3.589-8 8-8h18c4.411 0 8 3.589 8 8v108.75c0 1.104-.896 2-2 2zm-28-4h26v-106.75c0-2.206-1.794-4-4-4h-18c-2.206 0-4 1.794-4 4z" fill="#3762cc"/><path d="m222.583 212.75h-30c-1.104 0-2-.896-2-2v-82.25c0-4.411 3.589-8 8-8h18c4.411 0 8 3.589 8 8v82.25c0 1.104-.896 2-2 2zm-28-4h26v-80.25c0-2.206-1.794-4-4-4h-18c-2.206 0-4 1.794-4 4z" fill="#3762cc"/><path d="m166.125 231h-7.083c-2.209 0-4-1.791-4-4 0-2.209 1.791-4 4-4h7.083c2.209 0 4 1.791 4 4 0 2.209-1.791 4-4 4z" fill="#b9befc"/><path d="m196.125 231h-7.083c-2.209 0-4-1.791-4-4 0-2.209 1.791-4 4-4h7.083c2.209 0 4 1.791 4 4 0 2.209-1.791 4-4 4z" fill="#b9befc"/><path d="m226.125 231h-7.083c-2.209 0-4-1.791-4-4 0-2.209 1.791-4 4-4h7.083c2.209 0 4 1.791 4 4 0 2.209-1.791 4-4 4z" fill="#b9befc"/></svg>