<?xml version="1.0" encoding="utf-8"?>
<!-- Generator: Adobe Illustrator 23.0.0, SVG Export Plug-In . SVG Version: 6.00 Build 0)  -->
<svg version="1.1" id="Layer_1" xmlns="http://www.w3.org/2000/svg" xmlns:xlink="http://www.w3.org/1999/xlink" x="0px" y="0px"
	 viewBox="0 0 512 512" style="enable-background:new 0 0 512 512;" xml:space="preserve">
<style type="text/css">
	.st0{fill:#009EFF;}
	.Black{fill:#FFFFFF;}
</style>
<path class="st0" d="M512,256c0,141.4-114.6,256-256,256S0,397.4,0,256S114.6,0,256,0S512,114.6,512,256z"/>
<g id="A">
	<g>
		<path class="Black" d="M232.4,245.8h-18.3l-40.5-75.6h-0.7l-37.7,75.6h-17.9L168.6,144h7.9L232.4,245.8z"/>
	</g>
	<g>
		<path class="Black" d="M394.9,368h-29.1l-23.8-62.8h-95L224.7,368h-29.2L281.4,144h27.2L394.9,368z M333.5,281.6l-35.2-95.5
			c-1.1-3.1-2.3-8.1-3.4-15h-0.6c-1,6.4-2.2,11.4-3.6,15l-34.8,95.5H333.5z"/>
	</g>
</g>
</svg>
