<?xml version="1.0" encoding="utf-8"?>
<!-- Generator: Adobe Illustrator 23.0.0, SVG Export Plug-In . SVG Version: 6.00 Build 0)  -->
<svg version="1.1" id="Layer_1" xmlns="http://www.w3.org/2000/svg" xmlns:xlink="http://www.w3.org/1999/xlink" x="0px" y="0px"
	 viewBox="0 0 496.2 496.2" style="enable-background:new 0 0 496.2 496.2;" xml:space="preserve">
<style type="text/css">
	.st0{fill:#978874;}
	.White{fill:#FFFFFF;}
</style>
<path class="st0" d="M248.1,0C111.1,0,0,111.1,0,248.1c0,137,111.1,248.1,248.1,248.1c137,0,248.1-111.1,248.1-248.1
	C496.2,111.1,385.1,0,248.1,0z"/>
<g id="A">
	<path class="White" d="M357.1,370.6h-31.8l-26-68.7H195.4L171,370.6h-32l94-245.1h29.7L357.1,370.6z M289.9,276.1l-38.5-104.4
		c-1.3-3.4-2.5-8.9-3.8-16.4h-0.7c-1.1,7-2.5,12.4-3.9,16.4L205,276.1H289.9z"/>
</g>
</svg>
