<svg id="Layer_1" enable-background="new 0 0 256 256" height="512" viewBox="0 0 256 256" width="512" xmlns="http://www.w3.org/2000/svg"><path d="m244.917 35.935h-200c-1.105 0-2-.895-2-2 0-1.105.895-2 2-2h200c1.105 0 2 .895 2 2 0 1.105-.896 2-2 2z" fill="#e0ebfc"/><path d="m244.917 75.935h-200c-1.105 0-2-.895-2-2 0-1.105.895-2 2-2h200c1.105 0 2 .895 2 2 0 1.105-.896 2-2 2z" fill="#e0ebfc"/><path d="m244.917 115.935h-200c-1.105 0-2-.895-2-2 0-1.105.895-2 2-2h200c1.105 0 2 .895 2 2 0 1.105-.896 2-2 2z" fill="#e0ebfc"/><path d="m244.917 155.935h-200c-1.105 0-2-.895-2-2 0-1.105.895-2 2-2h200c1.105 0 2 .895 2 2 0 1.105-.896 2-2 2z" fill="#e0ebfc"/><path d="m244.917 195.935h-200c-1.105 0-2-.895-2-2 0-1.105.895-2 2-2h200c1.105 0 2 .895 2 2 0 1.105-.896 2-2 2z" fill="#e0ebfc"/><path d="m29.083 77.935h-16c-2.209 0-4-1.791-4-4s1.791-4 4-4h16c2.209 0 4 1.791 4 4s-1.791 4-4 4z" fill="#b9befc"/><path d="m29.083 117.935h-16c-2.209 0-4-1.791-4-4s1.791-4 4-4h16c2.209 0 4 1.791 4 4s-1.791 4-4 4z" fill="#b9befc"/><path d="m29.083 157.935h-16c-2.209 0-4-1.791-4-4s1.791-4 4-4h16c2.209 0 4 1.791 4 4s-1.791 4-4 4z" fill="#b9befc"/><path d="m29.083 197.935h-16c-2.209 0-4-1.791-4-4s1.791-4 4-4h16c2.209 0 4 1.791 4 4s-1.791 4-4 4z" fill="#b9befc"/><path d="m29.083 37.935h-16c-2.209 0-4-1.791-4-4s1.791-4 4-4h16c2.209 0 4 1.791 4 4s-1.791 4-4 4z" fill="#b9befc"/><path d="m93.917 237.602h-18c-2.209 0-4-1.791-4-4s1.791-4 4-4h18c2.209 0 4 1.791 4 4s-1.791 4-4 4z" fill="#b9befc"/><path d="m153.917 237.602h-18c-2.209 0-4-1.791-4-4s1.791-4 4-4h18c2.209 0 4 1.791 4 4s-1.791 4-4 4z" fill="#b9befc"/><path d="m213.917 237.602h-18c-2.209 0-4-1.791-4-4s1.791-4 4-4h18c2.209 0 4 1.791 4 4s-1.791 4-4 4z" fill="#b9befc"/><path d="m246.917 217.685h-204c-1.104 0-2-.896-2-2s.896-2 2-2h204c1.104 0 2 .896 2 2s-.896 2-2 2z" fill="#3762cc"/><path d="m93.917 124.178h-18c-3.314 0-6-2.686-6-6v-52c0-3.314 2.686-6 6-6h18c3.314 0 6 2.686 6 6v52c0 3.313-2.687 6-6 6z" fill="#f9a7a7"/><path d="m153.917 164.178h-18c-3.314 0-6-2.686-6-6v-52c0-3.314 2.686-6 6-6h18c3.314 0 6 2.686 6 6v52c0 3.313-2.687 6-6 6z" fill="#a4c9ff"/><path d="m213.917 144.178h-18c-3.314 0-6-2.686-6-6v-52c0-3.314 2.686-6 6-6h18c3.314 0 6 2.686 6 6v52c0 3.313-2.687 6-6 6z" fill="#4671c6"/><path d="m84.75 62.178c-1.104 0-2-.896-2-2v-18.118c0-1.104.896-2 2-2s2 .896 2 2v18.118c0 1.104-.896 2-2 2z" fill="#3762cc"/><path d="m93.917 44.06h-18c-1.104 0-2-.896-2-2s.896-2 2-2h18c1.104 0 2 .896 2 2s-.896 2-2 2z" fill="#3762cc"/><path d="m84.75 144.295c-1.104 0-2-.896-2-2v-18.118c0-1.104.896-2 2-2s2 .896 2 2v18.118c0 1.105-.896 2-2 2z" fill="#3762cc"/><path d="m93.75 144.295h-18c-1.104 0-2-.896-2-2s.896-2 2-2h18c1.104 0 2 .896 2 2s-.896 2-2 2z" fill="#3762cc"/><path d="m144.917 102.178c-1.104 0-2-.896-2-2v-38.118c0-1.104.896-2 2-2s2 .896 2 2v38.118c0 1.104-.896 2-2 2z" fill="#3762cc"/><path d="m153.917 64.06h-18c-1.104 0-2-.896-2-2s.896-2 2-2h18c1.104 0 2 .896 2 2s-.896 2-2 2z" fill="#3762cc"/><path d="m145 184.295c-1.104 0-2-.896-2-2v-18.118c0-1.104.896-2 2-2s2 .896 2 2v18.118c0 1.105-.896 2-2 2z" fill="#3762cc"/><path d="m144.917 45.768c-1.104 0-2-.896-2-2v-3.5c0-1.104.896-2 2-2s2 .896 2 2v3.5c0 1.105-.896 2-2 2z" fill="#6bdddd"/><path d="m144.917 58.06c-1.104 0-2-.896-2-2v-3.5c0-1.104.896-2 2-2s2 .896 2 2v3.5c0 1.105-.896 2-2 2z" fill="#6bdddd"/><path d="m204.75 164.295c-1.104 0-2-.896-2-2v-18.118c0-1.104.896-2 2-2s2 .896 2 2v18.118c0 1.105-.896 2-2 2z" fill="#3762cc"/><path d="m213.75 164.295h-18c-1.104 0-2-.896-2-2s.896-2 2-2h18c1.104 0 2 .896 2 2s-.896 2-2 2z" fill="#3762cc"/><path d="m204.917 82.178c-1.104 0-2-.896-2-2v-18.118c0-1.104.896-2 2-2s2 .896 2 2v18.118c0 1.104-.896 2-2 2z" fill="#3762cc"/><path d="m213.917 64.06h-18c-1.104 0-2-.896-2-2s.896-2 2-2h18c1.104 0 2 .896 2 2s-.896 2-2 2z" fill="#3762cc"/><path d="m154 184.295h-18c-1.104 0-2-.896-2-2s.896-2 2-2h18c1.104 0 2 .896 2 2s-.896 2-2 2z" fill="#3762cc"/><g fill="#6bdddd"><path d="m204.917 173.796c-1.104 0-2-.896-2-2v-3.5c0-1.104.896-2 2-2s2 .896 2 2v3.5c0 1.104-.896 2-2 2z"/><path d="m204.917 186.087c-1.104 0-2-.896-2-2v-3.5c0-1.104.896-2 2-2s2 .896 2 2v3.5c0 1.105-.896 2-2 2z"/><path d="m204.75 45.949c-1.104 0-2-.896-2-2v-3.5c0-1.104.896-2 2-2s2 .896 2 2v3.5c0 1.104-.896 2-2 2z"/><path d="m204.75 58.06c-1.104 0-2-.896-2-2v-3.5c0-1.104.896-2 2-2s2 .896 2 2v3.5c0 1.105-.896 2-2 2z"/><path d="m84.75 153.796c-1.104 0-2-.896-2-2v-3.5c0-1.104.896-2 2-2s2 .896 2 2v3.5c0 1.104-.896 2-2 2z"/><path d="m84.75 166.087c-1.104 0-2-.896-2-2v-3.5c0-1.104.896-2 2-2s2 .896 2 2v3.5c0 1.105-.896 2-2 2z"/><path d="m144.917 193.539c-1.104 0-2-.896-2-2v-3.5c0-1.104.896-2 2-2s2 .896 2 2v3.5c0 1.105-.896 2-2 2z"/><path d="m144.917 205.831c-1.104 0-2-.896-2-2v-3.5c0-1.104.896-2 2-2s2 .896 2 2v3.5c0 1.104-.896 2-2 2z"/><path d="m84.75 25.898c-1.104 0-2-.896-2-2v-3.5c0-1.104.896-2 2-2s2 .896 2 2v3.5c0 1.105-.896 2-2 2z"/><path d="m84.75 38.19c-1.104 0-2-.896-2-2v-3.5c0-1.104.896-2 2-2s2 .896 2 2v3.5c0 1.104-.896 2-2 2z"/></g><path d="m93.917 126.178h-18c-4.411 0-8-3.589-8-8v-52c0-4.411 3.589-8 8-8h18c4.411 0 8 3.589 8 8v52c0 4.411-3.589 8-8 8zm-18-64c-2.206 0-4 1.794-4 4v52c0 2.206 1.794 4 4 4h18c2.206 0 4-1.794 4-4v-52c0-2.206-1.794-4-4-4z" fill="#3762cc"/><path d="m153.917 166.178h-18c-4.411 0-8-3.589-8-8v-52c0-4.411 3.589-8 8-8h18c4.411 0 8 3.589 8 8v52c0 4.411-3.589 8-8 8zm-18-64c-2.206 0-4 1.794-4 4v52c0 2.206 1.794 4 4 4h18c2.206 0 4-1.794 4-4v-52c0-2.206-1.794-4-4-4z" fill="#3762cc"/><path d="m213.917 146.178h-18c-4.411 0-8-3.589-8-8v-52c0-4.411 3.589-8 8-8h18c4.411 0 8 3.589 8 8v52c0 4.411-3.589 8-8 8zm-18-64c-2.206 0-4 1.794-4 4v52c0 2.206 1.794 4 4 4h18c2.206 0 4-1.794 4-4v-52c0-2.206-1.794-4-4-4z" fill="#3762cc"/></svg>