<?xml version="1.0" encoding="utf-8"?>
<!-- Generator: Adobe Illustrator 23.0.0, SVG Export Plug-In . SVG Version: 6.00 Build 0)  -->
<svg version="1.1" id="Layer_1" xmlns="http://www.w3.org/2000/svg" xmlns:xlink="http://www.w3.org/1999/xlink" x="0px" y="0px"
	 viewBox="0 0 496.2 496.2" style="enable-background:new 0 0 496.2 496.2;" xml:space="preserve">
<style type="text/css">
	.st0{fill:#56B48C;}
	.st1{display:none;fill:#FFFFFF;}
	.Black{fill:#00000;}
	.Red{fill:#D04D2F;}
	.Green{fill:#4DAE89;}
	.Blue{fill:#377AB5;}
	.Yellow{fill:#EEB764}
</style>
<path class="Red" d="M248.1,0C111.1,0,0,111.1,0,248.1c0,137,111.1,248.1,248.1,248.1c137,0,248.1-111.1,248.1-248.1
	C496.2,111.1,385.1,0,248.1,0z"/>

<g>
	<path class="Black" d="M55.5,337.6v-179h106.1v21.1H74.9v54.7H156v21.1H74.9v60.9h90.1v21.1H55.5z"/>
	<path class="Black" d="M193.1,337.6v-179h99v21.1h-79.6v55.4h68.8v21.1h-68.8v81.3H193.1z"/>
	<path class="Black" d="M421.2,274.9l19.5,6c-4.3,20.1-11.9,35.1-22.6,45c-10.8,9.9-23.9,14.8-39.4,14.8c-13.6,0-25.2-3.3-34.9-10
		c-9.6-6.6-17.5-17.3-23.7-31.9c-6.1-14.7-9.2-32-9.2-51.9c0-19.7,3.1-36.4,9.2-50c6.1-13.6,14.5-23.9,25-30.9
		c10.5-7,22.2-10.4,35.2-10.4c14.2,0,26.4,4.4,36.5,13.2c10.2,8.8,17.3,21.7,21.4,38.8l-19,5.5c-6.5-24.8-19.6-37.2-39.2-37.2
		c-9.8,0-18.3,2.5-25.4,7.5c-7.2,5-12.9,12.8-17.2,23.4c-4.3,10.6-6.4,24-6.4,40.2c0,24.5,4.3,42.9,12.9,55.2
		c8.6,12.3,20.1,18.4,34.4,18.4c10.6,0,19.7-3.8,27.4-11.3C413.4,301.6,418.6,290.2,421.2,274.9z"/>
</g>
</svg>
