<?xml version="1.0" encoding="utf-8"?>
<!-- Generator: Adobe Illustrator 23.0.0, SVG Export Plug-In . SVG Version: 6.00 Build 0)  -->
<svg version="1.1" id="Layer_1" xmlns="http://www.w3.org/2000/svg" xmlns:xlink="http://www.w3.org/1999/xlink" x="0px" y="0px"
	 viewBox="0 0 512 512" style="enable-background:new 0 0 512 512;" xml:space="preserve">
<style type="text/css">
	.st0{fill:#FFFFFF;}
	.st1{fill:#FF4A4C;}
	.st2{fill:#FCD77F;}
	.st3{fill:#501700;}
</style>
<title>GRAPH</title>
<rect x="75.4" y="59.7" class="st0" width="361.2" height="361.2"/>
<circle class="st1" cx="195.8" cy="300.9" r="31.5"/>
<circle class="st2" cx="75.4" cy="180.1" r="31.5"/>
<circle class="st1" cx="436.6" cy="420.8" r="31.5"/>
<circle class="st2" cx="316.2" cy="180.1" r="31.5"/>
<path class="st3" d="M95.3,64.7H99c2.8,0,5-2.2,5-5s-2.2-5-5-5h-3.7c-2.8,0-5,2.2-5,5S92.6,64.7,95.3,64.7z"/>
<path class="st3" d="M436.6,384.4c-6.3,0-12.6,1.7-18.1,4.8l-11.8-25.1c-1.2-2.5-4.2-3.5-6.7-2.3c-2.4,1.2-3.5,4.1-2.4,6.6
	l12.8,27.1c-5.4,5.6-8.9,12.7-9.9,20.4h-79.3V305.5H368l12.1,25.7c1.2,2.5,4.2,3.5,6.7,2.3c2.4-1.2,3.5-4.1,2.4-6.6l-10.1-21.4h52.5
	v67.2c0,2.8,2.2,5,5,5s5-2.2,5-5v-313c0-2.8-2.2-5-5-5H117.7c-2.8,0-5,2.2-5,5c0,2.8,2.2,5,5,5h73.1v110.4h-66.5c-2.8,0-5,2.2-5,5
	s2.2,5,5,5h66.5v79.7c-6.5,0.9-12.6,3.5-17.7,7.6l-67-72.8c10.8-16.9,5.9-39.4-11.1-50.2c-4.5-2.8-9.5-4.7-14.7-5.4V59.7
	c0-2.8-2.2-5-5-5s-5,2.2-5,5V144c-19.9,2.7-33.9,21.1-31.2,41s21.1,33.9,41,31.2c7.2-1,14-4.1,19.4-8.9l66.6,72.4
	c-11.8,16.3-8.1,39.1,8.3,50.9c16.3,11.8,39.1,8.1,50.9-8.3c3.6-4.9,5.8-10.7,6.6-16.8h79.2v110.4H200.8V353c0-2.8-2.2-5-5-5
	s-5,2.2-5,5v62.8H80.4V305.4h62.1c2.8,0,5-2.2,5-5s-2.2-5-5-5H80.4v-65.1c0-2.8-2.2-5-5-5s-5,2.2-5,5v190.5c0,2.8,2.2,5,5,5h325.1
	c2.8,19.9,21.2,33.9,41.1,31.1c19.9-2.8,33.9-21.2,31.1-41.1C470.2,397.8,454.8,384.4,436.6,384.4L436.6,384.4z M321.2,295.5v-79.3
	c1.5-0.2,3-0.5,4.4-0.9l37.7,80.2L321.2,295.5z M289.7,180.1c0-14.6,11.9-26.5,26.5-26.5c14.6,0,26.5,11.9,26.5,26.5
	c0,14.6-11.9,26.5-26.5,26.5C301.6,206.5,289.7,194.7,289.7,180.1L289.7,180.1z M200.8,64.7h110.4V130c0,2.8,2.2,5,5,5s5-2.2,5-5
	V64.7h110.4v110.4h-63.9c-2.8,0-5,2.2-5,5s2.2,5,5,5h63.9v110.4h-57.2l-39.6-84.1c17.3-10.3,23-32.6,12.7-50
	c-10.3-17.3-32.6-23-50-12.7c-9.5,5.7-16,15.4-17.5,26.4h-79.3V64.7z M280.1,185.1c0.9,6.4,3.4,12.4,7.4,17.4l-68.9,70
	c-5.1-4.1-11.3-6.8-17.8-7.7v-79.7L280.1,185.1z M75.4,206.6c-14.6,0-26.5-11.9-26.5-26.5c0-14.6,11.9-26.5,26.5-26.5
	c14.6,0,26.5,11.9,26.5,26.5C101.9,194.7,90,206.5,75.4,206.6L75.4,206.6z M195.8,327.4c-14.6,0-26.5-11.9-26.5-26.5
	c0-14.6,11.9-26.5,26.5-26.5c14.6,0,26.5,11.9,26.5,26.5C222.3,315.5,210.4,327.4,195.8,327.4L195.8,327.4z M231.8,295.5
	c-0.8-5.7-3-11.1-6.4-15.7l69.2-70.3c4.9,3.6,10.6,5.9,16.5,6.7v79.3L231.8,295.5z M436.6,447.3c-14.6,0-26.5-11.9-26.5-26.5
	s11.9-26.5,26.5-26.5c14.6,0,26.5,11.9,26.5,26.5C463,435.5,451.2,447.3,436.6,447.3L436.6,447.3z"/>
<path class="st3" d="M390.3,341.1c-2.5,1.2-3.6,4.2-2.4,6.7c0,0,0,0,0,0l2.2,4.6c1.1,2.5,4.1,3.6,6.6,2.5c2.5-1.1,3.6-4.1,2.5-6.6
	c0,0,0-0.1-0.1-0.1l-2.2-4.6C395.8,341,392.8,339.9,390.3,341.1C390.3,341.1,390.3,341.1,390.3,341.1z"/>
</svg>
