<svg height="480pt" viewBox="0 -19 480 479" width="480pt" xmlns="http://www.w3.org/2000/svg"><path d="m471.199219 284.925781-16-32-14.320313 7.148438 6.898438 13.785156-44.65625-16.742187-96-40c-.988282-.414063-2.050782-.621094-3.121094-.617188h-59.574219l-82.976562-132.246094c-1.464844-2.339844-4.027344-3.753906-6.785157-3.753906h-71.351562l-69.65625-69.65625-11.3125 11.3125 72 72c1.5 1.5 3.535156 2.34375 5.65625 2.34375h70.238281l82.984375 132.246094c1.464844 2.335937 4.023438 3.753906 6.777344 3.753906h62.398438l94.792968 39.496094 46.808594 17.550781-15.585938 7.792969 7.152344 14.320312 32-16c1.910156-.9375 3.363282-2.597656 4.046875-4.613281.679688-2.015625.53125-4.21875-.414062-6.121094zm0 0" fill="#f55648"/><path d="m336 .5h-80c-17.671875 0-32 14.328125-32 32v80c0 17.671875 14.328125 32 32 32v32l40-32h40c17.671875 0 32-14.328125 32-32v-80c0-17.671875-14.328125-32-32-32zm0 0" fill="#fbedbf"/><path d="m336 336.5h128v96h-128zm0 0" fill="#8dc79d"/><path d="m432 368.5c0 17.671875-14.328125 32-32 32s-32-14.328125-32-32 14.328125-32 32-32 32 14.328125 32 32zm0 0" fill="#85bc94"/><path d="m336 400.5h128v32h-128zm0 0" fill="#85bc94"/><path d="m176 304.5h128v128h-128zm0 0" fill="#8dc79d"/><path d="m272 336.5c0 17.671875-14.328125 32-32 32s-32-14.328125-32-32 14.328125-32 32-32 32 14.328125 32 32zm0 0" fill="#85bc94"/><path d="m176 368.5h128v32h-128zm0 0" fill="#85bc94"/><path d="m176 400.5h128v32h-128zm0 0" fill="#8dc79d"/><path d="m16 272.5h128v160h-128zm0 0" fill="#8dc79d"/><path d="m112 304.5c0 17.671875-14.328125 32-32 32s-32-14.328125-32-32 14.328125-32 32-32 32 14.328125 32 32zm0 0" fill="#85bc94"/><path d="m16 336.5h128v32h-128zm0 0" fill="#85bc94"/><path d="m16 368.5h128v32h-128zm0 0" fill="#8dc79d"/><path d="m16 400.5h128v32h-128zm0 0" fill="#85bc94"/><g fill="#6cbae5"><path d="m80 112.5c-13.253906 0-24-10.746094-24-24s10.746094-24 24-24 24 10.746094 24 24-10.746094 24-24 24zm0 0"/><path d="m400 288.5c-13.253906 0-24-10.746094-24-24s10.746094-24 24-24 24 10.746094 24 24-10.746094 24-24 24zm0 0"/><path d="m240 248.5c-13.253906 0-24-10.746094-24-24s10.746094-24 24-24 24 10.746094 24 24-10.746094 24-24 24zm0 0"/></g><path d="m0 424.5h480v16h-480zm0 0" fill="#6b9777"/><path d="m296 64.5c-4.417969 0-8-3.582031-8-8s3.582031-8 8-8 8 3.582031 8 8h16c-.042969-10.132812-6.445312-19.148438-16-22.527344v-9.472656h-16v9.472656c-11.011719 3.878906-17.621094 15.132813-15.644531 26.640625 1.980469 11.507813 11.96875 19.910157 23.644531 19.886719 4.417969 0 8 3.582031 8 8s-3.582031 8-8 8-8-3.582031-8-8h-16c.042969 10.132812 6.445312 19.148438 16 22.527344v9.472656h16v-9.472656c11.011719-3.878906 17.621094-15.132813 15.644531-26.640625-1.980469-11.507813-11.96875-19.910157-23.644531-19.886719zm0 0" fill="#8dc79d"/></svg>