<?xml version="1.0" encoding="utf-8"?>
<!-- Generator: Adobe Illustrator 23.0.0, SVG Export Plug-In . SVG Version: 6.00 Build 0)  -->
<svg version="1.1" id="Layer_1" xmlns="http://www.w3.org/2000/svg" xmlns:xlink="http://www.w3.org/1999/xlink" x="0px" y="0px"
	 viewBox="0 0 512 512" style="enable-background:new 0 0 512 512;" xml:space="preserve">
<style type="text/css">
	.st0{fill:#009EFF;}
	.Black{fill:#FFFFFF;}
</style>
<path class="st0" d="M512,256c0,141.4-114.6,256-256,256S0,397.4,0,256S114.6,0,256,0S512,114.6,512,256z"/>
<g>
	<g>
		<path class="Black" d="M227.3,242H209l-40.5-75.6h-0.7L130,242h-17.9l51.5-101.8h7.9L227.3,242z"/>
	</g>
	<g>
		<path class="Black" d="M399.9,358.7c-16.6,8.8-37.2,13.1-61.9,13.1c-31.9,0-57.4-10.3-76.6-30.8c-19.2-20.5-28.8-47.4-28.8-80.8
			c0-35.8,10.8-64.8,32.3-86.9c21.6-22.1,48.9-33.1,82-33.1c21.3,0,38.9,3.1,52.8,9.2v28c-16-9-33.8-13.4-53.1-13.4
			c-25.7,0-46.6,8.6-62.6,25.8c-16,17.2-24,40.2-24,68.9c0,27.3,7.5,49,22.4,65.2c14.9,16.2,34.6,24.3,58.8,24.3
			c22.5,0,42-5,58.4-15V358.7z"/>
	</g>
</g>
</svg>
