<svg id="Layer_1" enable-background="new 0 0 256 256" height="512" viewBox="0 0 256 256" width="512" xmlns="http://www.w3.org/2000/svg"><path d="m187.79 82.454-10.061-4.692c-.569-.265-.886-.873-.798-1.495.392-2.763.505-5.532.352-8.273-.035-.628.334-1.207.925-1.422l10.441-3.8c1.836-.668 2.783-2.699 2.115-4.535l-5.325-14.63c-.668-1.836-2.699-2.783-4.535-2.115l-10.441 3.8c-.591.215-1.246.009-1.623-.495-1.645-2.198-3.511-4.247-5.587-6.111-.467-.42-.615-1.089-.35-1.658l4.692-10.061c.826-1.771.06-3.876-1.711-4.702l-14.11-6.58c-1.771-.826-3.876-.06-4.702 1.712l-4.692 10.061c-.265.569-.873.886-1.495.798-2.763-.392-5.532-.505-8.273-.352-.628.035-1.207-.334-1.422-.925l-3.8-10.441c-.668-1.836-2.699-2.783-4.535-2.115l-14.63 5.325c-1.836.668-2.783 2.699-2.115 4.535l3.8 10.441c.215.591.009 1.246-.495 1.623-2.198 1.645-4.247 3.511-6.112 5.587-.42.467-1.089.615-1.658.349l-10.061-4.692c-1.771-.826-3.876-.06-4.702 1.712l-6.58 14.11c-.826 1.771-.06 3.876 1.712 4.702l10.061 4.692c.569.265.886.873.798 1.495-.392 2.763-.504 5.533-.352 8.273.035.628-.334 1.207-.925 1.422l-10.441 3.8c-1.836.668-2.783 2.699-2.115 4.535l5.325 14.63c.668 1.836 2.699 2.783 4.535 2.115l10.441-3.8c.591-.215 1.246-.009 1.623.495 1.645 2.198 3.511 4.247 5.587 6.111.467.42.615 1.089.35 1.658l-4.692 10.061c-.826 1.771-.06 3.876 1.711 4.702l14.11 6.58c1.771.826 3.876.06 4.702-1.712l4.692-10.061c.265-.569.873-.886 1.495-.798 2.763.392 5.532.505 8.273.352.628-.035 1.207.334 1.422.925l3.8 10.441c.668 1.836 2.699 2.783 4.535 2.115l14.63-5.325c1.836-.668 2.783-2.699 2.115-4.535l-3.8-10.441c-.215-.591-.009-1.246.495-1.623 2.198-1.645 4.247-3.511 6.111-5.587.42-.467 1.089-.615 1.658-.349l10.061 4.692c1.771.826 3.876.06 4.702-1.711l6.58-14.11c.826-1.772.06-3.877-1.711-4.703zm-64.697 13.153c-13.962-6.511-20.025-23.167-13.514-37.13s23.167-20.025 37.13-13.514c13.962 6.511 20.025 23.167 13.514 37.13s-23.167 20.025-37.13 13.514z" fill="#6bdddd"/><path d="m242.166 171.625h-12.864c-.728 0-1.358-.483-1.57-1.179-.942-3.093-2.179-6.057-3.682-8.861-.344-.643-.24-1.431.275-1.947l9.104-9.104c1.601-1.601 1.601-4.198 0-5.799l-12.757-12.757c-1.601-1.601-4.197-1.601-5.799 0l-9.105 9.104c-.516.516-1.304.62-1.947.275-2.803-1.503-5.767-2.74-8.861-3.682-.696-.212-1.179-.842-1.179-1.57v-12.864c0-2.265-1.836-4.1-4.1-4.1h-18.041c-2.264 0-4.1 1.836-4.1 4.1v12.864c0 .728-.483 1.358-1.179 1.57-3.093.942-6.057 2.179-8.861 3.682-.642.344-1.431.24-1.947-.275l-9.105-9.104c-1.601-1.601-4.197-1.601-5.799 0l-12.757 12.757c-1.601 1.601-1.601 4.197 0 5.799l9.104 9.104c.516.515.62 1.304.275 1.947-1.503 2.804-2.741 5.768-3.682 8.861-.212.696-.842 1.179-1.57 1.179h-12.859c-2.265 0-4.1 1.836-4.1 4.1v18.041c0 2.264 1.836 4.1 4.1 4.1h12.864c.728 0 1.358.483 1.57 1.179.942 3.093 2.18 6.057 3.682 8.861.344.643.24 1.431-.275 1.947l-9.104 9.104c-1.601 1.601-1.601 4.197 0 5.799l12.757 12.757c1.601 1.601 4.197 1.601 5.799 0l9.104-9.104c.516-.516 1.304-.62 1.947-.275 2.803 1.503 5.768 2.74 8.861 3.682.696.212 1.179.842 1.179 1.57v12.864c0 2.264 1.836 4.1 4.1 4.1h18.041c2.264 0 4.1-1.836 4.1-4.1v-12.864c0-.728.483-1.358 1.179-1.57 3.093-.942 6.057-2.18 8.861-3.682.643-.344 1.431-.24 1.947.275l9.104 9.104c1.601 1.601 4.197 1.601 5.799 0l12.757-12.757c1.601-1.601 1.601-4.197 0-5.799l-9.104-9.104c-.516-.515-.62-1.304-.275-1.947 1.503-2.804 2.741-5.768 3.682-8.861.212-.696.842-1.179 1.57-1.179h12.864c2.265 0 4.1-1.836 4.1-4.1v-18.041c-.002-2.264-1.838-4.1-4.103-4.1zm-61.503 45.497c-17.852 0-32.376-14.524-32.376-32.376s14.524-32.376 32.376-32.376 32.376 14.524 32.376 32.376-14.524 32.376-32.376 32.376z" fill="#4671c6"/><path d="m110.082 148.414h-8.829c-.499 0-.932-.331-1.078-.809-.646-2.123-1.496-4.158-2.527-6.082-.236-.441-.165-.982.189-1.336l6.249-6.249c1.099-1.099 1.099-2.881 0-3.98l-8.756-8.756c-1.099-1.099-2.881-1.099-3.98 0l-6.249 6.249c-.354.354-.895.425-1.336.189-1.924-1.031-3.959-1.881-6.082-2.527-.478-.145-.809-.578-.809-1.078v-8.829c0-1.554-1.26-2.814-2.814-2.814h-12.383c-1.554 0-2.814 1.26-2.814 2.814v8.829c0 .499-.331.932-.809 1.078-2.123.646-4.158 1.496-6.082 2.527-.441.236-.982.165-1.336-.189l-6.249-6.249c-1.099-1.099-2.881-1.099-3.98 0l-8.756 8.756c-1.099 1.099-1.099 2.881 0 3.98l6.249 6.249c.354.354.425.895.189 1.336-1.031 1.924-1.881 3.959-2.527 6.082-.145.478-.578.809-1.078.809h-8.829c-1.554 0-2.814 1.26-2.814 2.814v12.383c0 1.554 1.26 2.814 2.814 2.814h8.829c.499 0 .932.331 1.078.809.646 2.123 1.496 4.158 2.527 6.082.236.441.165.982-.189 1.336l-6.249 6.249c-1.099 1.099-1.099 2.881 0 3.98l8.756 8.756c1.099 1.099 2.881 1.099 3.98 0l6.249-6.249c.354-.354.895-.425 1.336-.189 1.924 1.031 3.959 1.881 6.082 2.527.478.145.809.578.809 1.078v8.829c0 1.554 1.26 2.814 2.814 2.814h12.383c1.554 0 2.814-1.26 2.814-2.814v-8.829c0-.499.331-.932.809-1.078 2.123-.646 4.158-1.496 6.082-2.527.441-.236.982-.165 1.336.189l6.249 6.249c1.099 1.099 2.881 1.099 3.98 0l8.756-8.756c1.099-1.099 1.099-2.881 0-3.98l-6.249-6.249c-.354-.354-.425-.895-.189-1.336 1.031-1.924 1.881-3.959 2.527-6.082.145-.478.578-.809 1.078-.809h8.829c1.554 0 2.814-1.26 2.814-2.814v-12.383c.001-1.554-1.259-2.814-2.814-2.814zm-42.214 31.227c-12.253 0-22.222-9.969-22.222-22.222s9.969-22.222 22.222-22.222 22.222 9.969 22.222 22.222c0 12.254-9.969 22.222-22.222 22.222z" fill="#a4c9ff"/><path d="m199.528 105.434c-.445 0-.897-.1-1.324-.31-1.486-.732-2.098-2.531-1.364-4.017 16.889-34.263 2.754-75.879-31.509-92.768-1.486-.732-2.098-2.531-1.364-4.018.731-1.486 2.529-2.095 4.017-1.364 37.23 18.352 52.589 63.572 34.237 100.802-.522 1.06-1.586 1.675-2.693 1.675z" fill="#e0ebfc"/><path d="m136.36 253.352c-.561 0-1.127-.157-1.632-.485-20.017-13.008-32.767-35.031-34.106-58.912-.093-1.654 1.173-3.07 2.827-3.163 1.643-.098 3.07 1.173 3.163 2.827 1.233 21.979 12.967 42.246 31.386 54.216 1.39.903 1.783 2.761.881 4.15-.575.885-1.537 1.367-2.519 1.367z" fill="#e0ebfc"/><path d="m12.733 156.495c-1.657 0-3-1.343-3-3 0-29.892 24.318-54.21 54.21-54.21 1.657 0 3 1.343 3 3s-1.343 3-3 3c-26.583 0-48.21 21.627-48.21 48.21 0 1.657-1.343 3-3 3z" fill="#e0ebfc"/><g fill="#a4c9ff"><path d="m153.901 74.285h-38c-2.209 0-4-1.791-4-4s1.791-4 4-4h38c2.209 0 4 1.791 4 4s-1.791 4-4 4z"/><path d="m199.663 188.746h-38c-2.209 0-4-1.791-4-4s1.791-4 4-4h38c2.209 0 4 1.791 4 4s-1.791 4-4 4z"/><path d="m82.868 161.419h-30c-2.209 0-4-1.791-4-4s1.791-4 4-4h30c2.209 0 4 1.791 4 4s-1.791 4-4 4z"/></g><path d="m145.745 128.361c-2.263 0-4.392-1.397-5.21-3.644l-3.651-10.033c-2.613.121-5.243.009-7.831-.333l-4.508 9.667c-1.29 2.767-4.591 3.969-7.36 2.679l-14.11-6.58c-1.34-.625-2.357-1.735-2.863-3.125-.507-1.39-.44-2.895.185-4.235l4.508-9.667c-1.928-1.766-3.703-3.708-5.288-5.785l-10.033 3.651c-1.388.507-2.894.44-4.234-.185-1.341-.625-2.358-1.735-2.864-3.126l-5.324-14.63c-1.045-2.87.44-6.054 3.311-7.099l10.031-3.651c-.12-2.614-.008-5.244.333-7.831l-9.667-4.508c-2.767-1.291-3.969-4.592-2.679-7.36l6.58-14.11c1.29-2.767 4.59-3.97 7.359-2.68l9.668 4.508c1.765-1.927 3.707-3.703 5.784-5.288l-3.651-10.033c-.506-1.39-.44-2.894.186-4.235.625-1.341 1.734-2.357 3.124-2.864l14.631-5.325c1.39-.506 2.895-.441 4.234.185 1.341.625 2.358 1.735 2.864 3.125l3.651 10.032c2.609-.123 5.241-.01 7.831.333l4.508-9.667c.624-1.341 1.734-2.358 3.125-2.864 1.391-.505 2.894-.44 4.235.186l14.109 6.58c1.341.625 2.358 1.735 2.864 3.125.506 1.391.439 2.895-.186 4.235l-4.508 9.667c1.924 1.761 3.701 3.705 5.289 5.784l10.033-3.651c2.867-1.044 6.053.44 7.098 3.31l5.325 14.631c.506 1.39.44 2.894-.185 4.235-.626 1.34-1.735 2.357-3.125 2.864l-10.033 3.651c.121 2.61.009 5.24-.333 7.831l9.668 4.508c1.34.625 2.357 1.735 2.863 3.125.506 1.391.439 2.895-.186 4.235l-6.579 14.11c-1.291 2.767-4.591 3.969-7.36 2.679l-9.668-4.508c-1.761 1.924-3.704 3.7-5.784 5.289l3.651 10.032c1.044 2.87-.44 6.054-3.309 7.099l-14.632 5.325c-.621.229-1.259.336-1.887.336zm-8.466-17.697c1.441 0 2.717.881 3.214 2.242l3.801 10.443c.289.796 1.172 1.21 1.972.919l14.631-5.325c.796-.29 1.208-1.175.918-1.972l-3.8-10.441c-.519-1.424-.046-2.995 1.176-3.909 2.109-1.578 4.067-3.369 5.821-5.322 1.02-1.134 2.621-1.464 3.992-.825l10.061 4.691c.77.358 1.687.025 2.045-.745l6.579-14.11c.174-.373.192-.79.052-1.176s-.423-.694-.796-.868l-10.062-4.692c-1.368-.637-2.146-2.079-1.933-3.587.369-2.604.482-5.256.335-7.881-.085-1.523.814-2.896 2.239-3.414l10.441-3.8c.386-.141.693-.423.867-.795s.192-.79.052-1.176l-5.325-14.631c-.289-.798-1.176-1.207-1.971-.919l-10.442 3.8c-1.423.519-2.994.045-3.908-1.176-1.578-2.108-3.369-4.067-5.323-5.822-1.133-1.019-1.464-2.623-.825-3.992l4.691-10.061c.174-.373.192-.79.052-1.176s-.423-.694-.796-.868l-14.109-6.58c-.374-.174-.793-.192-1.177-.051-.387.14-.694.422-.868.795l-4.691 10.062c-.64 1.371-2.085 2.152-3.589 1.933-2.601-.368-5.252-.479-7.881-.334-1.532.084-2.896-.816-3.413-2.239l-3.8-10.441c-.141-.386-.424-.695-.796-.868-.371-.173-.79-.192-1.177-.051l-14.63 5.325c-.386.141-.693.423-.867.795s-.192.79-.052 1.176l3.801 10.442c.517 1.424.045 2.994-1.175 3.908-2.107 1.577-4.066 3.367-5.824 5.323-1.015 1.132-2.618 1.465-3.99.826l-10.062-4.692c-.767-.359-1.686-.023-2.044.745l-6.58 14.11c-.358.769-.024 1.687.745 2.045l10.061 4.691c1.371.639 2.147 2.082 1.932 3.59-.368 2.597-.48 5.249-.334 7.879.085 1.523-.814 2.895-2.238 3.412l-10.441 3.8c-.797.29-1.209 1.175-.919 1.972l5.324 14.63c.141.386.424.694.796.868.373.173.791.192 1.176.051l10.442-3.8c1.425-.518 2.993-.045 3.907 1.175 1.577 2.106 3.367 4.065 5.323 5.823 1.133 1.016 1.465 2.62.825 3.991l-4.691 10.061c-.174.373-.191.79-.052 1.176.141.386.424.694.796.868l14.111 6.581c.765.358 1.686.025 2.044-.745l4.691-10.061c.64-1.369 2.076-2.146 3.588-1.933 2.602.369 5.256.481 7.881.335.066-.003.133-.005.199-.005zm-2.421-10.431c-4.308 0-8.596-.941-12.61-2.813-7.236-3.375-12.73-9.376-15.469-16.899s-2.388-15.652.987-22.889 9.376-12.73 16.899-15.469c7.522-2.738 15.65-2.388 22.889.987 7.236 3.375 12.729 9.376 15.468 16.899 2.738 7.523 2.388 15.652-.987 22.889s-9.376 12.73-16.898 15.469c-3.351 1.219-6.821 1.826-10.279 1.826zm.084-55.894c-2.997 0-6.005.526-8.908 1.583-6.52 2.373-11.72 7.132-14.643 13.4s-3.227 13.311-.854 19.83 7.132 11.719 13.401 14.642c6.268 2.923 13.311 3.225 19.829.854 6.519-2.373 11.719-7.132 14.642-13.4 2.924-6.269 3.227-13.311.854-19.83-2.372-6.519-7.131-11.719-13.4-14.642-3.475-1.622-7.19-2.437-10.921-2.437z" fill="#3762cc"/><path d="m189.684 252.35h-18.041c-3.364 0-6.101-2.737-6.101-6.101v-12.594c-3.021-.936-5.966-2.16-8.763-3.642l-8.914 8.914c-2.379 2.378-6.248 2.378-8.627 0l-12.757-12.758c-2.378-2.378-2.378-6.248 0-8.626l8.913-8.914c-1.482-2.801-2.706-5.747-3.641-8.764h-12.595c-3.363 0-6.1-2.736-6.1-6.1v-18.041c0-3.364 2.736-6.1 6.1-6.1h12.595c.935-3.017 2.158-5.963 3.641-8.764l-8.913-8.913c-1.152-1.152-1.787-2.684-1.787-4.313 0-1.63.635-3.162 1.787-4.314l12.757-12.756c2.379-2.379 6.248-2.379 8.627 0l8.914 8.914c2.796-1.482 5.742-2.706 8.763-3.642v-12.594c0-3.364 2.736-6.1 6.101-6.1h18.041c3.363 0 6.1 2.736 6.1 6.1v12.594c3.02.936 5.966 2.16 8.764 3.642l8.914-8.914c1.151-1.152 2.684-1.787 4.313-1.787 1.63 0 3.162.635 4.314 1.788l12.757 12.756c2.378 2.378 2.378 6.248.001 8.626l-8.914 8.914c1.482 2.801 2.706 5.747 3.641 8.764h12.594c3.364 0 6.101 2.736 6.101 6.1v18.041c0 3.364-2.736 6.1-6.101 6.1h-12.594c-.935 3.017-2.158 5.963-3.641 8.764l8.913 8.914c2.378 2.378 2.378 6.248 0 8.626l-12.758 12.757c-1.151 1.152-2.684 1.787-4.313 1.787s-3.161-.634-4.313-1.787l-8.914-8.914c-2.798 1.482-5.744 2.706-8.764 3.642v12.593c-.001 3.365-2.737 6.102-6.1 6.102zm-32.98-26.421c.591 0 1.189.145 1.743.441 2.706 1.451 5.565 2.639 8.498 3.532 1.554.472 2.597 1.872 2.597 3.483v12.864c0 1.158.942 2.101 2.101 2.101h18.041c1.158 0 2.1-.942 2.1-2.101v-12.864c0-1.61 1.044-3.01 2.598-3.483 2.932-.893 5.791-2.081 8.498-3.531 1.435-.769 3.165-.517 4.306.624l9.104 9.104c.793.793 2.177.792 2.97 0l12.758-12.757c.818-.819.818-2.151 0-2.97l-9.104-9.104c-1.143-1.142-1.393-2.873-.624-4.306 1.451-2.708 2.64-5.568 3.531-8.498.473-1.553 1.873-2.597 3.483-2.597h12.863c1.158 0 2.101-.942 2.101-2.1v-18.041c0-1.158-.942-2.1-2.101-2.1h-12.863c-1.611 0-3.011-1.043-3.483-2.597-.892-2.93-2.08-5.79-3.531-8.499-.769-1.433-.519-3.163.624-4.305l9.104-9.104c.818-.819.818-2.152 0-2.971l-12.758-12.757c-.793-.793-2.178-.794-2.969 0l-9.105 9.105c-1.143 1.143-2.872 1.392-4.306.625-2.707-1.451-5.566-2.64-8.498-3.532-1.554-.473-2.598-1.873-2.598-3.483v-12.864c0-1.158-.941-2.1-2.1-2.1h-18.041c-1.158 0-2.101.942-2.101 2.1v12.864c0 1.611-1.043 3.011-2.597 3.484-2.933.893-5.792 2.081-8.497 3.531-1.437.768-3.165.517-4.306-.623l-9.105-9.105c-.795-.793-2.176-.793-2.971 0l-12.757 12.757c-.396.397-.615.924-.615 1.485s.219 1.088.615 1.485l9.104 9.104c1.143 1.142 1.393 2.873.624 4.306-1.451 2.708-2.64 5.568-3.531 8.498-.473 1.553-1.872 2.597-3.483 2.597h-12.864c-1.158 0-2.1.942-2.1 2.1v18.041c0 1.158.941 2.1 2.1 2.1h12.864c1.61 0 3.011 1.043 3.483 2.597.892 2.93 2.08 5.79 3.531 8.499.769 1.433.519 3.163-.624 4.305l-9.104 9.104c-.818.819-.818 2.151 0 2.97l12.757 12.757c.818.818 2.152.819 2.971 0l9.104-9.104c.701-.702 1.624-1.067 2.563-1.067zm23.959-6.807c-18.955 0-34.376-15.421-34.376-34.376s15.421-34.376 34.376-34.376 34.376 15.421 34.376 34.376-15.421 34.376-34.376 34.376zm0-64.752c-16.749 0-30.376 13.626-30.376 30.376s13.627 30.376 30.376 30.376 30.376-13.626 30.376-30.376-13.627-30.376-30.376-30.376z" fill="#3762cc"/><path d="m74.06 204.448h-12.383c-2.654 0-4.814-2.16-4.814-4.814v-8.185c-1.809-.587-3.576-1.321-5.27-2.19l-5.793 5.792c-.908.909-2.117 1.41-3.403 1.41-1.287 0-2.496-.501-3.404-1.41l-8.757-8.756c-1.877-1.876-1.877-4.931 0-6.808l5.793-5.793c-.869-1.693-1.604-3.46-2.189-5.269h-8.186c-2.654 0-4.814-2.16-4.814-4.814v-12.383c0-2.655 2.16-4.814 4.814-4.814h8.186c.586-1.809 1.32-3.576 2.189-5.269l-5.793-5.793c-1.877-1.877-1.877-4.932 0-6.808l8.757-8.756c1.878-1.878 4.932-1.877 6.808 0l5.793 5.792c1.693-.869 3.461-1.604 5.27-2.189v-8.185c0-2.655 2.16-4.814 4.814-4.814h12.382c2.654 0 4.814 2.16 4.814 4.814v8.185c1.809.586 3.576 1.321 5.27 2.189l5.793-5.793c.909-.909 2.118-1.409 3.404-1.409 1.285 0 2.494.5 3.403 1.41l8.756 8.756c.909.908 1.41 2.118 1.41 3.404s-.501 2.496-1.41 3.405l-5.792 5.792c.869 1.693 1.604 3.461 2.189 5.27h8.185c2.654 0 4.814 2.16 4.814 4.814v12.383c0 2.655-2.16 4.814-4.814 4.814h-8.185c-.586 1.809-1.32 3.576-2.189 5.27l5.792 5.792c.909.909 1.41 2.118 1.41 3.404s-.501 2.496-1.41 3.405l-8.756 8.755c-.908.909-2.117 1.41-3.403 1.41-1.287 0-2.496-.501-3.404-1.41l-5.793-5.792c-1.692.868-3.46 1.603-5.27 2.189v8.185c0 2.655-2.16 4.814-4.814 4.814zm-22.637-19.389c.507 0 1.019.124 1.493.378 1.821.977 3.745 1.776 5.72 2.377 1.331.405 2.227 1.607 2.227 2.991v8.829c0 .449.365.814.814.814h12.383c.449 0 .814-.365.814-.814v-8.829c0-1.383.895-2.585 2.226-2.991 1.976-.602 3.9-1.401 5.72-2.377 1.233-.659 2.718-.442 3.696.539l6.249 6.248c.208.208.45.239.576.239.125 0 .367-.031.575-.238l8.756-8.756c.208-.208.238-.45.238-.576s-.03-.368-.238-.576l-6.249-6.25c-.98-.98-1.196-2.465-.537-3.695.976-1.821 1.775-3.746 2.377-5.72.405-1.332 1.607-2.227 2.99-2.227h8.829c.449 0 .814-.365.814-.814v-12.383c0-.449-.365-.814-.814-.814h-8.829c-1.383 0-2.585-.895-2.99-2.227-.602-1.974-1.401-3.898-2.377-5.72-.659-1.229-.443-2.715.537-3.695l6.249-6.249c.208-.208.238-.45.238-.576s-.03-.368-.238-.575l-8.756-8.757c-.319-.318-.834-.317-1.151 0l-6.25 6.25c-.978.979-2.465 1.196-3.694.538-1.821-.977-3.745-1.776-5.72-2.376-1.332-.406-2.227-1.608-2.227-2.991v-8.83c0-.449-.365-.814-.814-.814h-12.383c-.449 0-.814.365-.814.814v8.83c0 1.384-.896 2.586-2.228 2.991-1.973.6-3.896 1.399-5.718 2.376-1.232.659-2.716.443-3.695-.537l-6.25-6.25c-.316-.316-.831-.317-1.151 0l-8.757 8.756c-.317.317-.317.834 0 1.152l6.249 6.249c.981.978 1.198 2.464.538 3.695-.976 1.821-1.775 3.746-2.377 5.72-.405 1.332-1.607 2.227-2.991 2.227h-8.829c-.449 0-.814.365-.814.814v12.383c0 .449.365.814.814.814h8.829c1.384 0 2.586.895 2.991 2.226.602 1.975 1.401 3.899 2.377 5.72.66 1.231.443 2.717-.54 3.697l-6.247 6.247c-.317.317-.317.834 0 1.152l8.757 8.756c.208.208.45.238.576.238.125 0 .367-.031.575-.238l6.249-6.249c.602-.602 1.395-.916 2.202-.916zm-14.939-11.821c-.001 0-.001.001-.002.001zm0-31.637c.001 0 .001.001.002.001zm31.384 40.041c-13.356 0-24.223-10.866-24.223-24.222s10.866-24.222 24.223-24.222c13.355 0 24.222 10.866 24.222 24.222s-10.866 24.222-24.222 24.222zm0-44.445c-11.15 0-20.223 9.072-20.223 20.222s9.072 20.222 20.223 20.222 20.222-9.072 20.222-20.222-9.071-20.222-20.222-20.222z" fill="#3762cc"/></svg>